<svg width="668" height="468" viewBox="0 0 668 468" fill="none" xmlns="http://www.w3.org/2000/svg">
<path d="M667.333 317.333C667.333 357.116 651.53 395.269 623.399 423.399C595.269 451.53 557.116 467.333 517.333 467.333H150.667C110.884 467.333 72.7312 451.53 44.6007 423.399C16.4703 395.269 0.666748 357.116 0.666748 317.333C0.666748 277.551 16.4703 239.398 44.6007 211.267C72.7312 183.137 110.884 167.333 150.667 167.333H167.333C167.333 123.131 184.893 80.7383 216.149 49.4823C247.405 18.2262 289.797 0.666748 334 0.666748C378.203 0.666748 420.595 18.2262 451.851 49.4823C483.107 80.7383 500.667 123.131 500.667 167.333H517.333C557.116 167.333 595.269 183.137 623.399 211.267C651.53 239.398 667.333 277.551 667.333 317.333Z" fill="white"/>
</svg>
