<svg width="86" height="93" viewBox="0 0 86 93" fill="none" xmlns="http://www.w3.org/2000/svg">
<mask id="mask0_101_2" style="mask-type:alpha" maskUnits="userSpaceOnUse" x="0" y="0" width="86" height="93">
<path d="M0 18C0 18 1.5 9.00001 12 9.00001C22.5 9.00001 27.0993 1.71683e-06 32.5 0C34.7381 -7.11471e-07 38.084 4 42 4C45.9576 4 50.4868 -2.77784e-07 53 0C58.5504 6.13479e-07 62 9.00001 73 9.00001C84 9.00001 85 18 85 18V52C85 52 85.0192 79.3658 85 80C84.8878 83.7031 85.0001 86 82.0001 89C79.0001 92 76.7031 91.8878 73 92C72.6096 92.0118 72 92 72 92H12H11C11 92 6 92 3 89C0 86 0 80 0 80V52V18Z" fill="#D9D9D9"/>
</mask>
<g mask="url(#mask0_101_2)">
<rect width="23.3434" height="70" transform="matrix(0.709017 -0.705191 0.709017 0.705191 42.2838 2.46154)" fill="#9238FF"/>
<rect width="23.3434" height="100" transform="matrix(0.709017 -0.705191 0.709017 0.705191 15.733 7.92302)" fill="#12B0FF"/>
<rect width="21.0117" height="120" transform="matrix(0.709017 -0.705191 0.709017 0.705191 -7.08414 14.8258)" fill="#14D64B"/>
<rect width="22.8289" height="104.683" transform="matrix(0.709017 -0.705191 0.709017 0.705191 -16.5547 37.0987)" fill="#FFAC12"/>
<rect width="24.6402" height="90" transform="matrix(0.709017 -0.705191 0.709017 0.705191 -33 55.3761)" fill="#FF1275"/>
</g>
<rect x="13" y="22" width="59" height="57" fill="#E6E6E6"/>
<path fill-rule="evenodd" clip-rule="evenodd" d="M12 30.7605C12 24.8799 15.8934 21 21.7945 21H67.2055C73.1066 21 77 24.8799 77 30.7605V74.2394C77 80.1201 73.1066 84 67.2055 84H21.7945C15.8934 84 12 80.1201 12 74.2394V30.7605ZM21.7945 24.5493C17.8604 24.5493 15.5616 26.8401 15.5616 30.7605V74.2394C15.5616 78.1599 17.8604 80.4507 21.7945 80.4507H67.2055C71.1396 80.4507 73.4384 78.1599 73.4384 74.2394V30.7605C73.4384 26.8401 71.1396 24.5493 67.2055 24.5493H21.7945Z" fill="black" fill-opacity="0.35"/>
<path fill-rule="evenodd" clip-rule="evenodd" d="M10 28.7605C10 22.8799 13.8934 19 19.7945 19H65.2055C71.1066 19 75 22.8799 75 28.7605V72.2394C75 78.1201 71.1066 82 65.2055 82H19.7945C13.8934 82 10 78.1201 10 72.2394V28.7605ZM19.7945 22.5493C15.8604 22.5493 13.5616 24.8401 13.5616 28.7605V72.2394C13.5616 76.1599 15.8604 78.4507 19.7945 78.4507H65.2055C69.1396 78.4507 71.4384 76.1599 71.4384 72.2394V28.7605C71.4384 24.8401 69.1396 22.5493 65.2055 22.5493H19.7945Z" fill="white"/>
<path d="M26.1751 53.0442C29.578 51.0196 36.5623 56.9942 43.6192 57.2377C51.0197 57.4931 57.363 51.8523 60.006 53.5684C62.6491 55.2845 52.0769 69.2941 43.6192 69.2941C34.6328 69.2941 20.889 56.1894 26.1751 53.0442Z" fill="#20315A"/>
<path d="M34.3757 65.8534C34.3757 65.8534 40.4636 62.0019 43.7514 62.0019C46.8766 62.0019 50.0019 67.1219 50.0019 67.1219C50.0019 67.1219 46.8767 69.2941 43.2305 69.2941C38.5138 69.2941 34.3757 65.8534 34.3757 65.8534Z" fill="#FF1275"/>
<rect x="28.1252" y="37" width="5.20873" height="12.501" rx="2.60436" fill="#20315A"/>
<path d="M52.0854 39.6044C52.0854 38.166 53.2514 37 54.6898 37V37C56.1281 37 57.2941 38.166 57.2941 39.6044V46.8966C57.2941 48.3349 56.1281 49.501 54.6898 49.501V49.501C53.2514 49.501 52.0854 48.3349 52.0854 46.8966V39.6044Z" fill="#20315A"/>
<mask id="mask1_101_2" style="mask-type:alpha" maskUnits="userSpaceOnUse" x="13" y="22" width="58" height="56">
<rect x="13.5" y="22.5" width="57.5" height="55.5" rx="8" fill="white"/>
</mask>
<g mask="url(#mask1_101_2)">
<circle cx="61" cy="26" r="5" fill="#EEDDBC" fill-opacity="0.5"/>
<circle cx="18.5" cy="31.5" r="4.5" fill="#BCD9EE" fill-opacity="0.6"/>
<circle cx="34" cy="19" r="8" fill="#C3EEBC" fill-opacity="0.5"/>
<circle cx="12" cy="68" r="4" fill="#EEBCD1" fill-opacity="0.65"/>
<circle cx="30" cy="81" r="5" fill="#EED4BC" fill-opacity="0.65"/>
<circle cx="56" cy="69" r="4" fill="#E1BCEE" fill-opacity="0.65"/>
<circle cx="64" cy="74" r="2" fill="#EEBCD1" fill-opacity="0.5"/>
<circle cx="69" cy="42" r="2" fill="#BCD6EE" fill-opacity="0.5"/>
<circle cx="22" cy="60" r="2" fill="#EEBCD1" fill-opacity="0.5"/>
<circle cx="38" cy="52" r="3" fill="#FF1275" fill-opacity="0.15"/>
<circle cx="50" cy="37" r="4" fill="#C112FF" fill-opacity="0.1"/>
</g>
</svg>
