<svg width="86" height="84" viewBox="0 0 86 84" fill="none" xmlns="http://www.w3.org/2000/svg">
<mask id="mask0_101_33" style="mask-type:alpha" maskUnits="userSpaceOnUse" x="0" y="0" width="86" height="84">
<path d="M-6.10352e-05 9C-6.10352e-05 9 1.49994 0 11.9999 0C22.4999 0 25.5648 2.80657 30.5 5C35 7 50 7 54 5C58.9644 2.51779 61.9999 0 72.9999 0C83.9999 0 84.9999 9 84.9999 9V43C84.9999 43 85.0192 70.3658 84.9999 71C84.8877 74.7031 85 77 82 80C79 83 76.7031 82.8878 72.9999 83C72.6096 83.0118 71.9999 83 71.9999 83H11.9999H10.9999C10.9999 83 5.99994 83 2.99994 80C-6.10352e-05 77 -6.10352e-05 71 -6.10352e-05 71V43V9Z" fill="#D9D9D9"/>
</mask>
<g mask="url(#mask0_101_33)">
<rect x="43.1018" y="-27.3115" width="16.536" height="113.208" transform="rotate(-34.7585 43.1018 -27.3115)" fill="#4CAF50"/>
<rect x="31.6065" y="-19.3344" width="15.264" height="113.208" transform="rotate(-34.7585 31.6065 -19.3344)" fill="#FFEB3B"/>
<rect x="18.0211" y="-9.90694" width="16.536" height="113.208" transform="rotate(-34.7585 18.0211 -9.90694)" fill="#FF9800"/>
<rect x="5.48077" y="-1.20467" width="16.536" height="113.208" transform="rotate(-34.7585 5.48077 -1.20467)" fill="#F44336"/>
<rect x="-7.05957" y="7.49761" width="15.264" height="113.208" transform="rotate(-34.7585 -7.05957 7.49761)" fill="#FF409C"/>
<rect x="-20.645" y="16.9251" width="16.536" height="113.208" transform="rotate(-34.7585 -20.645 16.9251)" fill="#673AB7"/>
<rect x="-34.2303" y="26.3525" width="17.808" height="113.208" transform="rotate(-34.7585 -34.2303 26.3525)" fill="#4657EE"/>
</g>
<rect x="11" y="17" width="63" height="55" rx="10" fill="#E7E7E7" stroke="white" stroke-width="4"/>
<path d="M27.128 47.4013C30.3946 45.4578 37.099 51.193 43.8731 51.4268C50.977 51.6719 57.0661 46.2571 59.6033 47.9045C62.1404 49.5518 51.9919 63 43.8731 63C35.2468 63 22.0538 50.4204 27.128 47.4013Z" fill="#20315A"/>
<path d="M35 59.6972C35 59.6972 40.8439 56 43.9999 56C46.9999 56 50 60.9148 50 60.9148C50 60.9148 47 63 43.5 63C38.9723 63 35 59.6972 35 59.6972Z" fill="#F44336"/>
<rect x="29" y="32" width="5" height="12" rx="2.5" fill="#20315A"/>
<path d="M52 34.5C52 33.1193 53.1193 32 54.5 32V32C55.8807 32 57 33.1193 57 34.5V41.5C57 42.8807 55.8807 44 54.5 44V44C53.1193 44 52 42.8807 52 41.5V34.5Z" fill="#20315A"/>
</svg>
