<svg width="608" height="658" viewBox="0 0 608 658" fill="none" xmlns="http://www.w3.org/2000/svg">
<g clip-path="url(#clip0_107_1065)">
<path d="M367.461 336.687C431.105 333.313 514.467 313.338 561.091 329.623C608.087 345.783 618.347 398.203 594.945 444.421C571.085 490.51 513.65 530.652 465.761 569.551C417.872 608.449 379.444 645.849 337.475 654.373C295.593 663.152 249.224 639.164 215.5 620.5C182.063 601.455 175.905 564.02 139 547C102.008 529.725 34.9302 537.137 15.0471 504.145C-4.37731 471.28 8.84527 421.981 47.8485 387.507C86.8517 353.034 151.549 333.131 205.762 330.111C260.261 326.71 303.816 340.062 367.461 336.687Z" fill="#ECC94B"/>
<path d="M494.596 288.473C497.504 313.163 496.341 337.345 490.048 361.606C488.9 363.87 487.071 363.993 485.208 364.141C470.104 365.338 458.626 371.934 452.325 386.248C450.498 390.398 446.95 391.137 442.838 391.221C433.523 391.411 425.181 394.241 418.551 401.112C411.286 408.642 409.312 417.386 412.668 427.307C413.044 428.421 413.362 429.529 413.302 431.08C411.404 436.534 406.213 437.564 402.453 440.356C400.921 441.493 397.997 441.983 399.782 445.408C400.225 448.936 397.852 450.89 396.246 453.045C393.767 456.368 392.43 459.22 396.951 461.852C397.495 462.168 397.716 462.903 398.059 463.877C398.452 469.046 394.353 471.985 392.873 476.459C385.683 479.316 379.679 483.759 372.907 486.698C368.612 488.561 364.181 489.558 359.171 489.734C356.788 488.372 356.677 486.092 355.675 483.861C351.535 476.763 349.337 469.234 346.248 462.099C341.772 451.761 337.51 441.334 332.579 431.197C331.576 429.133 330.258 427.082 331.658 424.346C333.797 421.927 335.809 420.3 338.917 419.824C343.545 419.115 341.457 415.186 341.627 412.539C341.782 410.136 340.183 409.684 337.934 409.891C334.732 410.185 333.114 411.386 333.206 414.854C333.282 417.702 335.157 420.767 332.271 423.685C330.701 424.616 329.621 423.926 328.986 423.019C325.199 417.616 321.429 412.174 321.712 404.76C323.78 400.852 328.052 401.055 330.895 398.729C338.755 392.297 345.433 384.727 352.441 377.507C346.189 380.265 342.257 379.738 337.56 375.117C331.57 369.222 325.244 363.611 320.637 356.014C320.16 349.054 318.901 342.618 317.521 335.789C317.444 333.248 318.561 331.784 320.437 330.317C325.929 326.045 331.793 322.915 336.556 318.268C342.95 312.028 343.342 310.268 340.178 303.267C338.145 298.772 335.516 294.514 334.425 289.255C334.619 286.925 334.398 284.93 334.608 282.949C334.998 279.279 336.54 276.597 340.565 276.174C344.205 275.791 347.701 278.354 348.707 282.099C349.28 284.235 349.119 286.367 348.252 288.921C350.702 286.869 351.699 284.398 352.978 281.697C355.151 278.105 354.877 274.758 353.436 271.369C351.766 267.442 348.774 263.956 349.408 259.255C349.474 258.762 349.265 257.966 348.881 257.948C342.892 257.659 342.292 250.523 337.175 248.885C334.053 247.885 331.711 245.205 329.249 242.934C325.448 239.427 323.69 235.312 323.768 230.087C323.845 224.955 324.163 219.814 323.077 214.662C321.447 206.929 317.566 201.57 309.202 199.717C307.003 199.084 305.076 198.804 302.935 197.939C290.345 196.68 282.632 204.001 283.464 215.964C283.567 217.454 283.496 218.953 283.494 220.828C283.61 223.819 282.032 226.207 282.47 229.253C282.399 230.429 282.251 231.204 282.221 232.388C282.126 237.652 281.272 242.378 279.394 247.279C274.5 250.24 272.078 246.364 269.578 243.892C263.692 238.071 258.49 231.606 253.093 225.324C246.187 217.285 240.151 208.573 233.103 200.207C231.087 196.566 227.589 196.633 224.228 195.586C221.75 193.086 220.553 190.565 222.263 187.114C225.396 182.852 230.109 181.162 233.644 177.972C235.212 176.558 236.942 175.403 234.275 173.079C225.49 161.266 215.685 150.738 206.844 139.424C205.525 137.736 203.798 136.283 204.777 133.525C235.713 117.554 268.147 109.601 302.753 110.736C346.762 112.18 385.752 127.044 419.952 154.481C451.876 180.091 473.775 212.719 486.718 251.841C487.382 252.478 487.549 252.942 487.293 253.837C490.029 264.618 492.702 275.109 494.12 286.289C494.829 287.018 494.856 287.592 494.596 288.473Z" fill="#FCF2C4"/>
<path d="M272.421 490.687C266.411 490.98 260.699 490.976 254.525 490.934C248.548 489.796 242.847 489.837 237.434 488.081C234.408 487.098 231.495 485.955 228.791 483.537C228.451 482.955 228.366 482.696 228.275 482.028C229.137 475.464 228.301 474.49 222.361 474.248C214.233 473.917 206.061 475.048 197.594 473.402C194.501 471.965 193.877 469.249 193.032 466.769C190.353 458.901 187.62 451.046 185.133 443.117C183.412 437.627 180.247 434.161 174.002 433.385C171.921 431.907 170.576 430.283 169.574 427.934C167.214 421.296 164.937 415.18 158.832 411.267C152.517 407.22 146.022 406.154 138.886 408.246C131.125 410.523 129.883 409.85 127.418 402.048C124.768 393.662 119.492 387.61 111.537 383.871C109.467 382.898 107.056 382.348 106.139 379.429C99.3724 357.792 95.5189 336.088 95.7799 313.705C96.3693 263.172 113.616 218.95 146.043 180.444C153.907 171.107 162.82 162.844 172.518 154.926C175.703 153.847 178.06 155.134 180.142 156.84C185.791 161.47 191.796 165.634 197.47 170.229C199.104 171.553 200.286 173.035 200.213 175.609C198.2 179.299 199.59 180.913 202.88 182.132C207.316 183.775 211.918 185.06 216.362 187.647C220.309 189.156 221.771 192.327 223.262 195.893C223.303 199.358 225.25 201.719 226.621 204.674C233.547 215.423 239.76 226.207 247.148 236.245C254.328 246.002 261.321 255.899 270.021 264.405C272.977 267.294 274.014 270.357 272.05 274.238C271.049 276.218 270.841 278.531 271.457 280.586C274.455 290.584 273.439 300.659 271.906 310.651C271.275 314.762 271.209 318.452 273.273 322.48C273.124 323.954 272.959 325.029 272.764 326.528C269.991 354.714 275.454 381.34 284.215 407.436C287.699 417.813 289.11 428.5 290.085 439.264C291.227 451.864 292.678 464.414 294.681 476.901C295.08 479.39 295.445 481.839 294.299 484.672C291.627 488.759 287.558 488.459 283.873 488.953C280.159 489.451 276.312 488.913 272.421 490.687Z" fill="#FCF2C4"/>
<path d="M412.292 432.152C408.271 424.057 407.226 415.932 411.122 407.918C417.254 395.304 427.999 389.379 441.646 389.156C446.944 389.07 449.212 387.359 451.575 382.601C457.902 369.862 468.983 363.405 483.054 362.054C485.034 361.864 487.046 362.012 489.497 361.993C498.231 364.248 505.902 367.584 511.835 374.111C518.771 381.742 521.948 390.421 519.319 400.701C518.728 403.011 518.944 404.719 520.869 406.456C522.936 408.32 524.534 410.703 526.609 413.071C530.23 414.791 531.248 417.274 529.717 421.074C525.475 423.804 521.547 421.984 517.183 421.262C513.662 421.031 510.661 422.793 507.137 421.498C501.862 416.414 495.611 417.207 489.543 417.227C487.07 417.234 484.596 417.229 481.735 417.503C472.649 418.647 467.532 423.309 466.314 432.196C465.343 439.279 463.286 446.16 461.982 453.19C461.504 455.769 461.065 458.487 458.438 460.53C453.685 461.13 449.398 460.029 444.681 459.564C442.582 458.62 442.339 456.515 440.556 455.311C435.15 449.375 432.369 442.274 428.817 435.624C427.589 433.324 426.687 430.705 423.385 429.868C421.283 428.726 419.982 429.884 418.524 430.655C416.672 431.634 414.925 433.155 412.292 432.152Z" fill="#EBF3EA"/>
<path d="M105.635 379.07C109.588 380.976 113.527 381.874 116.848 384.201C123.653 388.97 128.367 395.136 130.032 403.355C130.786 407.074 132.188 408.192 136.169 406.887C153.462 401.219 166.786 408.968 170.894 427.128C166.182 429.364 161.978 426.648 157.13 425.905C154.581 426.098 152.432 426.194 150.278 426.262C145.3 426.419 144.483 427.384 145.53 432.363C148.322 445.643 150.699 459.006 153.663 472.252C154.365 475.388 155.775 478.65 153.677 482.254C149.05 484.819 144.452 483.292 139.578 483.282C137.022 481.821 136.252 479.511 136.12 477.342C135.899 473.719 133.796 472.267 130.517 471.156C129.817 470.405 129.301 469.546 129.762 469.184C133.227 466.463 132.051 462.835 131.907 459.045C133.003 452.625 131.648 446.918 128.85 441.602C127.713 439.44 125.924 437.576 124.409 435.593C119.285 428.888 114.667 428.359 108.211 433.988C106.82 435.201 105.59 436.545 103.348 437.006C99.5851 436.663 98.0774 433.807 96.2439 431.582C93.8264 428.647 91.3132 425.81 88.5379 422.723C87.7718 421.196 88.1706 419.835 87.8423 418.56C88.3823 421.54 87.5286 423.483 83.7379 423.59C76.0214 424.297 68.6899 425.457 61.1142 422.582C60.9914 420.923 61.7084 419.597 62.8821 419.076C68.2056 416.71 68.4166 412.71 68.1334 407.435C67.3474 392.796 79.8986 379.912 95.1873 378.936C98.4951 378.725 101.835 379.022 105.635 379.07Z" fill="#EAF3E9"/>
<path d="M538.89 131.459C543.897 131.454 548.313 133.063 552.792 135.514C553.202 136.078 553.404 136.377 553.859 136.82C554.07 136.993 554.002 136.834 554.08 136.799C557.724 140.622 559.052 145.25 559.206 150.423C559.537 161.619 559.152 172.443 553.347 182.732C543.546 200.105 523.247 209.183 502.009 201.412C497.947 199.926 494.979 197.141 492.34 193.295C487.913 183.857 488.073 174.4 490.025 164.414C490.373 163.914 490.601 163.816 491.175 163.856C492.356 164.629 492.706 165.533 493.046 166.493C494.968 171.917 497.764 173.1 502.848 170.389C507.378 167.972 510.628 164.163 512.876 159.628C514.229 156.9 514.056 154.323 511.163 152.19C507.894 149.779 508.291 147.733 512.239 146.564C516.602 145.271 521.127 145.642 525.57 146.32C527.22 146.571 528.851 146.797 530.512 146.777C537.421 146.694 540.129 143.427 539.021 136.656C538.758 135.049 538.036 133.441 538.89 131.459Z" fill="#FEDD6B"/>
<path d="M559.048 15.7251C566.773 19.4136 571.231 24.9395 571.033 33.4311C570.968 36.1998 571.785 37.1193 574.721 37.1055C582.929 37.067 587.912 41.316 588.091 47.9884C588.284 55.2194 583.074 60.5543 574.991 60.6501C559.193 60.8372 543.389 60.8346 527.591 60.6143C519.843 60.5063 514.563 55.6708 514.169 49.1577C513.825 43.4525 518.539 37.8985 524.595 37.1061C526.38 36.8726 528.274 36.9437 530.044 37.2711C532.088 37.649 532.725 37.2422 532.476 35.0681C530.872 21.0386 546.51 10.3513 559.048 15.7251Z" fill="#FAF1C2"/>
<path d="M13.2777 121.41C13.5255 106.837 25.2358 95.7146 39.0669 96.3906C53.5542 97.0987 64.7229 109.923 63.4153 124.434C63.2376 126.407 62.6771 128.345 62.1197 130.645C58.0415 138.191 52.4606 143.14 44.2984 145.247C28.4116 149.348 12.598 136.924 13.2777 121.41Z" fill="#F67647"/>
<path d="M492.087 193.342C496.627 194.898 500.103 198.641 505.051 200.107C528.722 207.118 549.696 193.868 555.794 170.414C558.638 159.478 557.697 148.374 554.127 137.176C557.978 137.501 560.16 140.546 562.949 143.199C563.63 144.516 564.606 145.32 565.081 146.676C565.426 146.775 565.365 146.599 565.454 146.572C574.888 161.875 569.651 187.109 557.226 199.967C543.093 214.591 519.305 216.122 505.717 208.985C502.555 207.324 500.04 204.963 497.078 202.426C496.721 202.2 496.83 202.077 496.89 202.133C496.802 201.857 496.587 201.576 496.085 201.193C493.889 198.963 492.959 196.355 492.087 193.342Z" fill="#FDC938"/>
<path d="M496.822 202.529C498.687 202.103 500.177 203.179 501.74 204.156C528.368 220.809 560.652 206.52 567.365 175.938C569.447 166.452 568.299 156.734 565.448 146.957C572.056 152.921 574.427 161.134 575.503 169.783C578.78 196.133 558.039 220.868 531.454 222.015C530.638 222.372 530.201 222.509 529.422 222.219C515.387 220.691 504.521 214.527 496.822 202.529Z" fill="#F6B82D"/>
<path d="M204.736 133.075C208.886 138.199 212.658 143.2 216.618 148.048C222.173 154.847 227.882 161.52 233.478 168.285C234.098 169.033 234.416 170.031 234.975 171.225C233.207 177.733 227.561 179.797 222.374 182.838C220.249 182.812 219.039 181.891 217.971 180.128C217.48 178.54 217.588 177.286 217.713 175.677C218.098 173.773 219.806 172.125 218.395 170.694C216.276 168.547 214.106 171.165 211.537 171.16C209.22 170.63 207.995 169.43 207.569 167.066C208.613 160.59 207.839 158.764 202.275 155.791C200.144 154.652 198.713 153.084 197.233 151.239C192.572 145.427 186.664 140.791 181.636 135.311C179.248 132.709 176.322 134.511 173.328 134.057C172.396 133.605 171.914 132.74 172.384 132.382C177.378 128.584 181.117 123.332 186.663 120.168C190.334 118.074 193.135 118.783 195.665 122.143C198.444 125.834 201.505 129.313 204.736 133.075Z" fill="#E3EEE7"/>
<path d="M541.907 490.415C529.557 490.844 517.24 490.923 504.456 490.958C501.939 488.313 503.644 486.18 504.983 484.147C510.726 475.426 516.306 466.592 522.682 457.857C523.715 456.243 524.892 455.422 526.788 455.091C528.204 455.057 529.253 455.052 530.696 455.049C538.338 456.718 538.602 456.983 537.151 463.608C536.688 465.723 537.518 466.366 539.296 466.488C540.833 466.594 542.158 465.772 543.579 465.36C546.903 464.395 549.233 465.176 549.36 469.082C549.413 470.689 550.267 471.873 550.984 473.536C548.024 479.272 544.982 484.668 541.907 490.415Z" fill="#AAD7CC"/>
<path d="M538.673 131.038C543.572 138.593 542.194 146.307 535.817 148.421C532.29 149.59 528.594 149.112 524.959 148.502C520.163 147.698 515.384 147.567 509.99 149.41C512.875 150.59 515.829 151.114 515.999 154.551C516.144 157.466 515.665 160.108 513.965 162.586C511.301 166.469 508.334 170.061 504.186 172.363C496.363 176.704 491.244 173.719 491.013 164.416C490.975 162.394 492.223 161.397 492.999 159.832C493.392 159.212 493.64 158.873 494.082 158.276C494.394 157.833 494.524 157.657 494.87 157.227C497.047 154.716 498.381 152.035 500.048 149.578C504.914 142.401 511.235 137.008 519.449 133.314C520.795 132.258 521.923 131.537 523.655 131.307C528.709 129.979 533.477 129.813 538.673 131.038Z" fill="#FEE796"/>
<path d="M74.841 33.2364C72.1391 28.3597 72.6552 23.5593 73.9841 18.3361C74.2604 17.8042 74.3952 17.6672 74.7651 17.3506C76.5641 16.1735 76.9569 14.3806 77.9641 12.6202C78.1451 12.0926 78.2342 11.8874 78.555 11.4392C81.7752 9.28458 84.1413 6.46005 87.6573 4.87636C92.7219 3.35311 97.6502 3.26799 102.768 5.51744C109.166 11.6005 107.754 18.3435 105.147 25.0494C100.974 35.7816 90.121 40.7505 79.6951 37.0645C77.6748 36.3502 76.1976 35.292 74.841 33.2364Z" fill="#FEDD6B"/>
<path d="M220.049 37.0451C224.916 48.9091 221.6 46.5646 234.117 47.1179C235.445 47.1766 236.774 47.2491 238.098 47.3663C238.394 47.3925 238.671 47.6338 239.381 47.9867C238.37 50.1849 236.317 51.4618 234.522 52.483C228.401 55.9633 227.066 60.6093 229.805 66.9604C230.615 68.8379 231.342 71.0276 230.616 73.6209C226.787 72.713 224.088 69.9614 221.182 67.8C218.662 65.9259 216.906 66.1238 214.645 67.9968C211.73 70.4108 208.584 72.5447 205.014 75.1869C204.296 71.2046 205.295 67.9813 206.274 65.0729C208.042 59.824 206.304 56.6632 201.883 53.9543C199.586 52.5464 197.06 51.097 195.366 48.3359C199.534 46.8788 203.518 47.0027 207.442 47.0361C210.402 47.0613 212 45.8981 212.874 43.0768C214.041 39.3056 215.537 35.6358 216.968 31.7158C219.03 33.1897 219.105 35.1508 220.049 37.0451Z" fill="#F8F0C1"/>
<path d="M82.5174 490.509C76.4862 490.893 70.7059 490.976 64.4621 490.986C62.2829 489.49 61.2707 487.713 60.7251 485.511C58.3359 475.869 55.5486 466.33 53.2461 456.664C52.7892 454.746 52.0972 452.797 53.7485 450.646C55.6081 450.684 57.1482 451.003 59.1397 451.462C64.5925 449.623 67.181 453.291 69.7959 456.27C71.5993 458.326 72.7882 460.926 74.6906 463.455C77.3448 470.604 80.0021 477.338 82.6159 484.089C83.3969 486.106 84.1749 488.132 82.5174 490.509Z" fill="#CF4F36"/>
<path d="M44.6587 357.697C49.9709 356.423 54.4871 357.533 58.7924 360.858C59.5198 361.514 59.4827 362.166 60.0353 362.784C60.2892 362.921 60.1712 362.731 60.2678 362.674C63.1508 368.587 62.6249 374.086 58.3413 379.264C53.55 385.057 47.5167 387.165 40.2203 385.88C37.4778 385.398 35.4507 383.694 33.3721 381.32C31.1322 377.772 31.4789 374.308 32.055 370.46C33.0204 369.51 33.5195 368.683 33.8107 367.362C34.136 366.466 34.4786 365.927 34.942 365.078C35.2326 364.609 35.3719 364.434 35.7909 364.072C38.6762 361.661 41.4073 359.611 44.6587 357.697Z" fill="#F67647"/>
<path d="M527.161 454.66C526.589 456.183 526.078 457.353 524.454 457.918C520.611 460.472 516.783 461.465 512.133 460.017C510.043 458.292 509.736 456.295 510.014 454.284C511.447 443.918 512.786 433.535 514.768 423.253C514.99 422.103 515.269 420.971 516.584 419.896C520.929 419.364 524.726 420.574 529.055 420.926C530.438 420.219 531.24 420.565 532.161 421.559C531.618 432.827 528.865 443.459 527.161 454.66Z" fill="#DF6445"/>
<path d="M51.2828 490.603C47.0072 490.932 43.0308 490.958 38.6048 490.935C35.5085 479.642 33.036 468.352 30.1254 457.176C29.0309 452.973 29.6314 450.956 34.3135 450.933C36.6037 450.921 38.8911 450.368 41.6033 450.107C43.7998 451.484 44.9097 453.16 45.4712 455.379C47.9388 465.131 50.479 474.862 52.4999 484.722C52.9152 486.748 53.1065 488.639 51.2828 490.603Z" fill="#EF7549"/>
<path d="M208.802 165.673C208.923 167.798 209.753 169.028 211.742 169.852C214.683 170.697 217.464 171.2 217.972 174.983C217.918 175.603 217.878 175.85 217.686 176.442C216.185 177.92 215.37 179.503 213.842 180.984C207.932 182.095 203.142 180.566 199.044 176.192C199.058 172.244 195.653 171.886 193.743 170.351C187.148 165.052 180.651 159.597 173.121 154.931C175.556 151.412 179.358 149.484 183.27 147.123C185.841 145.037 187.535 146.62 189.312 147.824C196.582 152.751 202.309 159.372 208.802 165.673Z" fill="#D8E6DE"/>
<path d="M51.443 490.981C50.071 480.842 46.8102 471.283 44.6373 461.491C43.8525 457.954 42.9302 454.447 42.0487 450.54C45.7841 449.602 49.5447 449.723 53.6872 450.233C57.0975 462.163 60.1364 473.957 63.1446 485.758C63.5087 487.186 63.7078 488.657 63.991 490.51C59.9665 490.96 55.9344 491.008 51.443 490.981Z" fill="#DE6042"/>
<path d="M73.2801 464.049C69.9539 458.739 66.2847 453.965 59.8214 451.731C59.0503 446.006 58.5693 440.399 56.9679 434.574C56.5046 433.53 56.5097 432.787 56.4008 431.706C59.297 429.361 59.4611 425.982 60.6817 422.769C60.7608 422.435 60.7427 422.371 60.7385 422.341C68.5186 422.2 76.3029 422.09 84.5559 422.02C85.1827 422.276 85.3408 422.491 85.6387 423.081C85.4349 429.006 81.6377 431.62 77.0158 433.099C73.096 434.354 71.862 436.318 72.6813 440.474C73.8026 446.162 74.0973 452.005 74.951 457.759C75.2637 459.867 75.4187 462.124 73.2801 464.049Z" fill="#F9CE67"/>
<path d="M413.862 5.0369C419.318 -0.554066 425.932 -1.42902 434.068 2.46309C438.113 11.402 434.095 21.3237 425.31 24.9867C419.183 27.541 414.142 26.0151 409.843 20.2344C408.353 15.3133 409.364 10.9771 412.157 6.67361C412.399 6.41685 412.744 6.57017 413.348 6.1033C413.953 5.63644 413.899 5.23561 413.862 5.0369Z" fill="#F57E52"/>
<path d="M74.507 33.3985C75.3701 33.3977 76.2952 33.7691 77.2331 34.1048C84.4771 36.6977 91.6509 37.5942 97.76 31.6926C104.253 25.4198 106.635 17.8256 103.844 8.9567C103.595 8.16435 103.378 7.36184 103.103 6.16174C105.845 6.40768 107.918 8.14064 109.937 10.4778C110.405 11.3493 110.481 12.0129 111.043 12.7469C111.338 12.8861 111.21 12.7709 111.271 12.7107C117.131 22.9366 112.177 33.2118 105.459 39.0231C98.4085 45.1221 86.3349 46.6974 78.0803 39.4373C77.7108 39.2017 77.8191 39.0584 77.8902 39.1133C77.798 38.8397 77.569 38.5647 77.051 38.1951C75.413 36.9642 75.0072 35.3523 74.507 33.3985Z" fill="#FDC938"/>
<path d="M209.176 165.689C204.807 166.108 202.518 163.212 200.261 160.373C195.835 154.807 189.813 151.181 183.935 147.011C181.113 142.107 176.629 138.84 173.124 134.333C178.007 130.073 179.742 129.82 183.849 134.524C189.13 140.574 195.897 145.101 200.462 152.036C201.855 154.152 205.855 156.146 208.768 158.005C212.605 160.454 212.234 162.694 209.176 165.689Z" fill="#F7FAF8"/>
<path d="M551.333 473.694C545.178 473.858 547.805 469.573 547.621 466.274C543.471 467.005 539.922 470.127 535.401 468.14C533.148 467.149 532.394 467.02 533.961 464.66C537.932 458.676 537.825 458.605 531.268 455.342C538.226 456.471 545.589 454.629 552.698 456.556C554.346 457.002 556.028 457.269 556.071 459.505C556.078 459.828 556.091 460.339 556.281 460.446C566.219 466.044 555.903 467.883 554.203 471.239C553.72 472.192 552.488 472.766 551.333 473.694Z" fill="#31637A"/>
<path d="M33.1015 381.344C34.6056 381.572 36.148 382.157 37.6931 382.734C49.2461 387.048 59.822 379.848 60.0198 367.543C60.0411 366.221 60.1174 364.9 60.2662 363.098C65.741 367.24 65.9906 373.284 64.2327 379.338C62.1891 386.376 57.2289 390.709 49.4431 391.992C48.8802 392.266 48.6885 392.457 48.2039 392.367C41.1231 391.274 35.8716 388.278 33.1015 381.344Z" fill="#EA623D"/>
<path d="M539.719 394.275C546.196 393.315 550.225 396.232 553.008 402.061C553.328 403.142 553.55 403.65 553.785 404.578C552.534 406.967 552.978 409.411 551.778 411.49C548.469 417.226 543.703 419.828 536.752 419.046C536.132 418.91 535.885 418.847 535.279 418.658C534.175 418.315 533.399 418.343 532.27 418.127C530.061 416.483 528.551 414.799 529.108 411.805C529.793 408.834 531.919 408.578 534.057 407.947C538.513 406.632 539.381 403.808 536.329 400.334C535.893 399.921 535.738 399.734 535.435 399.209C534.928 395.79 537.737 395.654 539.719 394.275Z" fill="#F67647"/>
<path d="M280.933 18.8197C281.766 18.4607 282.438 18.2635 283.08 18.3331C287.967 18.8623 291.487 17.4866 292.452 12.0704C292.602 11.2286 292.92 10.0766 294.721 9.60693C296.329 16.1178 300.337 19.9154 308.194 18.8916C302.875 22.7525 299.321 26.6119 303.983 33.3719C297.636 29.3229 291.852 27.3029 286.671 33.8805C286.131 33.0531 285.773 32.6976 285.839 32.5783C289.458 26.0716 284.807 22.703 280.933 18.8197Z" fill="#F5D55F"/>
<path d="M131.63 94.2529C132.16 96.4655 132.844 98.3145 133.53 100.168C132.159 101.382 130.844 100.435 129.824 99.8873C126.299 97.9956 122.979 97.8343 119.494 100.007C118.483 100.637 115.833 101.977 116.37 99.3301C117.407 94.2218 113.893 92.6142 110.937 90.3648C110.421 89.9722 109.686 89.866 109.208 88.9108C115.983 88.5303 121.48 87.3397 121.985 78.8169C126.097 84.8872 130.252 89.4108 138.727 86.2881C136.699 90.3106 133.484 91.4314 131.63 94.2529Z" fill="#F5CF50"/>
<path d="M42.2495 48.4166C41.8129 45.8714 41.6114 43.7231 42.8553 41.3592C44.1114 40.4939 44.9689 41.0111 45.7775 41.5338C46.8066 42.1992 47.8373 42.5697 48.886 41.6937C49.9883 40.7729 49.6603 39.6784 49.0687 38.6318C47.8493 36.4747 48.7936 34.9484 50.7456 33.3977C55.7095 31.1697 60.2118 31.761 64.78 34.4992C68.3386 41.0422 67.5057 44.4913 61.2166 50.4053C56.0725 55.2426 50.2109 56.315 45.2837 53.2993C43.6117 52.276 42.7654 50.704 42.2495 48.4166Z" fill="#F6764B"/>
<path d="M13.0309 121.484C14.4091 129.173 18.2939 135.758 25.3346 140.078C35.908 146.565 49.6232 144.116 57.845 134.593C58.906 133.364 59.4505 131.603 61.6151 131.065C59.0076 141.956 51.4839 147.77 40.3099 150.008C39.5988 150.413 39.2066 150.535 38.4867 150.316C22.1638 147.856 12.9351 137.545 13.0309 121.484Z" fill="#EA623D"/>
<path d="M77.8212 39.5235C81.2156 40.1083 84.6714 41.3944 88.2339 41.8537C101.266 43.5338 112.216 33.0972 111.963 19.4169C111.927 17.4511 111.52 15.4922 111.309 13.0903C117.018 18.6226 116.683 25.6827 114.313 32.6773C111.715 40.3485 106.638 45.8104 97.8189 47.2098C96.5325 47.2749 95.7514 47.8792 94.466 47.8092C87.6151 47.3914 81.8018 45.6165 77.8212 39.5235Z" fill="#F6B82D"/>
<path d="M133.075 169.6C130.186 170.401 128.413 172.743 124.775 173.07C128.627 166.676 125.203 162.755 120.243 158.971C126.665 159.06 131.989 158.101 132.906 150.004C135.226 156.761 138.822 160.61 146.442 159.067C142.084 163.142 137.04 166.626 142.435 173.488C138.148 173.119 136.364 170.113 133.075 169.6Z" fill="#F5D55F"/>
<path d="M559.065 325.109C554.197 328.858 552.139 333.039 555.536 339.299C550.339 335.315 545.467 334.612 540.086 339.211C542.773 332.365 540.013 328.028 534.568 324.386C540.817 324.42 546.336 324.132 546.302 316.479C548.28 316.675 548.487 317.862 548.719 318.685C549.876 322.795 552.471 324.191 556.593 323.476C557.467 323.324 559.494 322.257 559.065 325.109Z" fill="#F5D25A"/>
<path d="M409.483 20.4225C410.229 20.3435 411.094 20.5092 411.769 20.9597C416.404 24.0564 421.352 25.4636 426.205 22.0034C431.657 18.1166 434.912 12.8623 433.736 5.71646C433.608 4.94042 433.81 4.1101 434.091 3.01868C437.194 4.0391 439.15 6.17016 440.169 9.53468C440.998 15.9901 440.589 21.5597 435.541 26.1916C428.682 32.4848 420.914 33.1336 412.852 27.2898C410.596 25.4295 410.023 23.1287 409.483 20.4225Z" fill="#F26B3F"/>
<path d="M41.994 48.416C45.0386 52.0107 49.373 53.7203 53.7968 52.3059C59.4753 50.4903 63.7812 46.5195 64.8642 40.1339C65.1099 38.685 64.9594 37.169 64.9898 35.2351C67.4018 35.8522 68.964 37.7211 70.0389 40.4277C71.6737 47.8119 69.4634 54.1661 63.3313 57.8497C57.9221 61.099 52.1528 61.6362 46.6998 57.4635C46.1786 57.0647 45.5455 56.8271 44.6081 56.2585C42.5165 53.9151 41.8873 51.4716 41.994 48.416Z" fill="#F26B3F"/>
<path d="M92.209 206.27C99.826 213.754 97.1589 226.697 87.0552 231.055C85.0808 231.907 82.9732 232.714 80.8629 232.939C73.674 233.702 70.4248 237.992 69.478 244.727C68.9918 248.185 68.3778 251.638 67.5914 255.039C65.424 264.414 60.3957 268.591 50.748 269.054C47.5288 269.208 44.2961 269.078 41.0695 269.078C41.0622 268.472 41.0548 267.866 41.0475 267.261C43.8709 267.261 46.6988 267.365 49.5169 267.242C59.7804 266.794 64.2745 262.789 65.9978 252.685C66.3337 250.715 66.7996 248.759 66.9931 246.777C67.8945 237.537 72.045 231.933 82.0374 230.637C92.2564 229.311 99.1718 217.623 92.209 206.27Z" fill="#D3E7D0"/>
<path d="M412.588 27.4718C415.342 27.7575 418.225 28.6866 421.163 28.9176C431.207 29.7074 438.232 23.4694 439.034 13.3741C439.111 12.4085 439.469 11.4653 439.952 10.2002C445.491 19.5195 439.938 30.2986 427.42 34.0225C426.324 34.6066 425.536 34.783 424.294 34.2345C419.48 33.2355 415.497 31.6173 412.588 27.4718Z" fill="#EA623D"/>
<path d="M44.358 56.312C47.0325 55.6432 49.2682 57.4824 51.8581 57.8904C61.4826 59.4063 68.2944 53.297 70.059 41.1777C74.7324 50.8862 69.6546 60.3465 57.6776 63.1547C57.2545 63.2206 56.8475 63.3807 56.6471 63.2931C51.3887 62.9467 47.2923 60.9381 44.358 56.312Z" fill="#EA623D"/>
<path d="M527.154 244.984C526.499 244.962 525.91 245.032 525.874 244.922C524.706 241.346 523.78 237.703 522.48 234.15C521.737 232.119 524.991 229.433 528.463 228.86C529.287 228.555 529.788 228.448 530.669 228.736C533.882 229.196 535.804 230.878 537.32 233.162C537.874 233.997 538.59 235.549 538.003 235.814C534.239 237.511 536.023 241.838 533.397 244.316C532.538 244.647 532.059 244.662 531.254 244.353C530.531 244.077 530.128 243.986 529.416 243.956C528.614 244.427 528.156 244.894 527.154 244.984Z" fill="#F2B933"/>
<path d="M526.866 245.405C527.372 244.642 527.913 244.309 528.781 243.996C529.625 256.258 525.513 265.726 513.196 270.679C512.89 271.16 512.716 271.32 512.319 271.205C509.521 269.33 506.255 270.145 503.659 268.338C501 266.487 499.078 264.378 499.753 260.979C500.224 258.61 501.996 257.218 504.395 257.224C507.741 257.234 509.228 259.558 510.23 262.421C512.108 267.784 513.428 268.255 518.248 265.282C525.542 260.782 526.763 253.54 526.866 245.405Z" fill="#D3E7D0"/>
<path d="M22.8718 313.229C27.3698 313.53 29.2264 310.682 30.964 306.594C32.834 311.154 35.6009 313.296 41.0285 312.407C37.6695 315.65 34.5699 318.032 37.7283 323.406C33.1909 320.902 29.7569 319.56 25.4436 324.003C27.4181 318.426 24.3383 316.204 22.8718 313.229Z" fill="#F3ECB6"/>
<path d="M539.668 394.073C538.736 395.512 537.43 396.924 536.087 398.699C538.571 399.139 541.32 399.003 541.451 402.584C541.561 405.627 537.344 410.125 534.185 410.508C532.907 410.663 531.588 409.758 529.746 410.801C528.664 400.371 530.826 396.754 539.668 394.073Z" fill="#F78F69"/>
<path d="M48.3559 178.875C48.0831 186.831 46.054 194.174 43.2854 201.338C43.2256 201.493 43.1874 201.656 43.1355 201.814C38.5476 215.778 44.0028 221.983 58.5321 219.512C64.5237 218.493 70.578 217.843 76.6871 217.501C74.6669 219.779 71.8528 219.187 69.4182 219.654C64.2065 220.654 58.9345 221.558 53.6483 221.902C44.3305 222.507 39.6982 217.809 39.9104 208.512C39.9521 206.686 40.1348 204.863 40.2768 202.584C40.3704 201.405 40.4725 200.684 40.5906 199.591C42.3009 192.579 43.3138 185.764 46.2216 179.108C46.9999 178.576 47.5126 178.501 48.3559 178.875Z" fill="#C5E2D1"/>
<path d="M328.515 83.9486C327.372 85.965 328.574 87.8062 328.169 90.042C324.979 88.4075 321.93 87.0149 318.092 90.9952C319.22 85.9336 317.904 82.9343 314.582 80.5238C319.113 80.7145 321.528 78.4846 322.828 73.4675C324.722 78.2864 327.054 81.0194 331.816 79.942C332.012 80.355 332.209 80.768 332.405 81.181C331.18 82.0088 329.956 82.8366 328.515 83.9486Z" fill="#F3ECB6"/>
<path d="M495.07 160.823C493.753 161.924 492.647 162.805 491.281 163.842C491.02 163.997 490.582 164.006 490.363 164.009C492.908 147.54 506.265 134.234 523.567 131.133C523.081 131.921 522.203 132.682 521.173 133.694C508.643 137.921 500.297 145.944 496.196 158.74C495.978 159.032 496.011 159.005 496.013 158.984C495.562 159.417 495.515 160.052 495.07 160.823Z" fill="#F2E08E"/>
<path d="M96.5968 57.9914C97.6411 65.3529 98.4234 72.3604 96.9798 79.5087C95.2232 88.2065 90.1468 94.1112 81.843 99.3815C84.3805 94.0724 89.0366 91.8668 90.7296 87.1647C91.5287 86.5948 91.626 86.0364 91.8579 85.2292C92.0603 84.323 92.0914 83.6473 92.1271 82.6335C94.3096 80.2134 93.9147 77.4523 93.9706 74.8746C94.0849 69.6042 94.0014 64.3305 94.0716 58.734C94.8263 57.8034 95.4988 57.5145 96.5968 57.9914Z" fill="#C4DBAE"/>
<path d="M36.1918 163.114C33.3314 159.601 34.1023 157.32 38.1725 155.681C38.9327 154.661 39.5753 154.247 40.8119 154.756C43.6225 156.498 48.0632 156.785 45.2504 161.892C44.8307 162.568 44.706 163.068 44.4918 163.949C42.4881 167.096 40.1651 167.334 37.2498 165.207C36.7489 164.437 36.533 163.961 36.1918 163.114Z" fill="#EF7549"/>
<path d="M94.6967 58.4145C96.781 66.3236 96.6765 74.0217 94.8769 81.6813C94.6867 82.4906 94.647 85.8333 92.3102 82.4641C92.1517 74.6397 92.1716 66.9839 92.2632 58.8208C93.0105 57.9769 93.7032 57.9449 94.6967 58.4145Z" fill="#8AC7B0"/>
<path d="M371.474 98.9213C370.575 99.3791 369.52 99.4117 369.739 98.7074C370.621 95.8725 369.093 93.9901 367.046 91.771C369.68 90.6202 373.068 90.9349 373.044 85.4839C375.198 89.7257 376.655 92.0023 380.622 90.5279C379.105 93.7776 375.709 95.4316 378.14 98.9044C375.691 99.3831 373.703 96.8208 371.474 98.9213Z" fill="#F2E08E"/>
<path d="M534.61 418.534C539.627 416.727 545.308 417.406 549.153 412.56C550.973 410.266 551.291 407.375 553.493 405.135C554.179 413.873 550.234 419.051 540.9 421.079C538.509 420.655 536.84 420.132 534.916 419.336C534.661 419.064 534.497 418.699 534.61 418.534Z" fill="#EA623D"/>
<path d="M494.855 288.808C494.338 288.227 494.238 287.724 494.15 286.956C495.309 286.725 496.603 286.417 497.578 286.842C506.81 290.862 515.988 295.006 525.015 299.519C514.351 298.033 505.456 291.651 494.855 288.808Z" fill="#D3E7D0"/>
<path d="M50.6666 33.2042C51.1865 34.6286 48.7501 35.9052 50.8494 37.5398C54.1618 40.119 52.754 42.4759 50.0187 44.1551C46.9941 46.012 44.7158 44.8785 43.2949 41.3067C43.8668 36.9192 46.757 34.7628 50.6666 33.2042Z" fill="#F59168"/>
<path d="M427.631 43.395C428.643 51.8271 426.938 60.0507 428.946 68.5372C428.711 69.6258 428.144 69.9432 427.077 70.0452C423.817 67.2394 426.561 56.3336 426.5 52.5C426.417 47.2631 422.973 49.2846 422.977 43.5855C424.426 41.7316 425.893 42.0413 427.631 43.395Z" fill="#C4DBAE"/>
<path d="M82.5559 112.117C88.1052 117.521 94.4277 119.871 102.592 118.947C97.3044 122.394 88.0854 120.244 82.6277 115.016C78.3534 110.921 77.7049 105.839 81.2045 100.181C81.5321 104.452 79.5805 108.453 82.5559 112.117Z" fill="#C4DBAE"/>
<path d="M76.2347 169.12C77.2368 170.293 80.0145 170.436 79.2344 170.906C77.0247 172.235 79.865 175.977 75.3041 176.478C69.5961 177.105 71.6145 172.018 68.7848 170.717C70.6496 169.602 72.4174 169.55 73.5935 167.714C75.2181 165.179 75.1168 168.548 76.2347 169.12Z" fill="#F5D25A"/>
<path d="M95.1925 58.5023C94.3217 58.5405 93.662 58.4485 92.6685 58.3349C90.9428 56.4474 89.8903 54.5222 92.6029 52.9497C94.4722 51.8661 93.7345 50.049 94.14 48.1384C95.0013 47.5067 95.8718 47.292 97.0947 47.1053C94.9182 49.4604 95.0077 51.4059 97.989 53.4097C100.273 54.9447 100.826 56.7764 97.2123 58.1562C96.3746 58.3141 95.8891 58.3432 95.1925 58.5023Z" fill="#F2B933"/>
<path d="M561.124 272.187C561.852 271.13 561.882 269.921 564.223 269.512C562.69 274.549 560.522 278.458 556.519 281.133C552.586 283.762 548.41 284.595 544.073 281.386C552.571 283.655 557.231 278.933 561.124 272.187Z" fill="#D3E7D0"/>
<path d="M58.6699 69.7813C57.5332 74.9549 58.4015 80.1163 57.0665 85.0804C53.7226 80.7606 55.5239 75.7671 54.9772 70.6742C55.8691 68.9896 57.0393 68.9692 58.6699 69.7813Z" fill="#8AC7B0"/>
<path d="M428.081 43.4678C426.461 43.8632 425.016 44.1309 423.317 43.2341C421.54 41.3744 421.944 39.9684 423.689 38.6833C425.176 37.5874 425.642 36.1957 424.184 34.2897C424.707 34.0133 425.489 34.0022 426.661 34.0208C426.052 35.9807 426.067 37.7843 427.904 39.2001C429.54 40.4602 429.644 41.7563 428.081 43.4678Z" fill="#E7825A"/>
<path d="M48.5 392.5C48.25 394.624 46.194 402.932 45.5989 404.798C43.5514 411.219 45.9395 416.689 48.9734 422.599C41.346 416.124 41.9016 408.021 45.8604 399.128C46.181 398.725 48.0747 392.318 48.5 392.5Z" fill="#AAD7CC"/>
<path d="M552.152 312.144C547.306 311.637 543.646 309.686 540.767 305.903C546.303 309.378 552.094 311.534 558.757 310.268C557.062 312.552 554.709 311.971 552.152 312.144Z" fill="#D3E7D0"/>
<path d="M549.368 262.23C548.15 263.308 547.27 264.317 543.977 264.372C549.923 259.797 553.013 254.711 555.34 249.081C555.416 254.34 553.189 258.473 549.368 262.23Z" fill="#D3E7D0"/>
<path d="M419.357 85.7607C419.008 84.1532 419.783 84.7726 420.327 85.0244C427.92 88.538 432.729 86.8306 436.391 79.3108C436.923 83.0092 436.283 84.4561 433.276 86.3573C428.23 89.548 424.353 89.4406 419.357 85.7607Z" fill="#C4DBAE"/>
<path d="M17.2209 215.551C16.6892 212.455 15.2939 209.794 17.2752 205.42C18.4262 212.072 19.1351 217.55 23.1825 222.509C19.4387 220.88 19.4387 220.88 17.2209 215.551Z" fill="#D3E7D0"/>
<path d="M487.445 254.06C487.077 253.718 487.044 253.256 486.992 252.448C491.446 248.938 496.349 247.3 501.91 247.876C497.272 250.125 491.981 250.761 487.445 254.06Z" fill="#D3E7D0"/>
<path d="M476.589 91.1859C477.827 90.0749 477.809 87.0017 480.828 88.9917C483.033 90.4457 481.857 91.6558 481.603 93.089C481.443 93.9915 480.975 94.54 479.953 94.5995C477.72 94.7296 477.253 93.0724 476.589 91.1859Z" fill="#E3D069"/>
<path d="M23.3164 258.342C22.0388 254.675 21.4425 251.331 22.8875 247.698C23.9302 252.976 24.614 258.336 27.4092 263.11C24.8081 262.61 24.3441 260.478 23.3164 258.342Z" fill="#C5E2D1"/>
<path d="M170.773 56.4086C172.782 56.7119 174.731 57.3753 174.226 59.7047C173.965 60.9087 173.715 62.7987 171.606 62.7225C170.618 62.6868 169.636 62.737 169.141 61.5976C168.243 59.5349 168.585 57.8524 170.773 56.4086Z" fill="#E3D069"/>
<path d="M469.384 144.568C470.745 145.436 473.092 145.583 472.306 147.841C471.918 148.954 471.917 150.628 470.014 150.676C468.767 150.707 467.977 150.529 467.343 149.128C466.298 146.818 467.527 145.782 469.384 144.568Z" fill="#E3D069"/>
<path d="M275.261 54.2729C276.93 51.5861 278.782 51.3345 280.431 53.6358C281.39 54.9743 281.016 56.7089 279.429 57.3986C276.885 58.5042 275.31 57.5401 275.261 54.2729Z" fill="#96D2C8"/>
<path d="M59.2358 69.9284C57.936 70.1178 56.8583 70.1328 55.378 70.1857C52.6579 67.5222 56.3776 66.1237 56.3919 63.5597C56.631 63.1721 56.8165 63.162 57.1289 63.198C56.2368 65.9894 61.4312 66.6631 59.2358 69.9284Z" fill="#F2B933"/>
<path d="M60.4525 422.607C60.868 424.407 60.8894 426.387 61.1031 428.347C61.4043 431.109 60.2024 431.963 57.2891 431.269C56.2907 430.463 56.1803 429.644 56.7666 428.368C57.9048 426.17 58.4184 424.107 60.4525 422.607Z" fill="#E3EEE7"/>
<path d="M87.3769 4.61548C86.1328 8.15443 82.554 9.64252 79.4276 12.0084C78.6554 11.5568 78.4701 10.998 78.7464 9.95408C81.2313 7.23973 83.7472 5.33833 87.3769 4.61548Z" fill="#F3ECB6"/>
<path d="M426.967 70.3227C427.286 69.7287 427.837 69.3909 428.71 68.998C431.283 71.1847 433.972 73.0247 435.059 76.5395C432.439 74.5526 429.819 72.5657 426.967 70.3227Z" fill="#C4DBAE"/>
<path d="M451.814 111.874C450.747 109.652 450.877 107.91 453.267 107.407C454.837 107.077 455.846 108.273 455.764 109.753C455.64 112.024 454.339 112.97 451.814 111.874Z" fill="#96D2C8"/>
<path d="M76.2462 281.822C78.7447 283.957 77.1638 285.241 75.5526 286.091C74.4124 286.692 73.1963 285.995 72.9924 284.586C72.6716 282.37 73.5646 281.173 76.2462 281.822Z" fill="#E3D069"/>
<path d="M48.7539 178.697C48.3249 179.115 47.9912 179.094 47.4044 179.069C43.4395 175.985 44.8059 171.697 44.6489 167.409C45.0102 166.775 45.1937 166.545 45.7611 166.098C48.714 169.642 49.0902 173.883 48.7539 178.697Z" fill="#AAD7CC"/>
<path d="M540.75 426.951C540.953 432.224 540.948 437.32 540.842 442.415C540.826 443.166 540.331 443.908 539.605 444.612C540.282 439.062 539.877 433.541 540.002 427.564C540.177 426.994 540.343 426.885 540.75 426.951Z" fill="#AAD7CC"/>
<path d="M44.6347 357.487C43.1405 361.003 38.9783 361.865 36.4368 364.995C35.6945 364.699 35.5006 364.209 35.7112 363.259C35.8892 362.888 36.0117 362.967 36 363C36.2647 362.845 36.4569 362.567 36.827 362.116C36.9763 361.916 36.9933 361.98 36.9604 361.979C37.1993 361.77 37.462 361.549 37.8932 361.132C39.9654 359.448 41.6441 357.566 44.6347 357.487Z" fill="#FF9D79"/>
<path d="M35.5584 362.978C35.925 363.38 35.9607 363.873 36.0558 364.732C36.1151 365.098 36.0579 365.086 36.0445 365.06C35.4431 365.508 35.5173 366.269 35.127 367.2C34.5135 368.766 35.6996 371.496 32.3253 370.234C32.1271 367.292 33.2794 365.005 35.5584 362.978Z" fill="#F67647"/>
<path d="M541.308 427.019C540.991 427.127 540.503 427.045 540.257 427.075C536.561 425.368 540.034 423.581 540.075 421.499C540.177 421.178 540.52 421.092 540.691 421.129C540.551 423.157 544.655 424.561 541.308 427.019Z" fill="#418093"/>
<path d="M332.425 54.8514C330.405 55.5079 329.127 55.189 329.347 53.0496C329.456 51.9939 330.281 51.1815 331.368 51.3378C333.522 51.6472 333.28 53.1254 332.425 54.8514Z" fill="#E3D069"/>
<path d="M40.9519 154.687C40.3359 155.12 39.6253 155.265 38.7297 155.492C38.4369 154.025 38.3293 152.476 38.218 150.533C38.5946 150.114 38.9748 150.088 39.6408 150.081C40.2369 151.533 40.5471 152.966 40.9519 154.687Z" fill="#F2B933"/>
<path d="M530.989 228.512C530.521 228.941 530.036 228.94 529.188 228.896C528.937 226.856 529.047 224.858 529.148 222.428C529.559 222.002 529.978 222.007 530.71 222.036C531.006 224.067 530.989 226.075 530.989 228.512Z" fill="#F5CF50"/>
<path d="M80.8485 202.314C84.1525 201.179 87.1253 201.171 89.8541 203.727C87.2496 203.462 84.6092 202.663 81.3821 203.102C80.8538 202.949 80.7458 202.758 80.8485 202.314Z" fill="#D3E7D0"/>
<path d="M56.7385 428.1C56.9699 428.788 56.9558 429.59 56.9366 430.796C56.9101 431.949 56.8886 432.7 56.8416 433.831C56.0788 433.133 55.386 432.02 54.5956 430.981C52.3945 428.089 54.9534 428.512 56.7385 428.1Z" fill="#AAD7CC"/>
<path d="M147.728 127.672C148.877 127.179 149.583 127.456 149.677 128.451C149.744 129.153 149.185 129.707 148.486 129.625C147.52 129.512 147.195 128.828 147.728 127.672Z" fill="#AAD7CC"/>
<path d="M75.6403 17.9452C75.0886 17.9411 74.8959 17.9444 74.4144 17.9445C74.2306 16.104 74.9862 14.5229 76.2942 12.8438C76.7816 12.6514 77.0217 12.6772 77.4485 13.0128C77.7436 15.0969 76.8522 16.5179 75.6403 17.9452Z" fill="#F2E08E"/>
<path d="M266.155 91.6721C265.308 90.9806 265.433 90.4725 266.203 90.1934C266.431 90.1106 266.899 90.2294 267.029 90.4153C267.536 91.1412 267.143 91.5445 266.155 91.6721Z" fill="#C5E2D1"/>
<path d="M78.6816 9.74011C78.9793 10.1033 78.9957 10.6563 79.0489 11.6219C79.0857 12.0344 79.0523 12.0199 79.039 12.0256C78.6098 12.4562 78.3198 13.0163 77.4291 13.1766C77.1355 13.106 76.8386 12.8682 76.6901 12.7469C77.1612 11.7271 77.7808 10.8285 78.6816 9.74011Z" fill="#F2E08E"/>
<path d="M50.8738 424.751C50.1922 424.714 49.6165 424.219 48.922 423.458C48.8032 423.192 49.0324 422.958 49.147 422.836C49.8343 423.241 50.407 423.767 50.8738 424.751Z" fill="#AAD7CC"/>
<path d="M565.413 146.424C564.168 146.355 563.662 145.313 563.172 143.83C563.85 144.348 564.626 145.21 565.413 146.424Z" fill="#F6B82D"/>
<path d="M91.8234 85.1925C92.3096 85.7747 92.6574 86.5717 91.2043 86.9038C91.1818 86.4103 91.3997 85.8983 91.8234 85.1925Z" fill="#8AC7B0"/>
<path d="M44.6426 163.614C45.364 163.745 45.7226 164.496 46.1131 165.563C46.145 165.88 46.0307 165.966 45.9727 166.009C44.5556 166.177 44.324 165.289 44.6426 163.614Z" fill="#AAD7CC"/>
<path d="M412.566 6.58428C412.712 5.97566 413.026 5.53445 413.582 4.96572C413.825 4.83821 413.946 4.95646 414.006 5.01582C414.382 5.47708 414.505 5.93107 414.208 6.72853C413.981 7.01995 414 7.00018 414.009 6.99011C413.883 7.2057 413.747 7.43136 413.346 7.36538C413.08 7.07375 412.733 6.75168 412.566 6.58428Z" fill="#F57E52"/>
<path d="M91.103 205.247C90.5028 204.962 90.2763 204.796 90.0005 204.374C89.9002 204.187 90.0495 203.993 90.1437 203.91C90.726 204.065 91.2141 204.303 91.8645 204.766C91.8263 205.14 91.626 205.287 91.103 205.247Z" fill="#C5E2D1"/>
<path d="M111.324 12.5597C110.953 12.3938 110.568 11.9016 110.136 11.0906C110.496 11.259 110.902 11.7462 111.324 12.5597Z" fill="#F6B82D"/>
<path d="M51.074 424.946C51.3074 425.241 51.4383 425.622 51.5692 426.003C51.3501 425.861 51.1309 425.718 50.8399 425.392C50.768 425.208 50.9716 425.033 51.074 424.946Z" fill="#AAD7CC"/>
<path d="M538.148 448.885C538.065 448.742 538.099 448.469 538.175 448.208C538.193 448.149 538.357 448.132 538.453 448.096C538.396 448.317 538.338 448.538 538.148 448.885Z" fill="#AAD7CC"/>
<path d="M76.921 38.3229C77.0952 38.2795 77.3721 38.5043 77.8052 38.9486C77.6488 38.9758 77.3362 38.7835 76.921 38.3229Z" fill="#F6B82D"/>
<path d="M554.067 136.687C553.817 136.736 553.563 136.48 553.176 135.987C553.382 135.961 553.723 136.171 554.067 136.687Z" fill="#FDC938"/>
<path d="M43.9649 162.966C43.8971 162.348 44.1582 162.158 44.7445 162.076C44.9911 162.077 45.0087 162.536 45.0071 162.765C45.0055 162.995 44.9948 163.005 44.9882 163.011C44.7262 163.106 44.4707 163.196 43.9649 162.966Z" fill="#AAD7CC"/>
<path d="M495.948 201.312C496.13 201.272 496.394 201.506 496.804 201.964C496.643 201.987 496.337 201.786 495.948 201.312Z" fill="#F6B82D"/>
<path d="M90.9274 205.269C90.9881 205.048 91.1958 205.037 91.7151 205.009C92.0268 204.992 92.2076 205.352 92.2729 205.541C92.3382 205.73 92.1029 205.917 91.9863 206.014C91.6046 205.9 91.3395 205.689 90.9274 205.269Z" fill="#D3E7D0"/>
<path d="M49.4882 214.486C49.5134 214.476 49.4631 214.496 49.4882 214.486Z" fill="#87CCC4"/>
<path d="M553.16 402.553C553.106 402.634 553.026 402.341 552.999 402.27C552.973 402.199 553.214 402.471 553.16 402.553Z" fill="#F6B82D"/>
<path d="M537.995 448.992C537.99 448.984 537.898 449.072 537.957 449.041C538.016 449.01 538.001 449 537.995 448.992Z" fill="#AAD7CC"/>
<path d="M344.404 490.91C329.642 490.98 315.273 491.007 300.434 491.005C298.531 490.062 298.027 488.708 298.109 486.621C298.054 485.568 297.951 484.976 297.746 483.94C301.33 467.569 300.945 451.231 302.733 435.119C303.19 430.997 303.805 426.894 304.341 422.384C308.18 418.567 309.87 422.083 311.454 424.288C316.405 431.179 321.479 437.98 326.418 444.878C334.552 456.241 342.706 467.59 350.915 478.899C351.879 480.227 352.991 481.534 353.353 483.636C352.699 489.023 348.857 490.081 344.404 490.91Z" fill="#FAF0C3"/>
<path d="M72.9542 464.595C72.8335 454.787 70.9027 445.536 69.8411 436.194C69.5151 433.325 69.7629 432.02 73.0587 431.768C78.3844 431.361 82.2632 428.396 84.8907 423.347C86.8679 421.991 87.4437 423.034 87.4675 424.624C87.4997 426.782 87.7037 428.89 88.4631 430.918C88.6965 431.549 89.2747 430.754 88.6893 431.073C88.5222 431.164 88.3775 431.056 88.3227 430.739C87.8039 427.734 86.4466 424.723 88.7737 421.798C93.3238 422.737 94.6275 426.715 97.1634 429.326C99.0869 431.306 100.637 433.65 102.631 436.029C105.204 439.751 101.943 441.633 100.466 443.896C98.8667 446.347 95.5853 448.2 99.5476 451.431C100.662 452.34 100.007 454.25 99.531 455.688C99.0762 457.063 98.1495 458.438 99.7986 460.03C102.019 461.746 102.728 463.835 101.808 465.99C100.493 469.069 101.685 471.023 104.235 473.083C105.49 475.877 105.136 478.428 104.893 481.41C105.025 484.888 104.744 487.812 102.326 490.565C95.712 490.898 89.4281 490.926 82.7054 490.881C80.0929 481.861 75.5596 473.759 72.9542 464.595Z" fill="#F7B021"/>
<path d="M483.273 490.632C477.897 490.925 472.848 490.961 467.329 490.914C463.183 487.149 466.468 482.962 466.111 478.633C468.731 473.449 468.727 468.067 469.846 462.968C472.034 453.002 473.243 442.82 476.78 432.756C480.812 429.831 483.385 425.751 487.734 423.863C492.06 421.984 496.353 420.302 500.851 424.304C501.502 425.801 501.57 426.964 501.217 428.1C495.449 446.663 491.866 465.775 487.003 484.564C486.428 486.787 485.976 489.17 483.273 490.632Z" fill="#F7A919"/>
<path d="M483.374 490.983C487.296 472.987 491.67 455.092 495.975 437.18C496.911 433.29 497.974 429.47 500.01 425.602C500.851 421.93 502.625 419.87 506.69 420.314C510.067 419.962 513.046 419.065 516.565 419.522C516.484 430.899 513.71 441.844 512.495 452.998C512.317 454.638 512.133 456.278 511.943 458.337C512.141 460.148 511.798 461.382 510.947 462.507C505.316 469.951 500.852 478.169 495.513 485.809C494.15 487.76 492.633 489.447 490.167 490.682C487.851 490.956 485.825 491.017 483.374 490.983Z" fill="#CF4F36"/>
<path d="M152.766 482.32C150.484 469.422 148.002 456.896 145.528 444.369C144.467 438.996 143.501 433.603 142.34 428.251C141.69 425.255 142.488 423.827 145.743 424.003C149.223 424.19 152.713 424.18 156.66 424.368C161.07 427.045 160.198 431.383 161.068 435.515C165.108 452.329 167.642 469.007 170.757 485.573C171.079 487.286 170.905 488.865 169.392 490.522C164.709 490.872 160.327 490.916 155.485 490.907C152.394 488.678 151.136 486.089 152.766 482.32Z" fill="#F9CE67"/>
<path d="M468.029 477.707C468.497 482.11 467.237 486.007 466.88 490.412C459.363 490.874 451.866 490.917 443.932 490.92C440.023 489.321 440.625 485.603 439.254 482.493C439.367 479.005 438.414 475.978 438.948 472.5C438.951 471.832 438.936 471.567 438.847 470.913C438.072 468.236 436.95 466.041 437.342 463.14C438.109 459.603 440.327 458.227 443.633 457.796C448.391 458.839 453.207 456.39 457.618 459.824C459.776 461.307 459.49 463.042 458.716 465.181C458.505 465.75 458.428 465.977 458.213 466.526C457.524 468.705 457.584 470.158 460.097 470.208C467.463 470.357 467.607 470.5 468.029 477.707Z" fill="#F8C95E"/>
<path d="M440.655 481.578C442.103 484.567 443.588 487.06 443.472 490.475C422.472 490.886 401.448 490.892 379.92 490.855C376.89 487.095 378.036 484.201 381.529 481.972C385.947 479.153 390.449 476.856 396.001 478.904C398.686 479.894 401.592 479.604 404.876 479.108C415.68 478.174 426 478.961 436.795 479.512C438.641 479.451 439.71 479.969 440.655 481.578Z" fill="#1B374E"/>
<path d="M173.855 433.06C181.735 432.09 184.139 433.517 186.709 440.873C190.191 450.842 193.479 460.879 196.982 471.212C199.336 473.945 199.286 476.869 198.992 480.334C198.806 483.99 200.142 487.363 197.365 490.571C195.61 490.945 194.2 490.973 192.374 490.924C189.813 489.629 188.561 487.775 187.874 485.426C183.435 470.244 177.933 455.399 173.485 440.218C172.952 438.4 173.01 436.606 173.03 434.386C173.244 433.753 173.379 433.518 173.855 433.06Z" fill="#D6573D"/>
<path d="M102.457 490.948C102.275 488.177 102.555 485.485 102.911 482.399C108.386 479.344 114.136 477.332 118.85 473.404C119.727 472.673 120.927 472.339 121.707 470.938C122.079 470.462 122.252 470.289 122.745 469.933C125.008 469.006 126.929 468.723 129.033 470.288C130.597 470.437 131.922 470.418 133.205 470.174C136.079 469.628 137.458 470.723 137.743 473.656C137.995 476.259 138.581 478.83 139.137 481.83C141.603 484.656 141.82 487.375 140.091 490.618C127.478 490.947 115.198 490.987 102.457 490.948Z" fill="#C5633A"/>
<path d="M169.539 490.912C166.511 476.435 163.943 462.041 161.347 447.651C160.698 444.054 159.962 440.472 159.217 436.497C162.342 433.03 165.309 434.641 168.56 436.838C171.077 446.328 174.126 455.241 176.9 464.239C178.855 470.58 181.071 476.833 182.975 483.186C183.686 485.558 184.612 487.985 182.391 490.569C178.067 490.914 174.028 490.955 169.539 490.912Z" fill="#F9AE1F"/>
<path d="M182.543 490.945C180.325 479.372 175.279 468.83 172.358 457.664C170.743 451.485 167.193 445.752 168.103 438.567C168.225 434.826 169.794 433.095 173.58 433.596C179.889 452.585 185.856 471.357 191.891 490.487C188.965 490.903 185.972 490.961 182.543 490.945Z" fill="#E7825A"/>
<path d="M490.347 490.954C496.885 480.204 502.921 468.855 511.65 458.947C515.705 458.486 519.477 458.214 523.706 457.99C521.34 464.985 516.226 470.502 512.421 476.837C509.715 481.343 506.155 485.318 504.032 490.565C499.598 490.946 495.208 490.979 490.347 490.954Z" fill="#6EB7B2"/>
<path d="M197.479 490.992C197.017 487.937 197.015 484.958 197.024 481.532C198.331 479.288 200.206 478.834 202.275 478.817C208.892 478.764 215.514 478.405 222.544 479.277C225.669 481.283 224.933 483.3 223.21 485.299C220.716 488.192 217.352 489.551 213.396 490.691C207.99 490.939 202.964 491.003 197.479 490.992Z" fill="#B24033"/>
<path d="M404.944 480.26C399.779 480.469 394.959 480.301 390.144 480.402C382.75 480.557 380.463 482.699 379.44 490.409C371.959 490.876 364.502 490.939 356.512 491.021C356.235 489.691 357.06 488.92 358.828 488.803C370.443 486.292 380.51 480.942 391.065 475.95C391.666 475.834 391.929 475.722 392.551 475.377C395.871 474.712 398.726 475.422 401.545 476.112C403.494 476.59 405.247 477.551 404.944 480.26Z" fill="#72C0B9"/>
<path d="M140.24 490.957C139.565 488.282 139.373 485.657 139.218 482.638C143.521 481 147.811 480.719 152.55 481.943C153.615 484.662 154.267 487.376 154.971 490.472C150.256 490.905 145.49 490.955 140.24 490.957Z" fill="#79C3BD"/>
<path d="M299.435 485.67C299.761 487.371 299.819 488.76 299.921 490.564C297.125 492.381 294.244 491.637 291.28 491.43C285.219 491.008 279.123 491.095 272.582 490.978C271.686 487.743 274.224 488.175 276.011 488.014C281.582 487.514 287.093 486.704 292.921 485.242C295.354 483.041 297.271 483.94 299.435 485.67Z" fill="#1F3142"/>
<path d="M228.534 482.955C236.968 485.71 245.076 488.507 253.753 490.692C245.896 490.937 237.731 490.979 229.073 490.962C226.662 488.466 226.31 485.933 228.534 482.955Z" fill="#79C3BD"/>
<path d="M228.916 482.496C228.834 485.094 228.718 487.548 228.592 490.454C223.701 490.938 218.821 490.971 213.479 490.94C216.597 487.938 220.178 485.002 223.897 481.788C225.467 479.205 227.125 479.479 228.851 481.579C228.803 482.071 228.883 482.353 228.916 482.496Z" fill="#CF4F36"/>
<path d="M359.208 488.582C358.363 489.454 357.465 489.968 356.273 490.762C352.206 491.239 348.483 492.932 344.332 491.187C346.812 488.913 349.614 486.872 352.602 484.519C353.442 482.547 354.692 482.253 356.563 482.881C358.023 484.612 358.746 486.348 359.208 488.582Z" fill="#1F3142"/>
<path d="M356.836 482.702C355.706 483.457 354.547 483.845 353.088 484.22C345.127 476.126 339.46 466.542 332.866 457.66C323.977 445.686 315.364 433.506 306.342 421.261C303.188 420.841 302.363 418.605 301.523 416.399C297.651 406.231 296.008 395.519 293.873 384.929C291.383 372.581 288.944 360.223 287.08 347.76C288.278 369.147 292.44 389.943 299.011 410.324C302.206 420.233 302.673 430.443 301.649 440.893C300.581 451.795 300.685 462.806 300.076 473.762C299.901 476.907 299.218 480.034 299.689 483.591C299.861 484.429 299.891 484.882 299.811 485.659C297.802 485.762 295.901 485.541 293.66 485.224C290.831 464.301 288.621 443.436 285.745 422.663C284.144 411.103 279.163 400.34 276.349 389.03C272.355 372.981 269.271 356.832 269.76 340.185C269.892 335.686 270.007 331.192 271.139 326.375C274.746 325.838 278.387 324.448 281.394 327.359C282.381 328.314 283.159 328.673 284.321 327.551C288.332 323.677 293.174 326.099 297.647 326.035C299.6 326.007 299.548 327.984 299.499 329.732C299.504 329.942 299.457 330.163 299.474 329.99C299.476 327.803 299.261 325.168 301.987 325.269C305.278 325.391 308.39 325.679 311.531 324.235C312.563 323.76 313.495 325.018 313.97 326.233C317.776 335.954 319.718 346.136 321.628 356.723C322.414 358.872 323.407 360.586 322.863 363.046C323.661 375.143 322.745 386.893 324.423 398.981C324.503 400.662 324.626 401.901 323.434 403.273C323.247 411.383 328.154 417.221 331.616 423.923C340.736 443.271 349.161 462.636 356.836 482.702Z" fill="#2E6680"/>
<path d="M272.368 323.499C266.549 319.266 269.331 314.079 270.022 309.309C270.907 303.204 271.409 297.088 271.377 290.92C271.362 288.053 270.865 285.376 269.662 282.717C268.147 279.365 268.048 275.769 270.433 272.777C272.28 270.46 271.453 269.165 269.733 267.387C251.911 248.966 237.846 227.81 225.004 205.375C226.507 201.514 229.287 199.915 233.44 200.064C242.071 211.939 251.098 223.112 260.425 234.031C266.127 240.705 272.273 246.999 278.649 253.051C279.795 254.139 281.058 254.74 282.683 254.538C284.923 254.26 286.917 255.086 289.123 256.298C290.359 258.05 290.052 259.692 289.862 261.311C289.478 264.591 291.343 265.378 294.062 264.977C299.12 264.231 301.871 260.619 304.486 256.294C309.171 253.726 313.418 254.91 316.792 257.722C326.379 265.714 333.467 275.426 335.782 288.452C338.366 294.035 340.671 299.319 343.119 304.536C345.37 309.33 344.596 313.395 340.856 317.155C335.445 322.594 329.337 327.067 322.425 331.06C319.044 332.653 317.721 330.229 315.831 328.243C315.45 327.775 315.323 327.569 315.088 327.019C314.773 325.459 315.077 324.244 315.807 323.398C317.73 321.169 317.09 319.228 315.158 316.629C314.793 315.757 314.757 315.52 314.742 314.927C314.963 313.761 315.201 312.834 315.782 312.349C321.194 307.836 320.023 302.266 318.389 296.277C318.264 295.296 318.104 294.667 317.644 293.794C316.904 292.588 316.604 291.498 315.636 290.413C314.358 288.876 313.695 287.273 312.43 286.174C310.98 284.915 309.549 281.932 308.023 282.869C306.019 284.099 304.252 286.567 304.089 289.43C304.033 290.425 304.014 291.493 304.415 292.393C307.143 298.528 306.083 305.159 306.582 311.515C306.942 316.113 307.683 320.128 310.153 324.121C306.18 326.075 302.126 325.685 298.244 325.912C290.834 326.344 283.382 326.416 275.957 325.706C274.525 325.57 273.412 325.043 272.368 323.499Z" fill="#F87646"/>
<path d="M364.365 284.292C365.571 274.817 369.294 272.077 378.473 273.349C383.375 274.029 385.193 272.226 383.688 267.652C378.72 252.55 389.102 238.644 404.251 235.608C418.679 232.716 433.2 241.798 436.101 256.357C436.704 259.382 437.147 261.395 441.53 261.412C449.492 261.443 458.985 272.328 459.012 280.562C458.042 282.836 456.323 283.033 454.123 283.017C449.779 282.136 445.779 282.65 441.807 282.486C440.329 282.425 437.969 282.608 437.952 281.06C437.895 275.86 433.709 277.038 431.044 276.315C421.915 273.836 413.348 275.876 405.09 280.054C402.936 281.144 401.219 282.541 399.574 284.753C396.245 286.503 393.025 285.95 389.889 285.981C383.391 286.043 376.893 285.985 370.395 286.008C368.368 286.015 366.386 285.966 364.365 284.292Z" fill="#FEFBD9"/>
<path d="M308.623 198.337C317.308 198.892 322.835 203.956 324.885 212.85C325.787 216.764 325.973 220.748 325.853 224.771C325.466 237.702 330.953 245.48 343.288 249.748C344.631 250.213 346.352 249.919 347.173 251.487C346.474 253.267 344.524 252.67 343.293 253.608C344.808 255.733 347.192 255.533 349.12 255.274C352.92 254.762 352.966 256.177 351.781 259.03C350.82 261.343 351.183 263.38 352.792 265.623C356.157 270.313 357.031 275.664 355.117 281.65C352.598 282.136 352.281 280.342 351.863 278.772C350.432 273.408 346.957 269.888 342.06 267.552C338.319 265.768 334.689 263.777 331.141 261.623C320.57 255.207 313.665 246.563 313.771 233.164C314.233 230.768 314.1 228.704 314.177 226.266C312.889 219.229 311.241 212.744 307.544 206.909C305.768 204.106 305.152 201.067 308.623 198.337Z" fill="#41495B"/>
<path d="M314.692 232.73C316.742 235.079 315.92 237.76 316.509 240.15C319.284 251.412 327.691 257.365 337.056 262.476C339.242 263.669 341.487 264.759 343.735 265.832C350.294 268.963 353.857 274.147 354.693 281.683C353.333 287.922 349.606 291.589 342.452 293.727C344.801 290.334 347.213 288.496 347.237 285.27C347.269 280.965 345.09 277.875 341.2 277.573C336.382 277.199 336.716 280.993 336.202 283.986C335.98 285.284 336.085 286.637 336.02 288.372C331.639 280.769 327.784 272.45 321.934 265.342C317.802 260.322 313.172 256.143 305.54 256.985C304.888 257.176 304.653 257.311 304.01 257.443C299.616 254.493 298.733 251.657 299.858 246.478C300.249 244.679 301.477 243.298 301.974 241.162C302.175 240.532 302.244 240.278 302.491 239.674C305.503 236.145 307.971 232.428 313.293 232.331C313.91 232.37 314.151 232.436 314.692 232.73Z" fill="#353544"/>
<path d="M405.081 480.652C401.786 477.25 397.264 478.109 393.591 475.963C393.268 472.84 395.516 471.889 397.754 470.961C399.718 470.147 401.656 469.264 404.068 468.443C401.792 466.966 398.839 467.047 397.392 464.259C389.431 459.182 389.435 459.185 395.07 451.252C396.219 449.634 397.323 447.984 398.592 446.046C399.892 444.492 401.319 444.082 403.411 444.499C404.681 445.009 405.374 445.56 406.144 446.643C407.778 450.544 409.616 453.929 410.291 457.746C411.315 463.541 415.072 466.182 420.661 466.788C424.109 467.163 427.641 467.323 430.797 469.882C431.155 475.194 436.195 476.604 438.309 480.501C427.376 480.837 416.47 480.812 405.081 480.652Z" fill="#367285"/>
<path d="M323.459 403.564C322.902 402.683 322.697 401.767 322.512 400.497C324.897 397.07 329.05 395.377 329.566 390.871C330.164 385.648 329.865 380.61 327.392 375.802C325.344 371.82 323.005 367.956 321.643 363.258C321.465 360.964 321.441 358.994 321.334 356.609C321.442 356.088 321.632 355.982 321.79 356.201C327.373 360.731 331.584 366.326 336.359 371.356C343.085 378.44 345.114 378.944 354.536 375.06C354.998 376.554 354.095 377.793 353.215 378.95C347.4 386.584 340.776 393.451 333.218 399.371C330.47 401.524 327.294 402.93 323.459 403.564Z" fill="#FDB40D"/>
<path d="M452.587 281.281C454.706 281.008 456.428 281.003 458.58 280.999C459.677 281.005 460.345 280.98 461.009 281.023C463.593 281.189 466.929 281.785 466.977 284.375C467.027 287.109 463.314 286.035 461.329 286.782C460.148 287.226 458.696 286.993 457.366 286.993C428.719 287.002 400.073 287.013 371.426 286.98C368.84 286.977 365.971 287.559 364.129 284.348C374.372 286.05 384.829 284.685 395.241 284.803C396.273 284.814 397.315 283.885 398.685 283.195C400.447 282.136 401.947 281.19 403.584 281.096C414.364 280.476 425.198 280.058 435.916 281.25C441.402 281.86 446.75 282.108 452.587 281.281Z" fill="#FEF7D0"/>
<path d="M308.653 198.013C307.738 201.486 308.222 204.213 310.377 207.369C313.961 212.617 315.519 218.819 315.992 225.632C314.71 227.231 313.698 228.879 311.225 228.528C307.846 225.378 308.645 221.109 307.481 217.471C306.636 214.83 305.751 212.641 302.694 211.591C298.396 212.5 294.685 214.138 290.906 215.575C289.077 216.271 287.31 217.146 284.955 216.248C282.637 213.528 283.521 211.09 284.919 208.743C288.899 202.066 294.377 197.5 302.715 196.377C305.084 195.89 306.635 197.106 308.653 198.013Z" fill="#393848"/>
<path d="M289.372 257.146C286.63 256.975 284.273 255.507 281.812 257.254C280.468 258.209 279.35 256.838 278.427 255.909C261.913 239.277 246.637 221.631 234.069 201.372C233.617 200.612 233.482 200.124 233.814 199.237C245.206 213.565 256.349 228.251 269.635 241.122C272.013 243.425 274.63 245.481 277.393 247.841C282.869 248.384 286.57 251.621 290.475 255.067C290.606 255.669 290.608 255.919 290.47 256.515C290.127 257.003 289.922 257.145 289.372 257.146Z" fill="#F26B3F"/>
<path d="M290.515 256.056C285.992 253.651 281.591 251.873 277.874 248.296C278.569 243.002 279.488 237.975 280.563 232.552C280.824 231.625 280.958 231.1 281.007 230.289C281.283 227.276 281.547 224.533 281.922 221.4C282.248 220.872 282.464 220.734 283.065 220.619C283.941 220.81 284.372 221.076 284.958 221.754C286.084 224.923 285.524 227.91 285.986 230.836C286.795 235.956 288.846 240.142 293.465 243.36C295.572 246.619 296.522 249.642 295.1 253.086C294.288 255.052 293.305 256.652 290.515 256.056Z" fill="#393848"/>
<path d="M321.617 356.067C321.758 356.526 321.5 356.366 321.376 356.28C318.854 352.99 318.398 349.185 318.03 345.393C317.524 340.187 316.535 335.103 312.693 331.293C310.739 329.355 312.18 327.701 312.392 325.868C307.485 324.516 308.672 331.97 304.313 331.398C303.511 329.634 308.123 328.153 304.716 326.799C301.798 325.64 299.888 327.378 299.212 330.742C299.006 328.6 299.004 326.665 295.414 327.761C294.326 328.094 292.384 328.13 290.715 327.387C288.6 326.446 286.652 326.916 285.827 329.858C285.01 332.769 281.534 332.774 280.905 331.019C279.619 327.429 277.497 327.367 274.595 327.47C273.731 327.501 272.834 326.618 271.623 326.066C271.481 325.189 271.668 324.4 272.019 323.343C284.822 325.514 297.508 325.593 310.652 323.677C310.379 323.182 310.353 322.806 311.383 322.215C314.964 321.764 315.521 323.808 315.743 326.693C315.938 327.064 315.978 327.002 315.943 327.016C317.711 329.029 319.337 331.093 318.471 334.424C320.464 341.577 321.481 348.518 321.617 356.067Z" fill="#2E5670"/>
<path d="M331.954 424.092C331.651 420.359 331.403 416.581 331.072 412.811C330.791 409.62 331.742 407.717 335.389 407.899C336.842 407.972 338.32 407.477 339.79 407.264C342.717 406.84 344.179 407.987 343.999 411.072C343.894 412.883 343.88 414.713 344.003 416.522C344.263 420.351 344.202 423.638 338.707 422.15C336.472 421.545 334.897 424.034 332.28 424.037C331.889 424.087 331.974 424.05 331.954 424.092Z" fill="#FFE173"/>
<path d="M404.346 446.191C402.522 446.065 401.069 445.883 399.177 445.721C397.506 444.795 394.981 445.323 394.922 443.303C394.878 441.827 396.866 441.279 398.092 440.524C402.545 437.782 407.034 435.097 411.772 432.162C415.778 431.017 418.116 426.831 422.786 427.624C424.106 429.487 423.726 431.189 422.524 432.4C417.637 437.326 412.487 441.97 406.661 445.79C406.116 446.148 405.369 446.028 404.346 446.191Z" fill="#79C3BD"/>
<path d="M398.54 395.836C398.187 397.366 398.132 398.526 397.97 399.672C397.706 401.54 396.855 401.957 395.341 400.666C394.211 399.701 392.98 398.85 391.89 397.845C389.782 395.901 386.045 394.481 386.863 391.166C387.79 387.408 391.043 384.896 394.717 383.425C397.189 382.435 398.955 383.074 399.202 386.478C400.232 389.789 400.833 392.696 398.54 395.836Z" fill="#FEDD6B"/>
<path d="M283.35 220.954C282.866 220.985 282.699 220.99 282.283 221.002C281.951 219.858 281.876 218.706 281.785 217.555C280.622 202.75 287.022 195.964 302.615 196.05C301.694 198.864 298.614 198.752 296.477 200.193C290.889 203.958 285.928 208.137 285.154 216.089C285.361 216.966 285.436 217.157 285.558 217.657C285.603 218.611 285.383 219.201 284.954 220.047C284.449 220.598 284.084 220.809 283.35 220.954Z" fill="#484F60"/>
<path d="M221.599 182.323C226.104 178.642 230.301 175.311 234.786 171.759C239.893 173.718 240.243 175.699 236.197 178.715C232.36 181.575 228.41 184.281 224.251 187.31C221.269 186.941 220.518 185.227 221.599 182.323Z" fill="#4D9AA0"/>
<path d="M388.628 321.865C390.221 324.618 392.881 323.959 396.1 324.632C392.425 328.392 389.922 332.169 392.556 337.383C388.614 335.306 384.782 333.317 384.197 329.063C383.804 326.201 384.851 322.919 388.628 321.865Z" fill="#FFE173"/>
<path d="M397.041 464.264C401.154 465.069 405.084 466.183 409.704 467.493C404.559 471.7 398.426 472.158 393.472 475.61C392.94 475.85 392.633 475.867 391.865 475.915C393.222 472.155 395.04 468.365 397.041 464.264Z" fill="#4D9AA0"/>
<path d="M233.932 198.571C234.025 199.377 234.015 199.85 234.002 200.676C230.747 201.324 228.729 204.277 225.279 204.97C223.491 202.809 221.2 200.933 222.114 197.53C222.626 196.186 223.099 195.191 224.672 194.875C229.156 192.822 232.045 194.079 233.932 198.571Z" fill="#F86834"/>
<path d="M224.941 194.541C224.274 195.589 223.542 196.301 222.523 197.133C220.538 194.58 219.456 191.445 216.327 189.448C215.311 187.07 213.613 185.243 213.756 182.39C213.826 181.793 213.885 181.557 214.121 181.002C215.086 179.771 215.661 178.613 217.371 178.338C217.966 178.423 218.194 178.512 218.656 178.883C219.721 180.008 220.553 180.851 221.646 181.833C221.947 183.82 222.246 185.596 223.649 187.367C221.844 190.103 223.919 192.08 224.941 194.541Z" fill="#F7C1A4"/>
<path d="M422.492 360.801C423.689 362.19 424.682 363.315 424.877 364.874C425.182 367.298 424.928 370.121 422.753 371.019C419.957 372.173 418.738 368.892 417.139 367.296C414.82 364.98 417.421 363.936 418.845 362.786C419.888 361.944 420.166 359.868 422.492 360.801Z" fill="#FFE173"/>
<path d="M398.645 396.132C398.058 393.316 397.622 390.408 399.042 387.231C399.567 386.971 399.928 387.012 400.177 387.201C402.364 388.854 405.677 390.348 405.269 393.226C404.885 395.934 401.118 395.009 398.645 396.132Z" fill="#FEE796"/>
<path d="M377.166 334.715C380.723 335.997 378.382 337.273 377.423 338.235C376.497 339.164 374.989 339.103 374.482 337.92C373.606 335.873 374.204 334.354 377.166 334.715Z" fill="#FEDD6B"/>
<path d="M318.65 334.551C317.582 332.445 316.724 330.107 315.888 327.399C318.463 327.385 318.891 330.638 321.75 331.123C321.022 332.233 319.941 333.276 318.65 334.551Z" fill="#F5B194"/>
<path d="M406.864 305.272C405.432 306.035 404.374 305.97 404.253 304.393C404.22 303.966 404.899 303.148 405.336 303.083C406.684 302.884 407.502 303.462 406.864 305.272Z" fill="#FEDD6B"/>
<path d="M280.865 230.258C281.677 230.633 281.608 231.283 280.916 232.054C280.717 231.603 280.714 231.051 280.865 230.258Z" fill="#62706E"/>
<path d="M354.932 374.978C354.944 374.996 354.968 374.903 354.924 374.922C354.879 374.94 354.92 374.961 354.932 374.978Z" fill="#FDB40D"/>
<path d="M208.696 216.089C223.522 218.295 233.578 227.012 241.242 239.489C241.098 240.814 241.072 241.757 241.466 242.746C248.91 261.468 248.687 280.013 237.277 296.856C224.787 315.291 207.26 325.051 184.181 322.576C181.157 322.252 178.635 320.304 175.185 320.217C166.736 316.774 161.141 310.595 155.891 303.565C155.72 300.555 157.748 300.367 159.529 300.519C185.942 302.782 204.383 282.497 209.473 259.531C212.324 246.669 212.521 233.87 208.461 221.191C207.945 219.581 207.469 217.995 208.696 216.089Z" fill="#2E728E"/>
<path d="M208.635 215.563C216.177 234.574 215.414 253.302 207.857 271.695C199.866 291.142 180.244 306.115 157.765 302.338C157.331 302.265 156.829 302.601 156.066 302.998C143.715 286.313 142.464 267.973 148.857 248.33C149.946 247.729 150.504 248.228 151.112 249.275C151.282 249.887 151.312 250.138 151.321 250.763C149.626 255.969 149.8 260.956 150.317 265.907C151.109 273.475 155.81 275.793 162.002 271.46C172.839 263.874 181.852 254.394 189.483 243.614C191.321 241.018 192.219 237.944 193.064 234.895C195.167 227.307 192.688 222.903 185.234 220.634C183.265 220.034 180.832 220.076 179.906 217.343C189.298 213.841 198.742 213.524 208.635 215.563Z" fill="#4D9AA0"/>
<path d="M179.648 217C181.225 218.189 182.817 217.874 184.269 218.114C194.088 219.73 197.889 225.98 195.273 235.749C193.585 242.052 190.244 247.346 185.934 252.062C178.859 259.804 171.878 267.684 163.059 273.558C155.084 278.869 148.623 275.555 148.018 265.892C147.715 261.052 147.982 256.243 149.735 251.258C152.81 252.14 153.124 255.007 153.978 257.409C155.124 260.628 157.038 260.702 159.235 258.854C163.825 254.994 166.382 249.842 167.627 244.076C168.169 241.569 167.408 239.477 164.39 238.958C163.225 238.758 162.259 238.088 161.395 236.792C161.631 232.178 164.707 229.724 167.62 227.14C169.71 225.287 172.037 223.78 174.373 222.285C164.354 227.904 158.575 236.904 154.247 247.51C152.913 248.609 152.232 250.024 150.355 250.129C149.827 249.461 149.627 248.932 149.227 248.2C154.162 232.836 163.931 222.198 179.648 217Z" fill="#79C3BD"/>
<path d="M175.024 320.357C176.042 319.485 177.281 319.378 178.665 319.692C209.524 326.671 239.086 303.768 243.574 274.756C244.548 268.463 242.921 262.287 242.962 256.095C242.998 250.64 240.891 245.662 241.081 240.083C247.639 250.344 250.227 261.759 249.255 273.929C247.538 295.419 237.461 311.547 218.203 321.668C217.179 322.206 216.189 322.807 214.989 323.677C214.508 324.312 214.207 324.635 213.623 325.129C211.826 325.98 210.421 326.972 208.415 327.19C207.801 327.398 207.478 327.559 206.99 327.966C206.674 328.304 206.546 328.442 206.219 328.792C205.424 329.577 204.987 330.298 204.042 331.007C203.306 331.378 202.842 331.476 201.998 331.564C200.145 331.997 198.64 332.168 196.738 331.942C194 331.073 192.482 328.983 189.977 327.797C187.019 327.518 184.633 325.897 181.561 326.478C181.006 326.505 180.784 326.468 180.297 326.218C179.777 323.022 177.818 321.552 175.024 320.357Z" fill="#2D6D89"/>
<path d="M229.224 481.925C227.598 480.98 226.144 481.337 224.39 481.44C215.341 481.42 206.647 481.33 197.495 481.162C197.02 478.222 197.005 475.359 197.052 472.017C206.694 471.56 216.275 471.528 225.854 471.652C227.664 471.675 230.671 470.561 231.03 472.835C231.485 475.707 233.245 479.332 229.224 481.925Z" fill="#295A78"/>
<path d="M196.725 424.312C194.918 420.825 194.872 417.238 194.091 413.414C193.655 411.28 193.5 411 193.5 410.5C193.5 409 193.5 412 193.5 407.5C193.5 405.5 192.706 403.227 192.389 401.14C191.956 398.281 190.92 396.776 187.81 397.052C184.86 397.314 181.867 397.075 178.431 397.001C176.913 394.837 178.225 394.288 179.914 394.062C181.388 393.865 182.916 394.189 184.716 393.434C185.503 393.192 185.931 393.146 186.677 393.17C187.425 393.418 187.873 393.493 188.663 393.349C189.2 393.18 189.411 393.129 189.949 393.068C190.551 392.207 190.43 391.188 191.643 390.475C193.322 390.153 194.603 390.892 196.3 390.646C196.869 390.61 197.098 390.605 197.673 390.625C198.479 390.743 198.934 390.852 199.745 391.018C200.847 391.176 201.52 391.48 202.486 392.052C203.737 393.482 204.713 394.678 204.201 396.722C202.534 405.829 201.034 414.594 199.371 423.704C198.561 424.551 197.847 424.757 196.725 424.312Z" fill="#447888"/>
<path d="M173.969 433.65C171.57 434.321 170.348 436.349 168.385 437.933C165.522 436.937 162.791 436.249 159.55 436.089C158.503 432.479 157.837 428.848 157.147 424.848C161.701 424.366 166.086 425.179 170.577 427.376C172.149 428.938 173.6 430.173 174.129 432.461C174.182 433.066 174.123 433.283 173.969 433.65Z" fill="#FBC03C"/>
<path d="M204.463 397.081C203.413 396.018 202.791 394.972 202.092 393.634C200.516 391.251 200.73 388.788 201.086 386.568C202.347 378.705 202.604 370.654 205.233 363.037C206.249 360.096 205.718 356.76 207.973 353.835C208.662 353.614 208.958 353.604 209.643 353.811C208.37 365.314 206.855 376.625 204.968 387.873C204.297 391.877 205.308 393.299 209.387 392.982C212.678 392.726 216.016 392.933 219.325 393.094C221.03 393.176 223.209 392.775 223.29 395.776C219.066 397.077 214.93 396.178 210.442 396.733C208.322 396.974 206.607 397.036 204.463 397.081Z" fill="#568C92"/>
<path d="M214.794 181.519C216.534 183.825 217.046 186.215 216.404 189.019C210.685 187.249 205.24 185.362 199.88 183.259C195.671 181.608 195.352 179.807 198.62 175.872C203.698 177.338 208.437 178.896 213.787 180.413C214.535 180.683 214.608 181.009 214.794 181.519Z" fill="#41495B"/>
<path d="M179.984 326.435C180.202 326.009 180.372 326.011 180.794 326.008C184.362 326.205 184.133 329.09 184.639 331.122C186.681 339.325 187.713 347.732 188.802 356.087C189.828 363.962 191.948 371.633 192.665 379.555C192.889 382.033 193.22 384.479 192.909 387.405C192.369 388.64 191.954 389.454 190.642 389.925C186.77 368.921 183.352 347.893 179.984 326.435Z" fill="#568C92"/>
<path d="M196.286 424.529C197.112 424.054 197.811 424.025 198.859 424.023C199.254 432.053 199.301 440.056 199.23 448.514C199 449.325 198.771 449.565 198.214 449.853C195.335 449.845 196.123 447.729 196.112 446.288C196.054 439.185 196.131 432.081 196.286 424.529Z" fill="#295A78"/>
<path d="M210.15 353.659C209.796 354.014 209.56 353.999 208.972 353.958C208.02 353.354 207.231 352.73 207.253 351.927C207.456 344.403 207.46 336.825 211.822 329.807C212.533 329.585 212.836 329.566 213.537 329.769C212.712 337.758 211.49 345.524 210.15 353.659Z" fill="#517D8F"/>
<path d="M184.618 393.123C183.717 396.329 179.806 393.657 178.102 396.607C175.74 396.672 171.964 398.65 171.739 395.377C171.503 391.964 175.462 393.231 177.71 393.005C179.839 392.79 182.01 392.99 184.618 393.123Z" fill="#4D9AA0"/>
<path d="M210.493 396.967C213.967 394.994 218.14 396.329 222.656 396.028C219.217 398.285 214.993 396.524 210.493 396.967Z" fill="#447888"/>
<path d="M214.019 329.62C213.697 329.974 213.46 329.958 212.869 329.912C210.974 328.22 211.16 326.505 212.655 324.396C213.361 324.009 213.77 323.985 214.487 323.969C214.564 325.733 214.334 327.491 214.019 329.62Z" fill="#447888"/>
<path d="M190.168 390.338C190.505 389.346 190.823 388.743 191.246 387.813C192.618 388.093 192.877 389.107 192.25 390.713C191.552 391.609 191.122 392.165 190.484 392.888C190.233 392.28 190.191 391.504 190.168 390.338Z" fill="#5BA1A1"/>
<path d="M188.66 393.136C188.511 393.718 187.971 393.856 187.17 393.386C187.44 393.174 187.886 393.108 188.66 393.136Z" fill="#4D9AA0"/>
<path d="M198.214 450.096C198.241 449.774 198.462 449.513 198.899 449.111C199.393 449.67 198.955 449.946 198.214 450.096Z" fill="#447888"/>
<path d="M457.172 466.168C457.316 464.238 457.631 462.475 457.965 460.327C460.148 450.064 462.347 440.195 464.47 430.31C466.544 420.652 470.228 417.165 480.446 415.761C484.446 420.812 481.287 425.506 480.059 430.274C479.867 431.021 479.145 431.645 478.439 432.712C475.376 446.99 472.582 460.904 469.74 474.809C469.546 475.757 468.992 476.633 468.342 477.794C467.52 477.458 466.578 476.933 466.466 476.268C465.816 472.433 464.92 469.82 460.139 472.546C457.495 474.053 456.719 470.675 455.282 469.376C453.684 467.932 454.606 466.76 456.68 466.064C457 466 457.344 466.336 457.172 466.168Z" fill="#F9CD64"/>
<path d="M404.08 446.418C408.868 441.907 413.692 437.488 418.69 433.274C420.361 431.865 421.885 430.468 422.924 428.142C426.135 427.485 427.81 429.081 429.161 431.704C432.925 439.01 436.899 446.208 440.993 453.74C441.294 458.613 438.286 457.405 435.266 456.953C427.075 455.498 419.373 453.852 411.789 451.644C409.353 450.934 407.203 449.928 405.193 447.841C404.746 447.166 404.465 446.878 404.08 446.418Z" fill="#59A5A6"/>
<path d="M478.499 432.982C479.078 427.591 479.976 422.105 480.86 416.199C487.373 414.255 493.985 415.07 500.558 415.151C503.529 415.188 504.914 417.859 506.844 420.128C504.926 421.937 502.811 423.432 500.406 425.096C496.048 422.711 492.119 423.97 488.504 426.097C485.116 428.09 482.034 430.602 478.499 432.982Z" fill="#FBBA30"/>
<path d="M435.035 455.29C437.339 455.399 439.341 457.038 441.147 454.385C443.383 453.988 444.073 455.27 444.019 457.578C442.332 459.501 440.644 461.06 438.847 462.96C434.31 462.3 433.363 459.478 435.035 455.29Z" fill="#F1ECC6"/>
<path d="M424.281 422.007C425.539 421.213 427.024 420.596 427.757 421.9C428.483 423.194 427.057 423.915 426.042 424.29C424.154 424.989 424.551 423.273 424.281 422.007Z" fill="#E7825A"/>
<path d="M99.5764 461.684C96.0875 462.552 94.6553 461.925 95.9943 458.424C96.8444 456.202 98.5058 454.212 98.3295 451.63C96.2773 450.766 94.4169 452.87 92.2764 451.608C94.8971 446.051 99.8782 442.182 102.848 436.55C106.392 432.031 110.639 429.154 116.016 427.754C118.282 427.164 119.736 427.458 121.348 429.025C125.556 433.115 129.509 437.524 132.11 442.705C134.345 447.156 133.729 452.593 135.655 457.333C136.057 458.324 134.526 458.725 133.152 458.933C130.439 462.119 126.822 460.924 123.323 461.677C117.823 462.477 112.675 462.218 107.626 463.12C104.913 463.604 102.451 462.555 99.5764 461.684Z" fill="#96D2C8"/>
<path d="M122.625 460.403C125.842 458.584 128.931 459.147 132.363 459C132.918 459.452 133.001 459.941 133.192 460.383C135.936 466.751 135.939 466.749 129.613 470.263C127.477 470.717 125.663 470.876 123.471 471.012C119.81 467.827 120.295 464.362 122.625 460.403Z" fill="#6EB7B2"/>
<path d="M89.0689 421.48C86.2486 424.918 89.7728 428.554 88.3814 432.101C85.5586 429.481 88.6325 425.489 85.3898 423.16C85.0327 423.04 85.0205 422.55 85.0226 422.305C88.4591 420.553 87.1787 418.009 86.0655 415.913C85.2795 414.434 84.5348 413.42 86.7817 411.947C87.5503 415.161 88.2603 418.13 89.0689 421.48Z" fill="#F5CF50"/>
<path d="M119.245 419.271C118.344 419.038 117.515 418.893 117.497 418.963C116.982 420.901 116.476 422.74 113.759 421.934C113.056 421.725 112.328 421.255 112.685 420.679C113.817 418.852 115.372 417.306 117.656 417.228C118.715 417.192 119.797 417.861 121.128 418.456C120.953 419.243 120.388 419.496 119.245 419.271Z" fill="#8AC7B0"/>
<path d="M118.766 419.397C119.371 419.002 119.947 418.92 120.955 418.77C122.259 418.97 123.468 419.143 123.332 420.27C123.196 421.403 121.895 421.045 120.76 421.3C120.145 421.368 119.852 421.426 119.196 421.224C118.8 420.546 118.768 420.128 118.766 419.397Z" fill="#6EB7B2"/>
<path d="M118.808 421.152C119.099 421.021 119.367 421.077 120.035 421.222C119.895 421.806 119.35 422.183 118.808 421.152Z" fill="#8AC7B0"/>
<path d="M217.353 176.163C216.962 172.783 213.485 172.726 212.13 170.326C214.393 169.428 215.308 165.398 218.586 167.195C222.634 169.414 222.776 171.453 219.146 175.7C218.601 176.32 218.161 176.468 217.353 176.163Z" fill="#F7FAF8"/>
<path d="M216.843 176.159C217.485 175.962 217.912 175.984 218.659 175.989C219.606 176.847 219.137 177.727 218.941 178.885C218.696 179.123 218.503 179.08 218.018 178.988C217.063 178.645 216.551 178.199 216.24 177.161C216.342 176.668 216.485 176.523 216.843 176.159Z" fill="#D8E6DE"/>
<path d="M496.236 158.807C497.072 147.127 507.832 136.004 520.621 133.957C514.006 138.186 506.585 141.92 502.152 149.334C500.297 152.435 498.381 155.5 496.236 158.807Z" fill="#FEFBD9"/>
<path d="M495.101 160.849C495.088 160.479 495.316 159.916 495.78 159.158C495.791 159.527 495.567 160.092 495.101 160.849Z" fill="#FEFBD9"/>
<path d="M77.0477 13.4263C77.5936 12.8091 78.0518 12.5123 78.7679 12.1233C78.9398 15.0011 77.4003 17.343 75.7249 19.6208C75.709 19.6425 75.3649 19.5187 75.3368 19.4175C75.2499 19.1055 75.2421 18.7716 75.2425 18.192C75.8409 16.5408 76.4004 15.1437 77.0477 13.4263Z" fill="#F3ECB6"/>
<path d="M518.978 449.641C520.275 449.339 521.911 448.342 521.955 450.066C521.99 451.423 519.953 451.737 518.807 451.602C517.02 451.391 517.872 450.463 518.978 449.641Z" fill="#E7825A"/>
<path d="M215.866 176.708C216.618 177.373 217.037 177.932 217.59 178.716C216.992 179.477 216.26 180.013 215.271 180.643C214.79 180.685 214.566 180.635 214.129 180.313C213.916 180.042 213.99 180.09 213.964 180.126C215.177 179.293 212.32 176.586 215.866 176.708Z" fill="#62706E"/>
<path d="M63.0493 433.788C64.2317 433.983 64.7163 434.61 64.8073 435.471C64.9602 436.918 65.2339 439.006 63.463 439.077C61.326 439.162 62.2333 436.928 62.1231 435.642C62.0743 435.072 62.5112 434.462 63.0493 433.788Z" fill="#F2E08E"/>
<path d="M414.26 6.99145C414.011 6.58733 414.041 6.15482 414.069 5.39869C415.459 5.3959 416.249 5.86733 414.26 6.99145Z" fill="#F5B194"/>
<path d="M413.108 7.27951C413.08 7.07369 413.549 7.02171 413.783 7.00085C413.884 7.3441 413.75 7.70822 413.615 8.07233C413.455 7.87667 413.296 7.681 413.108 7.27951Z" fill="#F5B194"/>
<path d="M534.746 418.027C534.388 418.011 533.878 417.747 533.235 417.221C533.6 417.232 534.097 417.505 534.746 418.027Z" fill="#F6B82D"/>
<path d="M530.963 235.14C530.762 236.711 531.475 238.168 529.957 239.099C528.469 237.95 528.64 236.18 528.247 234.683C527.989 233.7 528.233 232.488 529.531 232.517C530.769 232.545 530.829 233.779 530.963 235.14Z" fill="#F8C95E"/>
<path d="M536.022 399.033C536.05 399.063 535.789 399.34 535.789 399.34C535.789 399.34 535.766 399.057 535.85 399.003C535.934 398.948 535.994 399.003 536.022 399.033Z" fill="#FCC92C"/>
<path d="M299.917 483.555C298.806 482.496 298.942 480.798 298.994 479.146C299.449 464.693 298.33 450.235 299.85 435.768C301.202 422.899 296.536 410.916 293.154 398.74C288.478 381.906 285.11 364.796 284.999 347.207C284.983 344.603 284.927 341.973 287.042 339.424C289.649 343.014 289.286 346.994 289.9 350.591C293.2 369.925 296.785 389.197 301.284 408.292C302.282 412.525 303.894 416.528 305.883 420.783C305.219 441.899 302.168 462.474 299.917 483.555Z" fill="#24506C"/>
<path d="M122.518 460.006C123.001 463.379 123.022 466.728 123.067 470.533C123.091 470.989 123.098 471.253 123.095 471.385C116.91 474.773 110.461 475.106 103.389 473.13C97.2752 472.456 97.3418 472.479 99.3434 466.846C99.8739 465.353 101.704 463.808 99.4537 461.924C106.724 460.46 114.365 459.903 122.518 460.006Z" fill="#5BA1A1"/>
<path d="M102.964 473.425C109.312 471.49 115.85 472.304 122.668 471.448C117.625 476.746 112.629 482.836 103.423 482.004C102.98 479.296 102.972 476.586 102.964 473.425Z" fill="#9C4B32"/>
<path d="M435.044 454.92C435.393 458.026 437.215 460.277 438.5 463.057C439.473 465.278 440.206 467.254 440.924 469.582C440.316 470.659 439.871 471.5 438.771 472.395C435.539 473.219 432.709 473.78 430.193 470.866C425.905 469.852 421.773 469.491 417.749 468.625C413.181 467.642 409.537 465.522 408.517 460.236C407.736 456.188 406.271 452.272 405.069 447.876C414.908 449.885 424.788 452.315 435.044 454.92Z" fill="#265468"/>
<path d="M429.809 470.88C432.712 470.554 435.435 470.671 438.608 470.727C439.505 470.554 439.958 470.514 440.673 470.764C440.929 474.354 440.929 477.717 440.906 481.534C440.202 481.655 439.521 481.32 438.56 480.923C437.602 480.447 436.953 479.743 436.237 479.666C431.153 479.116 429.078 476.286 429.809 470.88Z" fill="#F1ECC6"/>
<path d="M440.977 470.726C440.506 470.952 440.083 470.912 439.36 470.769C439.508 470.45 439.956 470.234 440.656 469.976C440.947 470.109 440.986 470.285 440.977 470.726Z" fill="#367285"/>
<path d="M321.385 363.397C328.731 368.515 334.244 384.394 331.518 392.586C330.239 396.427 328.335 400.05 322.945 400.114C321.016 388.087 321.074 375.976 321.385 363.397Z" fill="#F6C12E"/>
<path d="M299.002 331.004C298.015 331.928 296.888 332.138 294.311 331.445C296.478 331.2 297.402 331.096 298.657 330.99C298.989 330.989 298.999 330.999 299.002 331.004Z" fill="#2E5670"/>
<path d="M312.426 322.85C311.935 323.334 311.717 323.478 311.263 323.531C305.633 323.692 304.411 319.94 304.358 315.736C304.249 307.149 304.162 298.588 301.807 290.241C301.289 288.404 300.956 286.771 302.89 285.396C305.576 283.487 307.228 281.145 304.289 277.48C309.894 280.568 314.722 283.523 316.936 289.636C314.61 297.678 313.231 305.436 315.524 313.769C315.51 314.577 315.535 315.037 315.805 315.769C316.017 316.042 316.027 315.983 315.998 315.974C318.286 319.823 316.396 321.631 312.426 322.85Z" fill="#F86834"/>
<path d="M315.332 315.167C310.132 306.416 311.223 298.199 316.651 290.075C317.639 290.756 318.285 291.528 318.989 292.6C319.016 293.585 319.199 294.207 319.774 295.048C320.797 298.69 321.561 302.071 322.544 305.388C323.18 307.533 321.564 308.331 320.508 309.515C319.072 311.123 317.64 312.735 316.018 314.625C315.722 315.075 315.613 315.246 315.332 315.167Z" fill="#F8F0C1"/>
<path d="M288.902 257.349C289.026 257.005 289.401 256.914 289.587 256.864C294.394 257.223 298.968 254.41 303.988 256.737C304.362 256.86 304.761 256.869 304.942 256.955C303.935 262.807 298.669 267.422 293.085 267.591C287.75 267.751 286.203 264.198 288.902 257.349Z" fill="#F7C1A4"/>
<path d="M285.911 315.198C285.179 308.721 284.488 302.691 283.796 296.662C284.112 296.609 284.428 296.556 284.744 296.504C286.613 303.499 288.496 310.49 290.341 317.492C290.798 319.225 291.688 321.361 288.842 321.762C286.185 322.136 286.063 320.049 286.007 318.136C285.983 317.306 285.97 316.476 285.911 315.198Z" fill="#F86834"/>
<path d="M312.411 323.194C312.562 320.511 316.633 320.021 315.921 316.331C320.56 319.379 320.378 322.853 316.018 326.721C314.342 326.241 314.54 323.897 312.411 323.194Z" fill="#F5B194"/>
<path d="M319.904 295.006C319.041 295.338 317.98 295.606 317.511 294.605C317.389 294.344 318.118 293.684 318.753 293.053C319.322 293.491 319.595 294.084 319.904 295.006Z" fill="#C5633A"/>
<path d="M315.211 315.166C315.16 314.917 315.495 314.903 315.663 314.904C315.858 315.095 315.885 315.285 315.965 315.759C315.765 315.834 315.513 315.625 315.211 315.166Z" fill="#F5B194"/>
<path d="M452.52 281.011C451.876 283.818 449.391 282.954 447.381 282.962C431.571 283.024 415.76 282.996 399.483 282.998C406.561 273.676 416.992 272.444 427.812 273.362C432.944 273.798 438.33 274.654 442.67 278.193C441.861 279.809 439.607 278.198 438.9 280.447C443.293 281.515 447.711 280.777 452.52 281.011Z" fill="#FCF2C4"/>
<path d="M416.817 254.087C418.378 253.717 420.012 252.051 420.466 254.751C420.78 256.613 419.115 256.69 417.781 256.745C416.466 256.8 415.121 256.935 413.839 256.731C412.349 256.493 409.933 257.829 409.814 254.788C409.699 251.853 411.718 249.894 414.033 249.594C417.066 249.2 415.109 252.802 416.817 254.087Z" fill="#AAD7CC"/>
<path d="M310.826 228.071C312.582 227.313 313.512 225.61 315.657 225.999C316.221 228.167 316.522 230.291 315.118 232.591C314.991 232.958 314.541 233.108 314.311 233.166C311.683 232.503 309.891 231.341 310.826 228.071Z" fill="#F5A788"/>
<path d="M284.191 220.277C284.044 219.399 284.099 218.787 284.078 217.878C284.098 217.146 284.293 216.761 284.824 216.199C285.065 215.975 284.968 216.091 285.018 216.147C290.06 212.345 296.454 211.734 302.25 208.856C306.632 211.376 307.962 216.086 305.773 221.259C304.713 222.683 303.099 221.84 302.263 222.9C301.85 223.423 302.652 222.622 302.67 223.574C302.98 224.539 302.932 225.201 302.639 226.167C302.083 227.359 301.532 228.219 301.978 229.608C302.171 231.758 302.657 233.406 303.873 234.868C305.14 236.39 305.186 238.137 304.218 240.253C304.18 240.612 304.206 240.837 304.101 240.878C300.669 243.437 297.921 247.785 292.38 244.25C285.432 240.784 283.893 234.904 283.797 228.287C283.77 226.467 283.841 224.645 283.875 222.393C282.534 220.944 287.123 222.059 284.191 220.277Z" fill="#F7C1A4"/>
<path d="M304.485 240.405C303.968 239.34 304.168 237.64 302.973 237.035C299.616 235.336 299.913 232.419 299.995 229.036C299.867 227.766 299.964 227.01 300.801 226.187C301.333 225.293 301.661 224.614 302.047 223.557C302.41 222.612 303.009 222.297 303.479 221.465C306.945 217.085 305.284 213.184 302.876 209.041C303.389 207.851 304.226 207.561 304.899 208.835C307.916 214.536 311.764 219.957 311.141 227.333C311.094 229.903 313.619 230.559 313.999 232.874C310.718 235.193 306.373 235.856 304.485 240.405Z" fill="#F5B194"/>
<path d="M292.185 244.342C296.209 244.702 299.412 241.708 303.612 240.947C301.911 246.029 299.335 251.136 304.14 256.57C302.631 257.213 300.722 257.217 299.206 257.991C295.98 259.636 293.276 258.612 290.152 256.918C289.841 256.632 289.909 256.451 290.094 256.003C295.578 252.947 293.446 248.701 292.185 244.342Z" fill="#F5A788"/>
<path d="M283.806 220.149C286.449 220.23 289.532 218.659 291.101 222.547C288.747 222.27 286.722 222.031 284.29 221.877C283.611 221.829 283.396 221.631 283.137 221.174C283.209 220.731 283.407 220.5 283.806 220.149Z" fill="#62706E"/>
<path d="M284.866 216.227C284.888 216.374 284.711 216.772 284.268 217.376C284.223 217.213 284.445 216.846 284.866 216.227Z" fill="#393848"/>
<path d="M213.757 180.322C214.22 180.104 214.524 180.165 214.921 180.481C215.014 180.736 214.969 181.211 214.975 181.45C214.52 181.326 214.059 180.964 213.757 180.322Z" fill="#D8E6DE"/>
<path d="M161.583 235.738C162.483 236.149 163.017 236.639 163.628 236.769C169.887 238.1 171.429 240.116 169.65 246.025C168.022 251.436 165.495 256.497 161.116 260.353C156.391 264.515 153.276 263.562 151.64 257.466C151.125 255.547 150.628 253.623 150.037 251.318C149.952 250.935 149.972 250.461 149.999 250.225C150.792 249.052 151.558 248.115 152.616 247.08C153.041 247.077 153.187 247.159 153.304 247.271C153.403 247.365 153.471 247.493 153.552 247.606C155.192 244.823 156.185 241.712 157.974 239C158.859 237.658 159.318 235.946 161.583 235.738Z" fill="#87CCC4"/>
<path d="M162.063 235.534C157.683 240.382 155.571 246.214 152.534 251.603C151.759 250.099 152.993 248.945 152.912 247.315C156.928 236.651 162.791 227.79 172.741 222.217C174.472 221.248 176.167 220.139 178.595 219.985C173.065 224.722 166.431 228.66 162.063 235.534Z" fill="#E3EEE7"/>
<path d="M178.985 219.999C179.226 219.844 179.458 219.673 179.691 219.503C179.549 219.639 179.407 219.774 179.106 219.935C178.946 219.96 178.976 219.984 178.985 219.999Z" fill="#E3EEE7"/>
<path d="M192.067 391.425C191.893 390.08 191.804 389.106 191.533 387.809C188.523 367.132 185.126 346.87 181.253 326.327C181.022 324.543 181.138 323.309 183.198 323.953C185.231 324.589 187.305 325.093 189.68 325.828C193.005 329.509 191.271 334.601 194.219 338.561C195.404 342.427 195.825 345.568 194.471 349.439C193.264 352.89 192.58 357.686 196.77 360.753C197.582 361.348 198.265 362.232 198.266 363.246C198.277 372.636 199.393 382.052 197.388 391.716C195.382 393.773 193.709 394.024 192.067 391.425Z" fill="#F3ECC2"/>
<path d="M212.588 324.064C212.825 325.704 212.698 327.374 212.543 329.464C211.219 337.607 209.924 345.332 208.624 353.494C206.531 366.811 204.444 379.691 202.185 392.956C201.18 393.3 200.347 393.257 199.108 393.118C197.165 383.772 198.39 374.453 198.009 364.756C198.035 363.517 197.861 362.448 198.472 361.979C204.154 357.606 201.8 352.144 200.602 346.451C200.5 345.031 200.504 343.991 200.481 342.555C200.549 338.06 202.11 334.419 204.114 330.507C204.53 329.39 204.494 328.599 204.578 327.426C204.684 326.838 204.734 326.638 204.874 326.144C205.293 325.642 205.621 325.433 206.239 325.226C208.429 324.851 210.326 324.473 212.588 324.064Z" fill="#F1ECC6"/>
<path d="M201.696 341.542C201.948 342.919 201.975 344.003 202.004 345.493C198.369 347.951 196.076 346.601 194.693 342.995C194.155 341.595 193.737 340.154 193.146 338.354C192.315 336.822 192.039 335.511 191.625 334.25C190.436 330.632 191.943 329.566 195.759 330.214C197.713 330.23 199.267 330.339 201.208 330.482C204.227 331.743 202.912 333.844 202.631 335.621C202.333 337.508 200.87 339.162 201.696 341.542Z" fill="#F3ECC2"/>
<path d="M195.874 329.928C189.824 330.655 192.795 334.32 193.781 337.668C193.647 338.384 193.498 338.746 193.091 339.2C190.714 335.41 189.302 331.379 189.955 326.438C192.514 326.27 193.63 328.633 195.874 329.928Z" fill="#517D8F"/>
<path d="M201.955 341.459C199.614 342.192 200.002 340.778 200.296 339.389C200.874 336.666 202.515 334.159 201.781 330.862C202.162 330.425 202.729 330.334 203.726 330.186C204.243 329.869 204.331 329.609 204.667 329.677C204.836 333.935 202.625 337.301 201.955 341.459Z" fill="#7F8F88"/>
<path d="M204.952 329.63C204.915 330.006 204.534 330.072 204.345 330.101C204.204 329.28 204.252 328.431 204.468 327.31C204.753 327.776 204.871 328.515 204.952 329.63Z" fill="#517D8F"/>
<path d="M206.236 325.234C206.197 325.403 205.862 325.576 205.246 325.799C205.29 325.646 205.615 325.442 206.236 325.234Z" fill="#517D8F"/>
<path d="M192.842 339.635C193.018 338.99 193.227 338.7 193.628 338.22C194.139 338.788 194.506 339.528 194.771 340.304C195.628 342.811 195.592 346.349 200.008 344.585C200.235 344.495 200.869 345.422 201.66 345.887C204.095 346.677 204.524 348.247 204.281 350.294C204.068 352.092 203.47 354.191 204.123 355.684C206.463 361.031 203.883 362.389 198.952 362.793C198.241 372.483 198.712 381.887 198.121 391.651C197.826 392.017 197.476 392.021 197.3 392.025C197.083 383.415 196.992 374.801 197.03 366.188C197.041 363.719 196.718 361.895 193.619 362.115C191.104 362.294 190.141 360.922 191.17 358.746C192.423 356.099 191.982 353.642 191.293 351.026C191.014 349.967 190.973 347.914 191.398 347.743C196.106 345.854 193.436 342.745 192.842 339.635Z" fill="#418093"/>
<path d="M197.948 392.207C197.981 382.613 198.135 373.208 198.473 363.446C198.68 372.753 198.705 382.419 198.716 392.553C198.445 392.86 198.234 392.652 197.948 392.207Z" fill="#568C92"/>
<path d="M457.02 466.298C457.755 466.214 458.511 466.477 458.621 467.386C458.682 467.899 458.257 468.406 457.824 468.102C457.412 467.815 457.289 467.115 457.02 466.298Z" fill="#F8C95E"/>
<path d="M303.253 221.153C304.122 221.72 305.143 222.446 305.029 222.762C304.581 224.005 303.494 222.867 302.405 223.138C300.691 223.054 299.277 222.928 297.449 222.767C299.076 220.336 301.095 221.143 303.253 221.153Z" fill="#484F60"/>
<path d="M290.091 237.339C291.623 237.104 293.243 237.211 295.532 237.363C293.346 239.391 291.797 239.674 290.091 237.339Z" fill="#F59168"/>
<path d="M288.848 225.117C290.133 225.994 290.22 226.781 289.11 227.452C288.468 227.84 287.781 227.557 287.451 227.007C286.773 225.874 287.371 225.263 288.848 225.117Z" fill="#484F60"/>
<path d="M300.692 225.949C301.257 226.819 301.231 227.606 300.25 228.412C299.283 228.209 298.477 227.785 298.542 226.896C298.623 225.797 299.637 226.018 300.692 225.949Z" fill="#62706E"/>
<path d="M289.998 237.002C289.996 237.003 289.65 236.808 289.65 236.808C289.65 236.808 289.919 236.803 289.961 236.9C290.002 236.997 290 237 289.998 237.002Z" fill="#F59168"/>
</g>
<defs>
<clipPath id="clip0_107_1065">
<rect width="608" height="658" fill="white"/>
</clipPath>
</defs>
</svg>
