<svg width="789" height="796" viewBox="0 0 789 796" fill="none" xmlns="http://www.w3.org/2000/svg">
<g clip-path="url(#clip0_113_2068)">
<path d="M496.946 118.817C563.595 151.309 644.874 171.346 705.562 224.416C766.25 277.487 805.806 363.049 781.964 430.741C758.122 498.432 670.883 548.253 606.944 612.696C543.004 677.68 502.365 756.744 440.051 784.362C378.279 811.98 294.833 787.611 236.854 741.039C178.333 695.009 145.28 627.317 102.473 571.539C59.6661 515.22 7.10579 471.356 0.603486 421.535C-5.35696 371.714 34.1987 315.936 59.1242 249.327C84.0498 182.718 93.8032 105.279 135.526 61.4149C177.25 17.5507 251.484 6.71999 314.882 23.5075C377.737 40.8366 429.756 85.7839 496.946 118.817Z" fill="#3368C1"/>
<path fill-rule="evenodd" clip-rule="evenodd" d="M606.409 92.8579C616.984 79.6717 627.188 65.82 636.814 51.8998C647.083 39.1092 656.938 25.8725 666.178 12.2867C665.082 12.0705 664.064 11.9156 663.064 11.9009L662.564 11.8935L662.571 11.3936C662.525 10.4728 662.856 9.7176 663.565 9.12794L663.687 8.96972L663.827 8.95178C666.09 8.80498 668.449 8.85962 670.765 9.13366L670.985 9.17688L671.082 9.37831C671.876 11.1302 672.451 12.8388 672.825 14.6445L673.18 16.3099L672.019 15.0327C671.94 14.9715 671.861 14.9104 671.781 14.8492C671.465 14.6045 671.105 14.5792 670.685 14.6331C671.259 19.122 671.211 23.7618 670.645 28.2539L670.583 28.333L670.522 28.4122C666.682 37.9568 663.614 47.9728 661.547 58.0036L661.486 58.0827C658.034 65.6528 652.921 71.9385 646.226 77.0007C633.855 84.4999 620.653 89.9667 606.779 93.5234L605.492 94.0445L606.409 92.8579Z" fill="#E2632D"/>
<path fill-rule="evenodd" clip-rule="evenodd" d="M565.961 102.665L566.267 102.27C566.817 101.558 567.659 101.45 568.371 102L588.544 117.598C594.697 109.968 600.515 101.952 605.798 93.6491L606.532 92.6997L606.672 92.6818C620.344 89.2221 633.607 83.6762 645.777 76.2741C652.288 71.4492 657.261 65.1815 660.669 57.8308C662.798 47.7209 665.804 37.784 669.706 28.1602C670.272 23.6681 670.32 19.0282 669.667 14.4782L669.613 14.0573L669.955 13.9423C670.84 13.6153 671.699 13.6479 672.411 14.1984C672.49 14.2596 672.648 14.3819 672.728 14.4431L672.886 14.5655L672.904 14.7057C674.346 28.2083 673.727 41.7607 670.932 55.0211L670.871 55.1002L670.809 55.1794C670.277 56.0316 669.489 56.5601 668.507 56.6857C668.373 58.984 667.66 61.2138 666.412 63.1556L655.581 78.7983C645.532 101.113 633.254 122.715 619.235 142.972L618.929 143.367L566.083 102.507L565.961 102.665Z" fill="#D64F2F"/>
<path fill-rule="evenodd" clip-rule="evenodd" d="M632.398 25.7321C634.62 26.9448 635.932 28.8443 636.316 31.2902C633.275 38.1663 628.059 41.9701 620.649 42.5614C615.449 39.8048 615.08 36.359 619.699 32.3464C623.311 28.819 627.524 26.6406 632.398 25.7321Z" fill="#FAF1E7"/>
<path fill-rule="evenodd" clip-rule="evenodd" d="M566.77 78.8945C567.253 75.9813 568.473 73.2589 570.43 70.7274C584.937 55.3987 601.45 42.3797 619.426 31.8825L620.033 32.7315C617.986 34.5616 616.921 36.2662 616.96 37.6869C616.964 38.8271 617.668 39.8776 619.013 40.9174C619.488 41.2844 620.103 41.6335 620.797 42.0437C627.847 41.4271 632.862 37.7204 635.878 31.2039C635.644 29.3803 634.745 27.927 633.322 26.8259C633.005 26.5813 632.61 26.2754 632.232 26.1099L631.775 25.8831L632.142 25.4085C633.225 23.8442 633.171 23.4234 633.171 23.4234C633.171 23.4234 632.873 23.319 631.384 23.9372L630.779 24.2283L630.69 23.5269C630.636 23.1061 630.582 22.6853 630.327 22.3615C627.417 23.0188 624.402 23.9747 621.564 25.1932L620.82 25.5023L620.791 24.7218C620.745 23.801 621.076 23.0458 621.784 22.4561L621.846 22.377L621.907 22.2979C635.166 15.6118 649.213 11.1776 663.845 9.09216L665.449 8.81566L664.233 9.89794C663.91 10.1532 663.744 10.5308 663.578 10.9084C664.798 10.9663 665.956 11.1033 667.15 11.5209L667.887 11.7118L667.459 12.2655C658.096 26.0096 648.057 39.4836 637.666 52.4325L637.605 52.5116L637.544 52.5907C621.258 65.153 602.847 73.9236 582.696 78.5683C579.574 81.4628 578.548 81.8077 577.916 81.3184C577.283 80.8291 577.279 79.6889 579.198 75.7366L579.259 75.6575L583.235 70.5153C583.076 70.393 582.997 70.3318 582.918 70.2707C582.048 69.5978 580.994 69.1623 579.915 69.0864C575.53 72.1424 571.339 75.6012 567.622 79.4271L566.485 80.5705L566.77 78.8945Z" fill="#EE7F2E"/>
<path fill-rule="evenodd" clip-rule="evenodd" d="M623.988 148.922C617.422 143.845 611.1 138.452 605.042 132.882L605.653 132.091L618.786 142.245C632.621 122.226 644.777 100.782 654.765 78.5463L660.241 70.6458L665.657 62.8245C666.826 60.8214 667.478 58.6708 667.55 56.4516L667.558 55.9516L667.979 55.8978C668.82 55.7902 669.425 55.499 669.896 54.7259L670.791 55.039C667.043 81.4668 658.688 106.987 645.837 130.801C642.112 137.907 637.79 144.804 633.073 151.396L630.932 154.165L630.536 153.859C628.339 152.286 626.203 150.635 623.988 148.922Z" fill="#C23C2F"/>
<path fill-rule="evenodd" clip-rule="evenodd" d="M538.937 83.6664C562.42 57.7083 590.287 37.0352 621.846 22.377L622.374 23.1648C622.111 23.341 622.007 23.6395 621.824 23.8768C624.601 22.7374 627.414 21.8786 630.323 21.2213L630.665 21.1063L630.841 21.3689C631.115 21.833 631.309 22.2359 631.363 22.6567C632.449 22.2326 633.168 22.2832 633.564 22.589C634.434 23.2619 633.552 24.7291 632.714 25.9769L632.592 26.1351L632.39 26.2322C627.577 27.0616 623.444 29.3012 619.954 32.6703L619.893 32.7494L619.832 32.8285C601.917 43.2466 585.544 56.2477 571.02 71.4361C569.246 73.7303 568.008 76.3124 567.568 79.0062C567.86 79.6106 568.212 80.1358 568.687 80.5028C569.478 81.1145 570.575 81.3306 571.898 81.09C574.736 79.8716 577.143 78.0667 579.119 75.6754L579.971 76.208C578.506 79.2468 578.412 80.1855 578.448 80.4661C578.729 80.4302 579.534 80.042 581.949 77.7372L582.01 77.6581L582.15 77.6401C602.239 73.0746 620.589 64.383 636.735 51.8387L637.465 52.5295C627.839 66.4497 617.635 80.3014 607.06 93.4876L606.326 94.4369L606.186 94.4548C594.747 96.9872 582.957 98.9943 571.296 100.343C570.069 100.785 569.036 101.63 568.32 102.72L568.014 103.115L567.619 102.81C567.302 102.565 567.162 102.583 566.918 102.899L566.612 103.295L566.295 103.05C556.999 97.253 547.79 91.0172 538.965 84.4469L538.491 84.0799L538.937 83.6664Z" fill="#E66E2B"/>
<path fill-rule="evenodd" clip-rule="evenodd" d="M517 99.6C515 90.5 513.2 81.0999 511.5 71.8999C505.2 69.9999 498.8 68.3 492.3 67V66C498.9 64 505.7 62.3 512.5 61.1C513.4 52.5 514.6 43.8999 516 35.3999L516.1 34.7L516.7 35C518.1 35.7 518.8 37.0999 519 38.8999C520.4 46.5999 521.7 54.4 522.9 62C529.2 62.8 535.5 64.1 541.6 66L543.1 66.5L541.6 67C536.4 68.7 531.1 69.8 525.7 70.5L524.4 71.8C522.1 81 519.9 90.3 517.9 99.6H517Z" fill="#ECC94B"/>
<path fill-rule="evenodd" clip-rule="evenodd" d="M242.5 82.6001C241.7 78.0001 240.8 73.4001 239.6 68.9001C236.3 67.8001 232.9 66.8001 229.4 66.0001L228 65.7001L229.3 65.1001C232.3 63.7001 235.6 63.0001 238.9 63.0001C239.3 63.0001 239.6 63.0001 240 63.0001C239.9 58.3001 240.6 53.8001 242 49.4001L242.4 48.1001L242.9 49.3001C244.7 53.3001 246 57.7001 246.9 62.2001C249.9 63.6001 253.1 64.6001 256.5 65.0001V66.0001C253.4 66.7001 250.3 67.3001 247.3 67.9001C245.9 72.7001 244.6 77.7001 243.4 82.6001H242.5Z" fill="#ECC94B"/>
<path fill-rule="evenodd" clip-rule="evenodd" d="M568.215 81.2758C567.582 80.7864 567.072 80.1389 566.745 79.254L566.63 78.9122L566.813 78.6749C570.67 74.8311 574.843 71.232 579.43 68.079L579.632 67.9819L579.772 67.964C581.21 68.0651 582.422 68.623 583.451 69.4182C583.688 69.6017 584.005 69.8463 584.181 70.109L584.436 70.4327L579.91 76.2869C577.812 78.8364 575.204 80.7383 572.225 81.9747L572.164 82.0538L572.024 82.0718C570.621 82.2512 569.164 82.0098 568.215 81.2758Z" fill="#F8CC9B"/>
<path fill-rule="evenodd" clip-rule="evenodd" d="M567.364 102.486L567.67 102.09C568.508 100.842 569.742 99.9004 571.17 99.3613L571.231 99.2822C582.892 97.9332 594.683 95.9261 606.121 93.3937L607.305 93.1711L606.65 94.1816C601.306 102.564 595.366 110.738 589.029 118.606L588.724 119.001L567.364 102.486Z" fill="#DB5B2D"/>
<path fill-rule="evenodd" clip-rule="evenodd" d="M578.549 140.334C577.363 139.417 576.176 138.499 575.05 137.502L574.734 137.258L574.9 136.88C578.146 131.047 582.007 125.563 586.403 120.367L586.709 119.972L587.105 120.278C589.715 122.296 592.308 124.174 594.919 126.193C602.592 132.126 610.302 138.34 617.731 144.59L618.047 144.834L617.882 145.212C615.381 150.736 611.552 155.36 606.598 158.988L605.807 158.376C606.138 157.621 606.365 157.164 606.531 156.787C606.286 157.103 605.901 157.437 605.473 157.991L605.228 158.308L604.851 158.142C604.315 157.854 603.84 157.487 603.366 157.12C601.625 155.775 600.55 154.059 599.983 151.85C596.613 151.14 593.354 149.632 590.445 147.51L590.607 148.772L589.675 148.178C585.792 145.681 582.109 143.087 578.549 140.334Z" fill="#8A2327"/>
<path fill-rule="evenodd" clip-rule="evenodd" d="M190 136.6C189.5 132.6 188.5 128.7 187.1 125C184 124.5 181.1 123.6 178.3 122.5L176.8 121.9L178.4 121.6C181.5 120.9 184.6 120.1 187.6 119.2C188.4 115.4 188.9 111.5 189 107.6L189.1 105.8L190 107.4C191.9 110.9 193.1 114.9 193.5 119.3C196.3 120.6 199.4 121.4 202.6 121.6L202.7 122.6C199.9 123.2 197.1 124 194.5 125C192.9 128.7 191.7 132.6 191.1 136.7L190 136.6Z" fill="#ECC94B"/>
<path fill-rule="evenodd" clip-rule="evenodd" d="M524.473 101.556C528.708 95.0975 533.558 88.9881 538.998 83.5873L539.322 83.3321L539.638 83.5767C548.463 90.147 557.672 96.3829 566.968 102.18L588.803 119.062L587.273 121.04C582.938 126.157 579.077 131.641 575.892 137.395L575.604 137.931L575.13 137.564C574.004 136.567 572.817 135.649 571.631 134.732C568.071 131.979 564.266 129.543 560.357 127.406C548.685 118.633 536.706 110.257 524.721 102.38L524.325 102.074L524.473 101.556Z" fill="#B3292D"/>
<path fill-rule="evenodd" clip-rule="evenodd" d="M558.523 114.737C557.494 113.942 556.387 113.086 555.42 112.211L555.024 111.906L559.367 106.289L559.781 106.735C559.939 106.857 560.115 107.12 560.273 107.242C560.906 107.731 561.564 107.861 562.248 107.631L562.449 107.534L562.607 107.656C563.557 108.39 564.488 108.984 565.437 109.718C568.206 111.859 570.932 114.219 573.456 116.677L573.614 116.799L573.571 117.018C573.455 119.457 572.232 121.039 569.84 121.844L569.638 121.941L569.48 121.819C565.729 119.804 562.004 117.429 558.523 114.737Z" fill="#F8F4F0"/>
<path fill-rule="evenodd" clip-rule="evenodd" d="M604.68 162.94C597.276 156.331 589.61 149.897 581.62 143.719C579.009 141.701 576.32 139.621 573.648 137.682L560.199 127.283L560.731 126.431C564.641 128.569 568.445 131.005 572.084 133.818C573.271 134.736 574.458 135.653 575.662 136.711C576.849 137.629 577.974 138.625 579.161 139.543C582.404 142.051 585.849 144.462 589.277 146.732L589.079 145.189L590.345 146.168C593.43 148.553 596.847 150.184 600.497 150.857L600.796 150.962L600.911 151.303C601.381 153.311 602.377 154.965 604.038 156.25C604.355 156.495 604.671 156.739 605.049 156.905C606.596 155.067 607.2 154.776 607.675 155.143C607.991 155.388 608.106 155.73 607.61 156.862C611.617 153.641 614.676 149.685 616.864 145.057C609.514 138.868 601.902 132.856 594.386 127.045C591.775 125.027 589.244 123.069 586.651 121.191L586.256 120.885L588.091 118.512L605.891 132.275C611.87 137.783 618.192 143.176 624.758 148.253C626.815 149.844 628.872 151.434 630.99 152.945L632.519 150.967L633.371 151.5C629.499 159.124 624.67 166.514 618.989 173.371L618.683 173.767L604.68 162.94Z" fill="#7E2429"/>
<path fill-rule="evenodd" clip-rule="evenodd" d="M562.854 150.825L573.864 136.585L574.259 136.891C576.931 138.83 579.621 140.91 582.232 142.929C590.222 149.106 597.888 155.54 605.292 162.149L605.687 162.455L605.382 162.851C601.841 166.939 598.916 171.377 596.447 176.041L596.159 176.577L562.854 150.825Z" fill="#D8E3D3"/>
<path fill-rule="evenodd" clip-rule="evenodd" d="M489.26 163.446C487.599 162.161 484.161 159.25 482.842 157.851L480.774 155.62L483.311 153.157C495.883 136.08 508.937 118.869 522.063 102.22L522.369 101.825L522.764 102.131C525.174 101.466 529.446 104.769 530.712 105.748C534.826 108.929 570.66 132.717 573.864 136.585L563.527 149.954L555.028 159.311C553.258 159.965 545.592 165.793 543.733 165.745L534.455 157.308L526.887 148.296C524.639 147.443 525.962 149.983 523.559 150.148C523.93 150.813 519.391 149.326 519.261 149.984L514.984 141.621L519.123 132.18C512.157 140.699 510.327 138.652 504.634 147.649C506.518 150.117 511.352 150.569 513.919 152.806L522.315 159.93L542.093 175.222L543.549 178.244L539.394 181.984C536.411 184.86 533.647 190.56 530.524 193.455L511.232 179.17L500.336 172.009C498.394 170.76 490.922 164.73 489.26 163.446Z" fill="#FEFCE9"/>
<path fill-rule="evenodd" clip-rule="evenodd" d="M562.042 219.72C561.33 219.17 561.222 218.328 561.773 217.616L562.079 217.221L562.474 217.526C562.791 217.771 562.931 217.753 563.176 217.437L575.165 201.931L575.578 202.377C575.912 202.762 576.308 203.068 576.624 203.313C577.89 204.291 579.26 204.972 580.735 205.353L590.734 193.239C594.159 188.809 596.786 184.267 598.834 179.656C598.41 178.57 597.723 177.66 596.774 176.926C596.458 176.681 596.141 176.436 595.764 176.271L595.307 176.044L595.534 175.587C597.984 170.783 601.05 166.327 604.59 162.239L604.896 161.843L619.136 172.854L618.83 173.249C605.247 192.452 590.865 211.543 576.192 230.029L575.886 230.425L562.042 219.72Z" fill="#C9D4C3"/>
<path fill-rule="evenodd" clip-rule="evenodd" d="M93.2 171.5C86.1 171.5 79.9 168.6 74.6 162.9V162.8C72.2 158.5 71.6 154.7 72.6 151.4C73.6 148.2 76.3 145.4 80.6 143.2C82.6 130.9 89.6 122.3 101.4 117.6C105.3 116.5 109.1 115.9 112.8 115.9C120.6 115.9 128.1 118.5 134.9 123.7C138.3 126.2 140.7 129.5 142.1 133.4V133.5V133.6C140.2 148.5 132 158.9 117.8 164.5H117.7L111 165.3C111.7 165.9 112 166.3 111.9 166.8C111.7 167.6 110.6 167.8 109.7 167.9C106.6 168 103.6 168.8 100.9 170.3H100.8H100.7C98.1 171.1 95.6 171.5 93.2 171.5Z" fill="#ECC94B"/>
<path fill-rule="evenodd" clip-rule="evenodd" d="M95.8 152.1C93.5 152.1 91.4 151.3 89.7 149.9L89.5 149.8V149.6C89.1 137.5 94.4 129 105.3 124.1C106.5 123.8 107.5 123.7 108.4 123.7C110.3 123.7 111.7 124.3 112.6 125.5C113.5 126.7 114 128.4 114 130.6V131L113.6 131.1C101.6 132.9 96.5 139.6 98 151.5L98.1 152L97.6 152.1C97 152.1 96.4 152.1 95.8 152.1Z" fill="#FCDD95"/>
<path fill-rule="evenodd" clip-rule="evenodd" d="M641.941 232.6C635.941 232.6 630.541 230.5 625.641 226.4L625.541 226.3V226.2C623.141 222.4 622.441 218.2 623.441 213.8C624.541 211.1 626.441 209.4 629.041 208.5C634.241 192.2 643.441 184 656.341 184C661.441 184 667.341 185.3 673.641 187.9C676.941 189.7 679.441 192.3 680.941 195.7V195.8V195.9C682.841 206.2 679.741 214.9 671.741 221.9H671.641H671.541C665.841 224.6 660.841 227.1 656.541 229.4L656.441 229.5H656.341C653.241 229.7 650.341 230.6 647.541 231.9H647.441H647.341C645.741 232.4 643.841 232.6 641.941 232.6Z" fill="#ECC94B"/>
<path fill-rule="evenodd" clip-rule="evenodd" d="M503.292 147.75L503.598 147.355C509.413 138.199 515.965 129.234 523.054 120.557L523.359 120.162L523.755 120.468C534.072 127.56 544.364 135.012 554.332 142.719C557.575 145.227 560.819 147.735 564.001 150.322L564.397 150.627L543.599 177.525L543.204 177.219C541.999 176.161 540.734 175.183 539.468 174.204C535.67 171.268 531.628 168.648 527.64 166.45L503.353 147.671L503.292 147.75Z" fill="#8AB7BE"/>
<path fill-rule="evenodd" clip-rule="evenodd" d="M574.887 203.107C564.251 194.63 553.517 185.952 543.064 177.237L542.668 176.931L563.465 150.034L596.296 175.418C596.674 175.584 596.99 175.829 597.386 176.134C598.572 177.052 599.356 178.164 599.816 179.531L600.373 181.099L595.468 177.306L575.283 203.413L574.887 203.107Z" fill="#74A1A5"/>
<path fill-rule="evenodd" clip-rule="evenodd" d="M127.6 175C120.5 175 114.3 172.6 109.2 167.9L108.4 167.2L109.5 167.1C110.6 167 110.8 166.7 110.8 166.7C110.8 166.7 110.7 166.3 109.3 165.5L108 164.8L117.4 163.6C131.3 158.2 139.2 148.1 141 133.5L141.1 132.4L141.8 133.2C146.2 138.1 150.1 143.5 153.4 149.3L153.5 149.4V149.5C153.9 157.9 152.1 164.4 148.1 168.6C144.1 172.9 137.7 175 129.3 175C129 175 128.8 175 128.5 175C128.2 175 127.9 175 127.6 175Z" fill="#EDAC4A"/>
<path fill-rule="evenodd" clip-rule="evenodd" d="M576.013 204.104C575.617 203.798 575.222 203.492 574.887 203.107L574.571 202.862L595.368 175.965L600.036 179.574L599.87 179.951C597.84 184.702 595.091 189.402 591.604 193.912L581.238 206.501L580.94 206.396C579.105 205.989 577.437 205.205 576.013 204.104Z" fill="#4F737C"/>
<path fill-rule="evenodd" clip-rule="evenodd" d="M527.001 126.896L547.491 142.739L547.325 143.116C546.749 144.188 545.918 144.936 544.911 145.421L544.85 145.5C536.383 147.296 527.987 149.653 519.804 152.553L519.663 152.571L519.523 152.589C516.495 151.764 513.614 150.422 511.021 148.544L510.626 148.238L527.08 126.957L527.001 126.896Z" fill="#C2DCDB"/>
<path fill-rule="evenodd" clip-rule="evenodd" d="M640.641 216.6C640.241 216.6 639.941 216.6 639.541 216.5L639.141 216.4L639.041 216C637.241 205.3 641.041 197.1 650.241 191.5L650.341 191.4H650.441C651.241 191.4 651.941 191.3 652.741 191.3C655.041 191.3 657.341 191.5 659.541 191.9H659.741L659.841 192C661.041 193.2 661.241 194.6 660.441 196.1L660.341 196.3L660.141 196.4C654.441 197.8 649.441 200.7 645.541 205.1C645.441 208 645.441 211 645.541 213.9V214.1L645.441 214.3C644.141 215.8 642.541 216.6 640.641 216.6Z" fill="#FAE197"/>
<path fill-rule="evenodd" clip-rule="evenodd" d="M670.141 234.6C664.941 234.6 660.241 232.8 656.141 229.4L655.641 228.9L656.241 228.6C660.541 226.3 665.541 223.8 671.241 221.1C678.941 214.4 681.841 206 680.041 196.1L680.941 195.7C685.241 201.5 689.441 207.6 693.441 213.7L693.541 213.8V213.9C693.941 220.8 692.441 226.1 689.141 229.5C686.041 232.8 681.141 234.5 674.641 234.5C673.941 234.5 673.241 234.5 672.441 234.4C671.741 234.6 670.941 234.6 670.141 234.6Z" fill="#EDAC4A"/>
<path fill-rule="evenodd" clip-rule="evenodd" d="M530.435 192.753L542.056 177.722L527.421 166.406L527.954 165.554C532.021 167.814 536.063 170.433 539.939 173.431C541.205 174.409 542.471 175.388 543.675 176.446C554.129 185.16 564.862 193.839 575.499 202.316L575.895 202.622L563.661 218.444L530.435 192.753Z" fill="#DCE5D4"/>
<path fill-rule="evenodd" clip-rule="evenodd" d="M532.151 225.682C528.307 221.825 524.201 218.145 519.85 214.78C518.663 213.863 517.398 212.884 516.15 212.046L515.754 211.74L517.589 209.367L517.985 209.672C519.409 210.773 520.833 211.874 522.257 212.975C531.513 220.132 540.664 227.587 549.413 235.237L562.258 218.623L576.498 229.634L561.818 248.62L532.151 225.682Z" fill="#842226"/>
<path fill-rule="evenodd" clip-rule="evenodd" d="M549.197 236.333C540.29 228.562 530.98 220.984 521.645 213.766C520.221 212.665 518.797 211.564 517.373 210.463L516.978 210.157L529.211 194.335L497.171 169.562L497.783 168.771C514.112 180.512 530.496 192.674 546.476 205.03C551.776 209.128 557.156 213.288 562.474 217.526L562.87 217.832L562.564 218.227C562.319 218.544 562.337 218.684 562.654 218.929L563.049 219.235L549.592 236.639L549.197 236.333Z" fill="#962C2E"/>
<path fill-rule="evenodd" clip-rule="evenodd" d="M466.885 175.218L467.191 174.823C467.723 173.97 468.037 173.075 468.13 172.136L468.113 171.996L480.774 155.62L530.614 194.156L516.545 212.351L516.15 212.046C503.37 202.417 490.388 192.885 477.565 183.476L466.885 175.218Z" fill="#B42C2F"/>
<path fill-rule="evenodd" clip-rule="evenodd" d="M503.664 191.9C502.161 190.738 500.64 189.436 499.198 188.194L498.961 188.011L499.065 187.712C499.559 185.439 500.728 183.436 502.433 181.721L502.678 181.405L516.839 192.354L512.618 197.812L512.241 197.647C509.245 195.963 506.354 193.98 503.664 191.9Z" fill="#FAF6F4"/>
<path fill-rule="evenodd" clip-rule="evenodd" d="M316.086 378.426L316.391 378.031C323.246 367.53 330.461 357.055 338.053 346.745L346.005 336.461C379.554 291.109 413.514 245.062 446.826 199.526C453.195 190.799 460.038 182.439 467.252 174.744L467.558 174.348L478.633 182.912L478.328 183.307C476.424 186.259 473.783 189.021 470.747 191.477C435.291 238.641 399.047 286.334 363.116 333.132C351.975 350.81 339.719 368.132 326.558 384.501L326.252 384.896L325.917 384.511C325.425 384.004 324.95 383.637 324.396 383.209C322.814 381.985 320.987 381.079 319.135 380.531L319.056 380.47L316.208 378.268L316.086 378.426Z" fill="#FBAF31"/>
<path fill-rule="evenodd" clip-rule="evenodd" d="M311.7 211C310.4 206.1 309.2 201.1 308.2 196.1L306.9 194.8C302.9 194.3 298.9 193.7 295 192.8V191.8C299.2 190.7 303.4 189.8 307.7 189.3C308.6 183.7 309.5 178.1 310.6 172.7L310.7 172L311.3 172.3C312.7 173 313.4 174.4 313.6 176.2C314.6 180.4 315.3 184.9 315.6 189.3C319.2 189.7 322.7 190.4 326.2 191.3L328 191.8L326.2 192.3C322.6 193.3 319.2 194.6 316 196.2C314.9 201.1 313.8 206 312.5 211H311.7Z" fill="#ECC94B"/>
<path fill-rule="evenodd" clip-rule="evenodd" d="M425.56 390.515C432.827 373.76 441.586 357.527 451.532 342.211C459.671 330.049 467.476 317.502 474.763 304.808L474.548 303.125C473.393 304.128 472.22 304.991 470.872 305.591L470.343 304.803C476.665 297.935 483.425 291.154 490.239 284.793C501.681 271.139 512.813 256.741 523.208 242.152C526.141 237.215 528.758 232.033 530.777 226.642L530.838 226.563L532.367 224.585L548.981 237.43L548.675 237.826C509.257 289.133 468.735 340.723 428.21 391.174L428.088 391.332L427.948 391.35C427.124 391.598 426.405 391.547 425.79 391.198L425.333 390.971L425.56 390.515Z" fill="#F3912E"/>
<path fill-rule="evenodd" clip-rule="evenodd" d="M544.81 303.476C545.58 293.326 544.568 283.19 541.672 273.367L541.575 273.165L564.33 243.736L564.657 244.621C566.274 248.905 567.226 253.56 567.476 258.304C567.848 265.67 567.439 273.065 566.373 280.33L566.391 280.471L566.329 280.55C559.493 288.41 552.578 296.209 545.785 303.851L544.788 304.976L544.81 303.476Z" fill="#2E3A47"/>
<path fill-rule="evenodd" clip-rule="evenodd" d="M343.755 402.475C335.053 395.747 326.621 388.342 318.854 380.567L319.387 379.715C321.379 380.244 323.224 381.292 324.965 382.637C325.36 382.943 325.756 383.249 326.09 383.634C339.05 367.362 351.263 350.26 362.281 332.74C398.273 285.863 434.517 238.17 469.974 191.006L470.035 190.926L470.096 190.847C473.132 188.392 475.572 185.727 477.493 182.915L477.799 182.52L478.195 182.825C491.018 192.235 504.078 201.827 516.779 211.395C518.027 212.233 519.293 213.212 520.48 214.13C524.831 217.494 528.937 221.174 532.781 225.031L533.036 225.355L531.262 227.649L514.649 214.804L498.134 236.164C498.292 236.286 498.371 236.347 498.529 236.47C499.399 237.143 500.147 237.974 500.694 238.902L500.773 238.963L500.791 239.103C502.03 246.002 502.585 253.131 502.403 260.069L502.36 260.288L502.238 260.447C501.59 260.957 500.889 261.047 500.274 260.698L500.195 260.637L495.884 255.913L495.927 255.694C496.161 254.737 496.176 253.737 495.831 252.712C493.854 248.402 491.125 244.902 487.96 242.455C483.451 238.969 477.693 237.424 470.906 237.864L467.078 239.708C463.423 243.455 460.242 247.569 457.536 252.05C457.916 256.136 458.296 260.222 458.737 264.228C460.268 268.951 462.098 273.779 464.11 278.369L464.287 278.632L381.404 385.826L381.264 385.844C378.318 386.221 375.62 387.422 373.012 389.323C364.907 395.065 357.003 400.71 349.16 406.275L348.898 406.451L348.581 406.207C346.902 404.782 345.259 403.638 343.755 402.475Z" fill="#FDBD3C"/>
<path fill-rule="evenodd" clip-rule="evenodd" d="M32.5 341.1C29.5 341.1 26.4 340.9 23.4 340.6C21.3 340.2 19.5 339.3 18.1 338L17.3 337.3L18.4 337.2C21 336.9 23.4 336.3 25.8 335.2L26.2 335L26.4 335.4C26.8 336.3 27 337.2 27 338.2H27.1C28.5 338.2 29.7 337.6 30.5 336.4L30.7 336.1H31C34.2 336.6 37.6 336.9 41 336.9C42.6 336.9 44.2 336.8 45.8 336.7C45.5 336.5 45.2 336.2 45 335.9L44.7 335.6L45 335.3C51 328.9 57.2 322.5 63.5 316.3C72.6 301.7 74.1 286.1 68.1 270.2C65.7 270.7 63.3 270.9 60.9 270.9C59.4 270.9 57.8 270.8 56.3 270.6V269.6L59 269.2C54.9 268.8 54.9 268.5 54.9 268.1C54.9 267.5 54.9 267.2 63.4 267.1C77.8 268.2 88.7 275 95.8 287.3L95.9 287.4V287.5C94.8 314.4 80.6 329.9 53.6 333.5C52.4 334.4 51 335 49.5 335.4C49.7 335.7 49.9 336.1 49.9 336.5L50 336.8L49.8 337C47.5 338.8 44.7 340 41.6 340.6C38.6 340.9 35.5 341.1 32.5 341.1Z" fill="#EDAC4A"/>
<path fill-rule="evenodd" clip-rule="evenodd" d="M65.57 506C63.0891 506 60.5254 505.835 58.0445 505.588C56.3079 505.258 54.8193 504.516 53.6616 503.445L53 502.868L53.9097 502.785C56.0598 502.538 58.0445 502.043 60.0293 501.136L60.36 500.972L60.5254 501.301C60.8562 502.043 61.0216 502.785 61.0216 503.609H61.1043C62.2621 503.609 63.2545 503.115 63.916 502.126L64.0814 501.878H64.3295C66.9758 502.291 69.7875 502.538 72.5992 502.538C73.9224 502.538 75.2456 502.455 76.5687 502.373C76.3206 502.208 76.0725 501.961 75.9071 501.714L75.659 501.466L75.9071 501.219C80.869 495.943 85.9962 490.668 91.2061 485.557C98.7316 473.522 99.972 460.662 95.0102 447.555C93.0255 447.968 91.0407 448.132 89.056 448.132C87.8155 448.132 86.4924 448.05 85.2519 447.885V447.061L87.4847 446.731C84.0941 446.401 84.0941 446.154 84.0941 445.824C84.0941 445.33 84.0941 445.082 91.1234 445C103.032 445.907 112.046 451.512 117.917 461.651L118 461.734V461.816C117.09 483.991 105.347 496.768 83.0191 499.735C82.0267 500.477 80.869 500.972 79.6285 501.301C79.7939 501.549 79.9593 501.878 79.9593 502.208L80.042 502.455L79.8766 502.62C77.9746 504.104 75.659 505.093 73.0954 505.588C70.6145 505.835 68.0509 506 65.57 506Z" fill="#EDAC4A"/>
<path fill-rule="evenodd" clip-rule="evenodd" d="M441.492 235.852C452.262 220.289 463.769 204.916 475.567 190.148L475.873 189.752L498.973 207.613L498.307 207.983C480.173 218.358 461.23 227.981 442.082 236.561L440.47 237.337L441.492 235.852Z" fill="#FDD881"/>
<path fill-rule="evenodd" clip-rule="evenodd" d="M418.889 204.597C424.071 194.952 430.684 185.908 438.344 177.8L438.405 177.721L438.546 177.703C448.103 173.843 458.254 171.831 468.577 171.723L469.077 171.73L469.069 172.23C469.011 173.45 468.576 174.503 467.921 175.514C460.707 183.209 453.925 191.49 447.556 200.217L447.434 200.376L447.153 200.412C437.708 200.693 428.363 202.316 419.417 205.385L418.191 205.827L418.889 204.597Z" fill="#3F5967"/>
<path fill-rule="evenodd" clip-rule="evenodd" d="M27.1 339.1C26.9 339.1 26.6 339.1 26.4 339.1L25.9 339L26 338.5C26.1 337.7 26 337 25.7 336.2C23.4 337.2 21 337.8 18.5 338H18.4H18.3C10.5 334.9 6 329.1 5 320.6V320.5V320.4C5.9 312.3 10.1 306.5 17.6 303.1C21.3 283.1 33.4 270.8 53.4 266.5C54.9 266.2 56.4 266 57.8 266C59.8 266 61.8 266.3 63.7 267L63.5 268C61.6 268 60.2 268.1 59.1 268.1C60.2 268.2 61.6 268.3 63.5 268.5V269.5L61.5 269.8C63.8 269.8 66 269.5 68.3 269L68.7 268.9L68.9 269.3C75.3 285.7 73.7 301.7 64.4 316.7V316.8C58.2 322.9 52.1 329.2 46.2 335.5C46.6 336 47.1 336.3 47.7 336.5L47.6 337.5C45.4 337.7 43.3 337.8 41.1 337.8C37.8 337.8 34.4 337.5 31.2 337C30.2 338.5 28.8 339.1 27.1 339.1Z" fill="#ECC94B"/>
<path fill-rule="evenodd" clip-rule="evenodd" d="M61.2646 504C61.0993 504 60.8514 504 60.6861 504L60.2729 503.918L60.3555 503.508C60.4382 502.851 60.3555 502.276 60.1076 501.62C58.2067 502.44 56.2233 502.933 54.1571 503.097H54.0745H53.9918C47.5455 500.553 43.8265 495.792 43 488.815V488.733V488.651C43.7438 482.003 47.2149 477.242 53.4133 474.451C56.4712 458.036 66.4713 447.94 83.0003 444.41C84.24 444.164 85.4797 444 86.6367 444C88.2897 444 89.9426 444.246 91.5128 444.821L91.3475 445.642C89.7773 445.642 88.6202 445.724 87.7111 445.724C88.6202 445.806 89.7773 445.888 91.3475 446.052V446.873L89.6946 447.119C91.5955 447.119 93.4137 446.873 95.3145 446.462L95.6451 446.38L95.8104 446.709C101.1 460.17 99.7773 473.302 92.0913 485.614V485.696C86.9673 490.703 81.926 495.874 77.0499 501.045C77.3805 501.456 77.7937 501.702 78.2896 501.866L78.2069 502.687C76.3887 502.851 74.6532 502.933 72.835 502.933C70.1077 502.933 67.2977 502.687 64.6531 502.276C63.8266 503.508 62.6696 504 61.2646 504Z" fill="#ECC94B"/>
<path fill-rule="evenodd" clip-rule="evenodd" d="M81.5 347.1C71 347 61.5 343.8 53.3 337.5C52.4 337.2 51.5 337 50.5 337C50.2 337 49.9 337 49.6 337.1L49.1 337.2L49 336.7C48.9 336.2 48.7 335.8 48.2 335.5L47.1 334.7L48.4 334.5C50.2 334.3 51.8 333.7 53.2 332.6L53.3 332.5H53.4C79.9 329.1 93.9 313.9 95 287.5V286.3L95.8 287.2C98.1 289.8 100 292.8 101.3 296.2C114.2 306.2 117.3 318.9 110.3 333.7V333.8V333.9C102.8 342.5 93 346.9 81.5 347.1Z" fill="#ED9442"/>
<path fill-rule="evenodd" clip-rule="evenodd" d="M106.302 511C97.6631 510.918 89.8472 508.286 83.1009 503.105C82.3604 502.859 81.62 502.694 80.7973 502.694C80.5504 502.694 80.3036 502.694 80.0568 502.776L79.6454 502.859L79.5632 502.447C79.4809 502.036 79.3163 501.707 78.905 501.461L78 500.803L79.0695 500.638C80.5504 500.474 81.8668 499.98 83.0186 499.076L83.1009 498.993H83.1831C104.985 496.197 116.503 483.697 117.408 461.987V461L118.067 461.74C119.959 463.878 121.522 466.345 122.592 469.141C133.205 477.365 135.755 487.809 129.996 499.98V500.063V500.145C123.826 507.217 115.763 510.836 106.302 511Z" fill="#ED9442"/>
<path fill-rule="evenodd" clip-rule="evenodd" d="M34.5 315.9C33.5 315.9 32.4 315.6 31.3 315L31.2 314.9L31.1 314.8C29.2 312.2 28.1 309.3 28 306C30.1 292.3 37.6 282.9 50.3 278H50.4H50.5C51.1 277.9 51.7 277.9 52.3 277.9C55.1 277.9 57.7 278.8 59.9 280.6C61.1 282.1 61.3 283.8 60.5 285.6L60.4 285.8L60.2 285.9C54.1 287.8 48.4 290.8 43.4 294.8C39.2 300 37.9 305.9 39.5 312.3L39.6 312.5L39.5 312.7C38.1 314.9 36.4 315.9 34.5 315.9Z" fill="#FBE099"/>
<path fill-rule="evenodd" clip-rule="evenodd" d="M67.3214 485C66.5027 485 65.6022 484.755 64.7016 484.266L64.6198 484.184L64.5379 484.103C62.9824 481.982 62.0819 479.616 62 476.924C63.7192 465.747 69.8593 458.079 80.2565 454.082H80.3384H80.4203C80.9115 454 81.4027 454 81.8939 454C84.1862 454 86.3147 454.734 88.1158 456.203C89.0982 457.426 89.262 458.813 88.607 460.282L88.5252 460.445L88.3614 460.526C83.3675 462.076 78.701 464.524 74.6076 467.787C71.1692 472.029 70.1049 476.842 71.4148 482.063L71.4967 482.226L71.4148 482.389C70.2686 484.184 68.8769 485 67.3214 485Z" fill="#FBE099"/>
<path fill-rule="evenodd" clip-rule="evenodd" d="M447.563 457.205C446.299 450.666 445.377 444.012 445.033 437.426L445.094 437.347C447.324 425.798 444.295 415.493 436.281 406.894L434.382 405.426L434.688 405.031C440.725 397.058 447.141 389.252 453.829 381.909C468.826 363.167 484.103 344.389 499.452 326.173L500.244 326.785C494.904 333.527 489.582 340.41 484.419 347.414C497.25 331.801 509.886 315.785 522.242 299.805C518.414 304.429 514.567 308.913 510.721 313.397L509.93 312.785L539.902 274.021C540.417 273.029 541.363 272.622 542.46 272.839L542.759 272.943L542.794 273.223C545.77 283.108 546.799 293.384 545.969 303.613C545.439 305.606 545.252 307.483 545.284 309.404L545.302 309.544L545.179 309.702C519.709 340.192 495.867 372.825 474.608 406.697C469.315 414.36 466.19 422.815 465.076 431.94C465.129 435.141 465.883 438.252 467.303 440.993L467.418 441.335L467.174 441.651C461.428 447.448 455.067 452.895 448.477 457.659L447.89 458.09L447.563 457.205Z" fill="#B0BCB0"/>
<path fill-rule="evenodd" clip-rule="evenodd" d="M514.914 377.945L515.22 377.55C529.606 356.819 539.363 333.899 544.125 309.267C544.015 307.285 544.263 305.328 544.872 303.397L544.933 303.318L544.994 303.239C551.787 295.598 558.702 287.798 565.538 279.938L566.596 278.733L566.434 280.251C563.775 307.395 554.92 332.908 540.076 356.192C534.542 365.312 528.331 374.162 521.628 382.504L521.322 382.9L514.914 377.945Z" fill="#3A505D"/>
<path fill-rule="evenodd" clip-rule="evenodd" d="M457.781 263.994C457.34 259.987 456.88 255.84 456.562 251.675L456.544 251.535L456.666 251.376C459.354 246.755 462.718 242.404 466.514 238.64L466.575 238.56L470.806 236.522L470.946 236.504C478.014 236.028 484.07 237.677 488.738 241.286C492.06 243.855 494.807 247.496 496.881 252.007C497.183 253.251 497.186 254.392 496.97 255.489L496.693 256.665L496.067 255.675C494.931 254.038 493.673 252.56 492.09 251.336L492.011 251.275L491.932 251.214C490.336 248.21 488.47 245.883 486.492 244.353C482.141 240.989 476.563 240.847 469.976 243.971C464.77 248.415 461.866 254.133 461.289 260.765C461.04 262.722 460.122 263.908 458.475 264.404L457.853 264.555L457.781 263.994Z" fill="#F2A637"/>
<path fill-rule="evenodd" clip-rule="evenodd" d="M296.067 337.288C298.353 330.081 301.298 323.003 304.839 316.134L305.004 315.757L305.364 315.782C310.392 316.636 315.363 315.929 320.119 313.539C326.378 309.53 332.249 304.716 337.409 299.351C364.231 269.401 390.313 238.121 414.982 206.38C416.259 205.218 417.731 204.46 419.335 204.183C428.281 201.114 437.687 199.412 447.211 199.192L448.211 199.207L447.599 199.998C414.287 245.534 380.327 291.58 346.778 336.932L346.472 337.328L346.077 337.022C337.299 331.373 327.99 330.496 318.354 334.295C311.282 336.411 303.944 337.564 296.56 337.795L295.92 337.806L296.067 337.288Z" fill="#E8EEDD"/>
<path fill-rule="evenodd" clip-rule="evenodd" d="M17.5 324.9C16.7 324.9 15.9 324.6 14.8 324.1L14.7 324L14.6 323.9C14.1 322.9 13.9 321.8 14.1 320.6L14.2 320.2H20.1V320.7C20.2 322.5 19.9 323.6 19.2 324.3C18.7 324.7 18.1 324.9 17.5 324.9Z" fill="#F5DEA4"/>
<path fill-rule="evenodd" clip-rule="evenodd" d="M53.4222 493C52.6347 493 51.8473 492.745 50.7645 492.319L50.666 492.234L50.5676 492.149C50.0754 491.298 49.8786 490.362 50.0754 489.34L50.1739 489H55.9815V489.426C56.08 490.957 55.7847 491.894 55.0956 492.489C54.6034 492.83 54.0128 493 53.4222 493Z" fill="#F5DEA4"/>
<path fill-rule="evenodd" clip-rule="evenodd" d="M464.887 279.98C464.333 279.552 463.858 279.185 463.366 278.678L463.287 278.617L463.269 278.476C461.177 273.825 459.347 268.998 457.878 264.196L457.745 263.714L458.227 263.581C459.471 263.279 460.205 262.33 460.307 260.891L461.288 260.765C462.783 265.208 465.074 268.622 467.922 270.824C471.64 273.699 476.686 274.693 482.7 273.781C492.553 268.885 495.54 261.588 491.889 251.434L491.253 249.804L492.598 250.844C494.259 252.129 495.675 253.73 496.891 255.428L501.026 259.889L501.105 259.95C502.287 262.508 502.269 265.148 501.049 267.87C494.93 281.342 484.613 286.511 470.317 283.42L470.238 283.359L470.159 283.298C468.253 282.33 466.469 281.204 464.887 279.98Z" fill="#E68638"/>
<path fill-rule="evenodd" clip-rule="evenodd" d="M403.007 444.37C402.295 443.819 401.986 443.075 402.141 442.057L402.123 441.916L402.245 441.758C410.211 433.254 417.587 424.042 424.19 414.357C423.891 414.253 423.672 414.21 423.435 414.026C422.802 413.537 422.536 412.573 422.795 411.257C422.631 406.074 423.028 400.819 424.084 395.694L425.769 389.918L426.305 390.206C426.682 390.371 427.121 390.458 427.603 390.325C468.067 339.954 508.589 288.363 547.945 237.135L548.251 236.74L562.491 247.75L542.427 273.698L542.129 273.594C541.471 273.464 541.068 273.658 540.658 274.352L540.597 274.431L540.535 274.51C530.821 284.949 521.214 296.229 512.039 308.096C492.279 332.508 472.95 357.507 454.541 382.46C447.792 389.881 441.437 397.609 435.4 405.581C424.947 418.609 414.434 431.716 404.025 444.525L403.78 444.841L403.402 444.675C403.244 444.553 403.165 444.492 403.007 444.37Z" fill="#E77732"/>
<path fill-rule="evenodd" clip-rule="evenodd" d="M467.152 271.493C464.145 269.168 461.837 265.614 460.184 261.049L460.166 260.909L460.148 260.769C460.751 253.777 463.778 247.901 469.167 243.219L469.228 243.14L469.289 243.061C476.279 239.743 482.138 239.849 486.884 243.519C489.02 245.171 490.966 247.56 492.659 250.765C496.443 261.402 493.186 269.375 482.851 274.404L482.789 274.483L482.649 274.501C476.452 275.65 471.186 274.612 467.152 271.493Z" fill="#40505D"/>
<path fill-rule="evenodd" clip-rule="evenodd" d="M467.552 267.378C466.207 266.338 464.967 265 463.813 263.223L463.734 263.161L463.655 263.1C462.753 260.507 462.491 257.903 462.65 255.245L462.632 255.104L462.693 255.025C464.586 251.433 467.094 248.189 470.155 245.374L470.217 245.295L470.278 245.216C472.17 244.403 474.159 243.792 476.245 243.383L476.386 243.365L476.465 243.426C479.835 244.136 483.187 244.705 486.564 244.915L486.783 244.958L486.88 245.159C488.66 247.926 490.317 250.85 491.633 253.89L491.809 254.153L491.625 254.39C488.366 258.443 484.983 262.653 481.443 266.742L481.382 266.821L481.321 266.9C476.112 270.204 471.508 270.436 467.552 267.378Z" fill="#283441"/>
<path fill-rule="evenodd" clip-rule="evenodd" d="M473.193 261.881C470.741 259.984 470.627 256.862 472.79 252.594L472.851 252.515L472.912 252.435C475.614 249.595 478.934 248.243 482.714 248.259L482.855 248.241L482.934 248.302C483.628 248.712 484.243 249.061 484.797 249.49C487.882 251.875 488.198 254.9 485.761 258.705C483.689 260.895 481.326 262.48 478.628 263.681L478.487 263.698L478.347 263.716C476.092 263.363 474.38 262.798 473.193 261.881Z" fill="#425965"/>
<path fill-rule="evenodd" clip-rule="evenodd" d="M578.2 402.9C566.2 395.1 561.3 383.8 563.5 369.4C566.5 358.9 573 351.8 583 348.1C582.3 339.5 584.1 331.5 588.6 324.2C602.7 302.1 621.3 290.9 643.8 290.9C650.7 290.9 658 291.9 665.6 294V295C664.5 295.3 663.8 295.8 663.5 296.7L663.3 297.2L662.8 297C660.8 296 658.7 295.5 656.6 295.5C660.4 300.3 662.8 306.4 663.6 313.5C665.3 326.5 663.3 339 657.6 350.8C641 382.5 614.5 400.1 578.7 403.1H578.5L578.2 402.9Z" fill="#ECC94B"/>
<path fill-rule="evenodd" clip-rule="evenodd" d="M347.2 248.269L347.506 247.874C365.871 223.141 388.651 202.833 415.121 187.4C422.643 183.23 430.571 180.006 438.607 177.624L440.394 177.11L439.135 178.411C431.475 186.52 424.984 195.405 419.802 205.05L419.619 205.288L419.338 205.324C417.935 205.503 416.665 206.165 415.572 207.089L415.511 207.168L415.37 207.186C404.129 211.261 393.603 217.027 383.854 224.405C373.065 233.127 362.883 242.699 353.694 252.785L353.388 253.181L347.139 248.348L347.2 248.269Z" fill="#446973"/>
<path fill-rule="evenodd" clip-rule="evenodd" d="M466.217 441.417C464.779 438.536 464.007 435.284 463.857 431.882C464.874 422.556 468.182 413.863 473.536 406.121C494.857 372.17 518.698 339.537 544.169 309.047L545.003 309.44C540.241 334.073 530.501 357.132 516.177 377.784L521.714 382.066L521.409 382.461C504.796 403.62 486.443 423.432 466.875 441.547L466.368 442.04L466.217 441.417Z" fill="#D1DECC"/>
<path fill-rule="evenodd" clip-rule="evenodd" d="M453.75 381.848C472.158 356.895 491.549 331.817 511.248 307.484C520.423 295.617 530.03 284.337 539.744 273.898L540.535 274.51L500.164 326.723C484.876 344.861 469.538 363.717 454.541 382.459L453.75 381.848Z" fill="#F0752B"/>
<path fill-rule="evenodd" clip-rule="evenodd" d="M609.5 412C604.2 412 598.7 411.5 593.4 410.5C587.7 409 582.6 406.5 578.2 402.9L577.2 402.1L578.4 402C613.8 399.1 640.1 381.7 656.5 350.3C662.2 338.7 664.2 326.4 662.4 313.6C661.6 306.3 659.1 300.2 655 295.4L654.3 294.6L655.3 294.5C655.6 294.5 655.9 294.5 656.2 294.5C658.4 294.5 660.5 295 662.5 295.9C663 295 663.9 294.4 665.1 294.1H665.2H665.3C680 298.5 691.6 307.3 699.6 320.3L699.7 320.4V320.5C704.6 349.7 694.7 373.3 670.5 390.5C659.5 397.1 647.6 402.1 635.2 405.3L635.5 406C632.5 408.2 629.1 409.7 625.3 410.6C620.3 411.5 614.8 412 609.5 412Z" fill="#EDAC4A"/>
<path fill-rule="evenodd" clip-rule="evenodd" d="M380.071 392.127C380.478 390.293 380.727 388.337 380.774 386.477L380.756 386.337L380.879 386.179C381.123 385.862 381.105 385.722 380.789 385.477L380.393 385.171L463.582 277.581L463.977 277.887C464.531 278.315 464.945 278.761 465.499 279.189C467.081 280.413 468.706 281.417 470.472 282.403C484.329 285.407 494.042 280.529 499.995 267.435C501.11 265.011 501.165 262.651 500.159 260.356L499.461 258.806L500.85 259.626C501.008 259.749 501.227 259.792 501.49 259.616C501.69 252.818 501.17 245.969 499.949 239.211C499.421 238.423 498.831 237.714 498.119 237.164C497.882 236.98 497.644 236.797 497.346 236.692L496.81 236.404L514.61 213.383L531.935 226.779L531.77 227.157C529.75 232.548 527.152 237.87 524.079 242.825C513.622 257.494 502.551 271.813 490.987 285.624C484.111 292.064 477.412 298.766 471.091 305.634C447.921 327.917 424.841 350.9 402.481 373.934C395.562 380.594 388.248 386.947 380.941 392.8L379.848 393.724L380.071 392.127Z" fill="#FCAC2F"/>
<path fill-rule="evenodd" clip-rule="evenodd" d="M304.839 316.134C316.568 292.464 330.781 269.83 346.894 248.665L347.261 248.19L347.674 248.636C348.088 249.082 348.563 249.449 348.958 249.755C350.303 250.795 351.752 251.536 353.227 251.918C362.416 241.832 372.536 232.339 383.326 223.617C393.154 216.3 403.881 210.437 415.183 206.283L416.813 205.646L415.773 206.991C391.104 238.733 365.022 270.013 338.2 299.962C332.918 305.486 327.047 310.3 320.726 314.388C315.769 316.875 310.658 317.6 305.349 316.782L304.691 316.652L304.839 316.134Z" fill="#FCFBEF"/>
<path fill-rule="evenodd" clip-rule="evenodd" d="M610.6 361.8C607 361.8 604.3 359.4 602.5 354.7V354.6V354.5C601.7 333.1 611 317.4 630.3 308H630.4H630.5C631.5 307.9 632.6 307.9 633.6 307.9C637.4 307.9 641.1 308.5 644.7 309.5H644.9L645 309.6C648 313.5 647.7 317.1 643.9 320.3L643.8 320.4H643.7C623 325.3 614 338.4 617.1 359.3V359.6L616.8 359.8C614.5 361.2 612.4 361.8 610.6 361.8Z" fill="#FDE198"/>
<path fill-rule="evenodd" clip-rule="evenodd" d="M687.7 422.1C686.3 422.1 684.9 422.1 683.5 422C683.1 422 682.8 422 682.4 422C674.6 422 666.9 420.8 659.4 418.5C650.9 415.1 642.8 410.9 635.4 406C635.4 406 635.4 406 635.3 406C634.9 406 634.4 405.9 634 405.2L633.7 404.6L634.3 404.4C646.9 401.2 659 396.2 670.2 389.5C694.1 372.5 703.8 349.3 699 320.5L698.7 318.7L699.9 320.1C704.3 325.3 707.5 331.4 709.5 338.1C716.1 343.4 722.2 349.5 727.5 356.1C734.6 368.6 736 381.9 731.6 395.6C721.9 413.3 707.2 422.1 687.7 422.1Z" fill="#ED9442"/>
<path fill-rule="evenodd" clip-rule="evenodd" d="M473.467 360.435C481.818 348.816 490.529 337.223 499.373 326.112L509.772 312.663C519.641 301.206 529.518 289.25 539.096 277.189L539.887 277.801C518.91 306.076 496.756 334.074 474.258 361.047L473.467 360.435Z" fill="#9CC2BF"/>
<path fill-rule="evenodd" clip-rule="evenodd" d="M380.194 391.969L380.255 391.89C387.562 386.037 394.814 379.763 401.733 373.103C424.094 350.069 447.173 327.086 470.343 304.803L470.404 304.724L470.465 304.645C471.955 304.027 473.329 303.067 474.509 301.704L475.2 300.974L475.72 305.042L475.598 305.2C468.249 317.974 460.383 330.6 452.244 342.762L451.33 342.308C451.539 341.711 451.748 341.114 452.097 340.499C448.567 345.228 445.354 350.201 442.518 355.34L442.457 355.419L442.396 355.498C426.238 372.963 409.483 390.219 392.638 406.773L392.314 407.029L391.997 406.784C387.805 403.542 384.583 399.534 382.412 394.822C378.526 400.666 375.553 406.963 373.353 413.731L373.292 413.81L373.231 413.889C372.497 414.839 371.569 415.385 370.508 415.45L369.666 415.557L380.194 391.969Z" fill="#E87D33"/>
<path fill-rule="evenodd" clip-rule="evenodd" d="M579.3 379.4C577.7 379.4 576.5 378.9 575.9 378C575 376.8 575.1 374.9 576 372.3L576.1 372L576.4 371.9C577.3 371.7 578.1 371.6 578.7 371.6C580.3 371.6 581.5 372.1 582.3 373C583.3 374.2 583.5 375.9 583 378.5L582.9 378.8L582.6 378.9C581.4 379.3 580.2 379.4 579.3 379.4Z" fill="#F6DDA0"/>
<path fill-rule="evenodd" clip-rule="evenodd" d="M184.3 301.3C182.4 293.2 180.9 284.8 179.8 276.6C174.1 275.3 168.3 273.8 162.6 272.2L161 271.7L162.6 271.2C168.4 269.4 174.3 268.3 180.3 267.7C181.5 260.2 182.5 252.6 183.2 245.1L184.2 245C187 252.1 188.9 259.7 189.7 267.8C195.6 269.3 201.7 270.4 207.8 271.2V272.2C202.1 273.5 196.3 275 190.6 276.6C188.4 284.7 186.6 293 185.2 301.3H184.3Z" fill="#ECC94B"/>
<path fill-rule="evenodd" clip-rule="evenodd" d="M368.129 420.815C368.439 418.78 369.169 416.69 370.26 414.626L370.443 414.389L370.724 414.353C371.425 414.263 372.091 413.893 372.641 413.181C374.945 406.114 378.163 399.5 382.233 393.419L382.704 392.646L383.092 393.452C385.202 398.244 388.301 402.409 392.415 405.59C409.199 389.115 425.752 371.956 441.788 354.65C445.671 347.666 450.23 340.952 455.282 334.746L456.073 335.357C454.518 337.695 453.262 340.136 452.427 342.524L452.366 342.604L452.305 342.683C442.359 357.998 433.661 374.152 426.455 390.828L424.979 396.007L424.918 396.086C413.588 408.941 402.093 422.174 390.737 435.389L390.493 435.705L390.176 435.461C382.945 430.754 375.634 425.986 368.384 421.139L368.147 420.956L368.129 420.815Z" fill="#D36E37"/>
<path fill-rule="evenodd" clip-rule="evenodd" d="M170.057 379.283L173.054 375.406L173.353 375.511C175.442 376.241 177.662 376.314 179.791 375.685L268.493 355.785C285.755 350.298 302.328 342.761 317.886 333.428C327.865 329.514 337.533 330.416 346.548 336.249L346.944 336.555L338.38 347.63L337.114 346.652L337.035 346.591C336.859 346.328 336.622 346.145 336.463 346.022C335.593 345.349 334.374 345.291 332.788 345.708C327.119 347.645 322.05 350.931 317.905 355.311C305.312 371.107 290.759 385.515 274.814 397.963C270.141 401.554 265.036 404.56 259.745 406.662L259.342 406.857L256.236 400.41C255.291 398.036 253.742 395.953 251.685 394.363C251.289 394.057 250.973 393.812 250.516 393.585C240.666 387.36 230.06 386.364 219.196 390.605C211.678 393.135 204.469 396.41 197.71 400.411L197.447 400.587L169.996 379.362L170.057 379.283Z" fill="#405A65"/>
<path fill-rule="evenodd" clip-rule="evenodd" d="M570 484.6C569.1 480.4 568.1 476.1 567.1 471.9C564 470.8 560.7 470 557.4 469.5L556 469.3L557.2 468.6C560.2 466.9 563.4 466 566.9 466H567C567.7 461.4 568.7 456.8 570 452.4L570.5 450.6L571 452.4C572 456.5 572.9 460.8 573.5 465.2C576.8 466.5 580.2 467.4 583.6 468.1V469.1C580.3 469.6 577.2 470.5 574.5 472C573.3 476.2 572.1 480.5 571.1 484.8L570 484.6Z" fill="#ECC94B"/>
<path fill-rule="evenodd" clip-rule="evenodd" d="M617 669C616.1 664.8 615.1 660.5 614.1 656.3C611 655.2 607.7 654.4 604.4 653.9L603 653.7L604.2 653C607.2 651.3 610.4 650.4 613.9 650.4H614C614.7 645.8 615.7 641.2 617 636.8L617.5 635L618 636.8C619 640.9 619.9 645.2 620.5 649.6C623.8 650.9 627.2 651.8 630.6 652.5V653.5C627.3 654 624.2 654.9 621.5 656.4C620.3 660.6 619.1 664.9 618.1 669.2L617 669Z" fill="#ECC94B"/>
<path fill-rule="evenodd" clip-rule="evenodd" d="M289.775 415.724C290.812 413.239 291.69 410.632 292.691 407.866L292.752 407.787L292.813 407.708C307.674 387.344 322.639 366.681 337.323 346.055L337.629 345.659L339.211 346.883L338.905 347.278C331.313 357.588 324.099 368.063 317.244 378.563C311.807 385.104 306.906 391.933 302.743 398.953C299.692 402.408 297.299 405.994 295.643 409.77L295.582 409.849L290.627 416.257L289.775 415.724Z" fill="#404461"/>
<path fill-rule="evenodd" clip-rule="evenodd" d="M389.658 435.313L389.964 434.917C401.319 421.703 412.815 408.47 424.145 395.615L425.386 394.173L424.979 396.007C423.985 401.053 423.57 406.168 423.734 411.351C423.604 412.009 423.571 412.868 423.967 413.174C424.204 413.358 424.503 413.462 424.924 413.408L425.924 413.423L425.391 414.275C418.684 424.258 411.185 433.629 403.036 442.37C403.029 442.87 403.223 443.273 403.539 443.518C403.618 443.579 403.697 443.64 403.777 443.701L404.312 443.989L403.945 444.464C403.395 445.176 402.553 445.283 401.841 444.733L389.658 435.313Z" fill="#C75E32"/>
<path fill-rule="evenodd" clip-rule="evenodd" d="M172.81 375.723C181.464 362.568 193.551 353.965 208.652 349.966C237.668 344.971 267.256 340.545 296.452 336.954C303.836 336.722 311.095 335.508 317.965 333.489L318.372 334.435C302.813 343.768 286.1 351.323 268.697 356.828L179.996 376.728C177.586 377.393 175.226 377.338 172.917 376.564L172.32 376.355L172.81 375.723Z" fill="#4C737D"/>
<path fill-rule="evenodd" clip-rule="evenodd" d="M322.204 512.09L323.01 511.702C323.693 511.472 324.395 511.383 325.053 511.512C325.06 511.012 325.146 510.574 325.312 510.196L325.478 509.818L325.837 509.844C330.944 510.759 335.897 509.911 340.592 507.6C349.751 502.294 357.773 495.351 364.574 487.21C369.298 482.899 373.705 478.343 377.778 473.402C384.981 465.067 392.008 456.469 398.754 447.907L402.057 443.635L402.453 443.941C402.769 444.186 402.91 444.168 403.154 443.852C413.564 431.043 424.138 417.857 434.53 404.908L434.835 404.512L437.13 406.286L436.964 406.664C435.69 408.965 434.653 411.45 433.757 413.918C434.789 415.853 435.18 417.799 434.809 419.914L434.748 419.993L434.687 420.072C421.022 447.554 403.017 472.313 380.941 493.671C379.71 495.753 378.997 497.983 378.802 500.36C379.503 503.051 379.466 505.55 378.649 508.079L378.544 508.377L378.264 508.413C376.861 508.593 375.591 509.254 374.498 510.178L374.436 510.257L374.296 510.275C362.965 513.649 352.932 519.922 344.88 528.865L344.574 529.261L322.265 512.011L322.204 512.09Z" fill="#303A47"/>
<path fill-rule="evenodd" clip-rule="evenodd" d="M301.829 398.499C305.993 391.48 310.955 384.572 316.391 378.031L316.697 377.635L319.466 379.776C327.312 387.612 335.665 394.956 344.367 401.684C345.949 402.907 347.532 404.131 349.096 405.214L349.57 405.581L349.124 405.994C344.602 410.208 339.824 414.099 334.889 417.867L334.565 418.122L334.248 417.877C332.605 416.733 331.023 415.51 329.52 414.347C321.529 408.17 313.967 401.438 306.852 394.293C305.251 395.709 303.826 397.388 302.62 399.111L301.829 398.499Z" fill="#B62E2E"/>
<path fill-rule="evenodd" clip-rule="evenodd" d="M360.265 437.361C362.608 431.715 365.232 426.033 368.172 420.596L368.399 420.139L368.794 420.445C376.044 425.292 383.355 430.059 390.586 434.766L402.849 444.247L399.484 448.598C396.423 451.414 393.3 454.308 390.195 457.343L389.871 457.598L389.555 457.353C385.786 455.198 381.999 452.902 378.353 450.588C372.333 446.439 366.234 442.229 360.337 437.922L360.02 437.678L360.265 437.361Z" fill="#852427"/>
<path fill-rule="evenodd" clip-rule="evenodd" d="M249.739 456.061L250.045 455.665C260.228 440.533 263.391 424.018 259.288 406.436L259.234 406.015L259.637 405.821C264.85 403.657 269.832 400.81 274.505 397.218C290.389 384.85 304.88 370.521 317.474 354.724C321.802 350.107 327.011 346.804 332.882 344.77C334.81 344.238 336.327 344.4 337.435 345.256C337.751 345.501 338.007 345.825 338.183 346.088L338.359 346.35L338.114 346.667C323.491 367.214 308.465 387.956 293.665 408.241C292.726 410.927 291.786 413.614 290.75 416.099L290.689 416.178L290.627 416.257C288.443 419.245 286.479 422.277 284.751 425.492C279.523 434.216 275.085 443.552 271.604 453.122C269.822 458.696 270.626 463.868 273.92 468.437L273.999 468.498L274.017 468.639C274.451 470.365 274.228 471.962 273.066 473.465L272.76 473.861L249.739 456.061Z" fill="#35434F"/>
<path fill-rule="evenodd" clip-rule="evenodd" d="M267.498 375.873C268.157 373.222 268.535 370.608 268.633 368.029L268.658 367.669L269 367.554C273.662 366.102 278.36 364.931 283.154 363.961L283.295 363.944L283.374 364.005C283.813 364.091 284.251 364.178 284.489 364.361C284.884 364.667 285.334 365.394 284.776 366.606L284.653 366.764L284.452 366.861C279.006 369.981 273.498 373.181 268.21 376.423L267.221 377.049L267.498 375.873Z" fill="#6697A2"/>
<path fill-rule="evenodd" clip-rule="evenodd" d="M363.915 465.338C368.513 460.045 373.41 454.856 378.342 449.948L378.666 449.693L378.982 449.938C382.55 452.19 386.178 454.364 389.807 456.537C392.789 453.661 395.851 450.845 398.711 448.127L399.441 448.818C392.695 457.38 385.606 466.057 378.464 474.313L378.22 474.629L377.842 474.464C373.16 471.855 368.521 469.026 363.961 466.259L363.425 465.971L363.915 465.338Z" fill="#9B3434"/>
<path fill-rule="evenodd" clip-rule="evenodd" d="M313.471 427.093C306.746 421.894 300.45 416.141 294.74 409.956L294.564 409.694L294.669 409.395C296.446 405.461 298.901 401.797 301.952 398.341C303.2 396.399 304.827 394.623 306.69 393.03L307.075 392.696L307.409 393.081C314.464 400.305 322.184 407.159 330.254 413.398C331.836 414.622 333.339 415.784 334.982 416.928L335.536 417.356L334.95 417.788C329.392 421.706 324.028 426.028 318.761 430.551L318.437 430.807L318.12 430.562C316.556 429.479 314.974 428.255 313.471 427.093Z" fill="#F08A41"/>
<path fill-rule="evenodd" clip-rule="evenodd" d="M668 535.6L664.6 513C658.8 512.2 653 510.9 647.4 509L645.9 508.5L647.4 508C652.6 506.4 657.9 505.2 663.3 504.5L664.6 503.2C665.7 496.3 666.6 489.3 667.1 482.4V481.8L667.7 481.9C668.6 482.1 669.8 482.8 670.1 484.8C671.6 491.4 673 498.2 674 504.9C679.6 505.5 685.2 506.5 690.7 507.9L690.6 508.9C685.3 509.6 680 510.9 675 512.8L669.1 535.5L668 535.6Z" fill="#ECC94B"/>
<path fill-rule="evenodd" clip-rule="evenodd" d="M461.1 712.8L457.7 690.2C451.9 689.4 446.1 688.1 440.5 686.2L439 685.7L440.5 685.2C445.7 683.6 451 682.4 456.4 681.7L457.7 680.4C458.8 673.5 459.7 666.5 460.2 659.6V659L460.8 659.1C461.7 659.3 462.9 660 463.2 662C464.7 668.6 466.1 675.4 467.1 682.1C472.7 682.7 478.3 683.7 483.8 685.1L483.7 686.1C478.4 686.8 473.1 688.1 468.1 690L462.2 712.7L461.1 712.8Z" fill="#ECC94B"/>
<path fill-rule="evenodd" clip-rule="evenodd" d="M241.1 641.8L237.7 619.2C231.9 618.4 226.1 617.1 220.5 615.2L219 614.7L220.5 614.2C225.7 612.6 231 611.4 236.4 610.7L237.7 609.4C238.8 602.5 239.7 595.5 240.2 588.6V588L240.8 588.1C241.7 588.3 242.9 589 243.2 591C244.7 597.6 246.1 604.4 247.1 611.1C252.7 611.7 258.3 612.7 263.8 614.1L263.7 615.1C258.4 615.8 253.1 617.1 248.1 619L242.2 641.7L241.1 641.8Z" fill="#ECC94B"/>
<path fill-rule="evenodd" clip-rule="evenodd" d="M253.383 378.106C252.909 377.739 252.434 377.372 252.021 376.926L251.625 376.62L252.01 376.285C256.68 371.553 262.364 368.617 269 367.554L269.561 367.482L269.572 368.122C269.492 370.841 269.131 373.597 268.472 376.247L268.429 376.466L268.307 376.625C265.314 378.861 262.011 380.353 258.339 381.179L258.199 381.197L258.04 381.074C256.354 380.15 254.807 379.207 253.383 378.106Z" fill="#AACCD0"/>
<path fill-rule="evenodd" clip-rule="evenodd" d="M290.881 458.925C289.773 458.069 288.911 456.896 288.451 455.529L288.336 455.187L288.598 455.011C293.804 450.567 299.01 446.123 303.996 441.636C308.457 437.501 313.296 433.531 318.171 429.843C323.298 425.337 328.802 420.998 334.36 417.079C339.235 413.39 344.012 409.5 348.474 405.365C356.377 399.72 364.36 394.137 372.386 388.334C375.056 386.353 377.955 385.055 381.041 384.661L381.242 384.564L381.401 384.686C382.113 385.237 382.22 386.078 381.67 386.79C378.486 389.764 375.557 393.061 372.927 396.463C353.404 421.059 333.891 446.295 314.817 471.618L314.45 472.093L314.037 471.646C313.782 471.323 313.465 471.078 313.149 470.833C312.12 470.038 311.066 469.603 309.847 469.545L309.707 469.563L307.175 467.605C306.938 467.422 306.701 467.238 306.463 467.055C302.112 463.691 297.308 461.24 292.05 459.702L291.971 459.641C291.514 459.414 291.197 459.17 290.881 458.925Z" fill="#F9F8EE"/>
<path fill-rule="evenodd" clip-rule="evenodd" d="M325.391 510.257C327.266 506.525 329.562 502.738 332.156 499.056C333.373 495.193 332.705 491.643 330.091 488.484C328.251 485.797 326.025 483.444 323.493 481.487L323.177 481.242C320.124 477.997 316.809 474.928 313.17 472.114C311.983 471.196 310.796 470.279 309.549 469.441L308.063 468.419L309.862 468.545C311.301 468.646 312.574 469.125 313.76 470.042C314.077 470.287 314.472 470.593 314.807 470.978C315.439 471.467 316.011 472.036 316.644 472.525C318.464 473.932 320.406 475.181 322.409 476.35C327.725 464.407 334.058 452.619 341.201 441.582C351.841 426.677 362.287 411.369 372.075 395.931C374.766 392.45 377.695 389.152 380.879 386.179L381.771 385.352L381.774 386.492C381.745 388.492 381.496 390.448 381.107 392.423L371.112 415.159C370.083 417.144 369.395 419.014 369.085 421.049L369.024 421.129L368.963 421.208C366.084 426.566 363.46 432.248 361.178 437.815C358.382 444.375 355.384 451.031 352.289 457.487C350.331 462.799 348.013 468.085 345.22 473.005C351.768 477.941 358.439 482.72 365.214 487.2L365.689 487.567L365.322 488.041C358.539 496.323 350.376 503.284 341.095 508.748C336.199 511.156 331.027 511.96 325.718 511.142L325.06 511.013L325.391 510.257Z" fill="#B6C0B2"/>
<path fill-rule="evenodd" clip-rule="evenodd" d="M353.917 459.63C353.126 459.019 352.256 458.346 351.526 457.655L351.21 457.41L351.375 457.033C354.47 450.578 357.468 443.921 360.265 437.361L360.474 436.764L360.949 437.131C366.846 441.438 372.945 445.648 378.965 449.797L379.439 450.164L378.993 450.578C374.06 455.486 369.225 460.595 364.566 465.967L364.321 466.284L363.943 466.118C360.491 464.207 357.082 462.077 353.917 459.63Z" fill="#AD3E39"/>
<path fill-rule="evenodd" clip-rule="evenodd" d="M316.032 473.316C315.4 472.826 314.688 472.276 314.116 471.707L313.72 471.402L314.026 471.006C333.1 445.683 352.674 420.368 372.136 395.851L372.927 396.463C363.139 411.901 352.693 427.209 342.053 442.114C334.788 453.309 328.454 465.097 323.095 477.26L322.869 477.717L322.412 477.49C320.189 476.277 318.01 474.845 316.032 473.316Z" fill="#D9E5D4"/>
<path fill-rule="evenodd" clip-rule="evenodd" d="M301.81 440.703C295.639 435.932 289.652 430.924 283.91 425.599L283.593 425.354L283.759 424.977C285.486 421.762 287.494 418.511 289.757 415.584L295.018 408.78L295.431 409.226C301.141 415.411 307.358 421.103 314.003 426.241C315.507 427.403 317.01 428.565 318.574 429.648L319.128 430.077L318.541 430.508C313.667 434.197 308.889 438.087 304.428 442.222L304.104 442.477L303.788 442.233C303.234 441.804 302.522 441.254 301.81 440.703Z" fill="#BB2D29"/>
<path fill-rule="evenodd" clip-rule="evenodd" d="M410.632 565.295L410.798 564.917C417.392 549.032 417.004 533.185 409.751 517.717C408.201 515.634 406.486 513.928 404.587 512.46C400.632 509.402 395.917 507.652 390.583 507.194C386.497 507.574 382.271 507.972 378.404 508.395L377.624 508.424L377.815 507.687C378.589 505.378 378.564 502.957 377.96 500.468L377.943 500.328L378.004 500.249C378.242 497.652 378.998 495.203 380.351 492.962L380.412 492.883L380.473 492.804C402.409 471.464 420.432 446.846 434.036 419.443C434.285 417.486 433.972 415.601 432.977 413.946L432.88 413.745L432.923 413.526C433.801 410.918 434.96 408.275 436.295 405.894L436.644 405.279L437.137 405.787C445.407 414.709 448.533 425.216 446.217 437.203C441.309 454.013 436.359 471.042 431.671 487.895C427.67 502.878 427.065 518.211 429.74 533.552C430.484 536.023 431.894 538.124 433.889 539.793C435.645 537.359 437.779 535.09 440.185 533.285C440.7 532.293 440.715 531.293 440.352 530.127L440.007 529.102L441.061 529.538C442.193 530.034 443.369 530.312 444.528 530.449L445.027 530.456L445.02 530.956C444.85 548.015 443.039 565.07 439.675 581.683C443.05 577.972 446.723 574.366 450.396 570.759L451.188 571.371C448.186 576.887 444.448 582.213 440.296 587.092L439.99 587.488L410.877 564.978L410.632 565.295Z" fill="#384A56"/>
<path fill-rule="evenodd" clip-rule="evenodd" d="M414.118 502.259L414.1 502.119C413.083 499.184 413.505 496.35 415.304 493.696C416.344 492.351 417.315 491.585 418.358 491.38C419.121 491.211 419.876 491.543 420.588 492.093C421.142 492.521 421.652 493.169 422.26 494.018L422.339 494.079L422.357 494.219C422.377 498.28 420.966 501.74 418.142 504.739L417.897 505.055L414.179 502.18L414.118 502.259Z" fill="#BBD3D1"/>
<path fill-rule="evenodd" clip-rule="evenodd" d="M416.035 503.867C415.481 503.439 414.909 502.871 414.258 502.241L414.949 501.511L417.718 503.652C420.096 501.067 421.324 497.844 421.375 494.345C420.926 493.618 420.512 493.172 420.037 492.805C419.563 492.438 419.045 492.29 418.545 492.283C417.844 492.373 416.995 492.98 416.217 494.149L415.304 493.695C417.047 486.7 419.131 479.59 421.514 472.584L421.558 472.365L424.09 471.542L424.162 472.103C425.098 480.538 425.114 489.019 424.208 497.547C423.844 501.942 422.807 504.427 421.055 505.221C419.645 505.9 418.012 505.396 416.035 503.867Z" fill="#6E9092"/>
<path fill-rule="evenodd" clip-rule="evenodd" d="M124.5 557.6C122.7 551.9 121.6 545.9 121 539.9C116.1 539.5 111.1 538.6 106.3 537.4V536.4C110.9 535.4 115.5 534.2 120 533C121.6 527.2 122.6 521.3 122.9 515.4L123.9 515.2C126.1 520.4 127.6 526.1 128.4 532.2C129.5 533.4 130.8 534.2 132.5 534.4C135.5 534.6 138.6 535.1 141.6 535.9V536.9C137.7 537.7 133.7 538.7 129.9 539.8C127.8 545.5 126.4 551.4 125.5 557.5L124.5 557.6Z" fill="#ECC94B"/>
<path fill-rule="evenodd" clip-rule="evenodd" d="M175.354 443.548C185.971 423.441 200.305 406.21 218.07 392.389C218.62 391.677 218.811 390.94 218.722 390.239L218.668 389.818L219.01 389.703C230.215 385.347 241.041 386.386 251.207 392.856L251.663 393.082L251.358 393.478C239.081 409.52 223.769 422.456 205.869 431.874C196.2 436.533 186.117 440.745 176.023 444.318L174.796 444.76L175.354 443.548Z" fill="#FDBD40"/>
<path fill-rule="evenodd" clip-rule="evenodd" d="M344.141 472.928C346.916 467.868 349.374 462.564 351.314 457.112L351.584 456.436L352.138 456.864C352.929 457.476 353.659 458.166 354.45 458.778C357.615 461.225 361.024 463.355 364.537 465.187C369.097 467.954 373.736 470.783 378.418 473.392L378.954 473.68L378.587 474.154C374.514 479.095 370.045 483.73 365.322 488.041L364.998 488.296L364.681 488.052C357.748 483.449 350.858 478.628 344.292 473.551L343.976 473.306L344.141 472.928Z" fill="#7D2124"/>
<path fill-rule="evenodd" clip-rule="evenodd" d="M273.071 469.045C269.601 464.213 268.761 458.76 270.647 452.888C274.19 443.238 278.627 433.903 283.917 425.099L284.205 424.563L284.618 425.01C290.282 430.273 296.269 435.282 302.439 440.053C303.151 440.603 303.863 441.154 304.575 441.704L305.05 442.071L304.604 442.485C299.679 446.893 294.613 451.319 289.468 455.684C289.893 456.77 290.64 457.602 291.511 458.274C291.827 458.519 292.144 458.764 292.442 458.868L292.208 459.825C289.849 459.77 287.525 459.996 285.079 460.38C281.467 463.908 277.722 466.953 273.747 469.315L273.344 469.509L273.071 469.045Z" fill="#E9EDDD"/>
<path fill-rule="evenodd" clip-rule="evenodd" d="M438.066 583.6C441.737 566.592 443.652 549.238 443.829 531.679C443.031 531.567 442.153 531.394 441.337 531.142C441.463 532.124 441.308 533.142 440.793 534.134L440.732 534.213L440.671 534.293C438.203 536.176 435.929 538.463 434.191 541.038L433.885 541.434L433.331 541.006C431.037 539.232 429.372 536.807 428.514 533.994C425.821 518.513 426.469 502.961 430.452 487.837C435.139 470.984 440.09 453.955 444.997 437.146L445.936 437.239C446.341 443.746 447.184 450.339 448.43 456.738C451.645 482.988 454.756 509.537 457.471 535.779L456.757 553.051C455.662 559.535 453.671 565.707 450.846 571.486L450.785 571.565L450.723 571.644C446.525 575.603 442.564 579.745 438.743 583.87L437.483 585.171L438.066 583.6Z" fill="#3E535E"/>
<path fill-rule="evenodd" clip-rule="evenodd" d="M153.301 460.625C165.431 445.102 176.592 428.704 186.622 411.809C190.083 407.659 193.623 403.571 197.261 399.684L197.322 399.605L197.383 399.526C204.204 395.445 211.474 392.092 219.071 389.623L219.614 389.411L219.686 389.972C219.811 390.954 219.577 391.911 218.861 393L218.8 393.079L218.739 393.159C201.438 406.706 187.251 423.42 176.844 442.929C186.455 439.49 196.135 435.471 205.402 431.007C223.18 421.747 238.43 408.889 250.567 392.866L250.872 392.47L251.268 392.776C251.663 393.082 252.12 393.309 252.516 393.615C254.731 395.327 256.36 397.471 257.402 400.047L257.481 400.108L257.499 400.248C257.642 404.151 258.101 408.298 258.718 412.568L258.736 412.708L258.675 412.787C257.806 418.815 255.762 424.566 252.584 429.819L252.523 429.899L252.462 429.978C245.123 436.691 237.15 442.914 228.729 448.411C220.128 452.505 211.351 456.337 202.696 460.01L202.433 460.186L201.405 459.391C192.45 453.479 182.959 452.84 173.131 457.376L172.991 457.394L172.851 457.412C171.095 457.066 169.57 457.404 167.977 458.32L149.227 471.127L153.301 460.625Z" fill="#FCAD2F"/>
<path fill-rule="evenodd" clip-rule="evenodd" d="M303.15 590.52C306.931 578.274 313.627 567.651 323.136 558.95C328.393 551.006 333.413 542.879 338.135 534.647C339.97 532.274 342.06 530.224 344.247 528.376C352.501 519.336 362.516 512.923 374.127 509.513L375.635 509.035L374.656 510.301C370.112 516.015 364.575 521.214 358.369 525.643C350.065 535.402 342.271 545.809 335.47 556.73C343.481 554.708 351.243 551.861 358.697 548.27C373.18 537.222 387.398 525.209 400.764 512.664L401.088 512.409L401.404 512.654C402.098 513.064 402.731 513.553 403.285 513.981C406.608 516.55 408.837 520.043 409.796 524.198C410.331 524.486 410.673 524.371 410.936 524.195L411.601 523.824L411.691 524.526C411.996 526.911 411.819 529.428 411.142 531.939L411.081 532.018L411.02 532.097C399.223 553.566 381.469 568.027 358.203 575.066C357.153 575.771 356.261 576.598 355.624 577.749L355.397 578.205L355.001 577.899C345.134 571.534 334.642 570.88 323.922 576.243C317.253 580.946 310.619 585.929 304.161 591.174L302.866 592.196L303.15 590.52Z" fill="#FDAC2F"/>
<path fill-rule="evenodd" clip-rule="evenodd" d="M288.515 505.635C296.686 495.394 304.663 484.75 312.342 474.002C310.494 471.814 308.725 469.688 307.096 467.544L307.787 466.814L310.16 468.649C311.408 469.488 312.595 470.405 313.782 471.323C317.421 474.136 320.815 477.266 323.789 480.45L323.098 481.18L321.199 479.712C312.61 491.148 301.857 500.151 289.105 506.344L288.515 505.635Z" fill="#436473"/>
<path fill-rule="evenodd" clip-rule="evenodd" d="M288.576 505.556L288.716 505.538C301.39 499.284 312.143 490.281 320.714 478.705L321.02 478.31L324.105 480.695C326.716 482.714 329.02 485.128 330.861 487.815C333.651 491.237 334.373 495.208 333.052 499.369L332.991 499.448L332.929 499.527C330.335 503.209 328.1 506.917 326.225 510.65C325.999 511.106 325.912 511.545 326.124 512.088L326.469 513.114L325.495 512.739C324.739 512.408 324.099 512.419 323.495 512.71C309.545 529.607 291.914 541.129 270.987 546.943C266.631 547.999 262.498 547.458 258.65 545.241L258.114 544.953L288.576 505.556Z" fill="#374953"/>
<path fill-rule="evenodd" clip-rule="evenodd" d="M212.529 411.49C211.184 410.45 209.987 408.892 209.157 406.86L209.06 406.658L209.103 406.439C209.834 404.349 211.118 402.688 212.956 401.455L213.018 401.376L213.158 401.358C215.42 401.211 217.647 400.784 219.636 400.173L219.837 400.076L219.996 400.198C220.988 400.713 221.84 401.245 222.552 401.796C224.372 403.203 225.35 404.717 225.425 406.418C225.457 408.339 224.366 410.403 221.934 412.568L221.873 412.647L221.733 412.665C218.017 413.711 214.902 413.325 212.529 411.49Z" fill="#FBE097"/>
<path fill-rule="evenodd" clip-rule="evenodd" d="M263.409 519.468C265.024 507.571 268.016 495.853 272.58 484.719L273.816 478.217C273.935 476.918 273.511 475.832 272.403 474.976L272.008 474.67L272.314 474.274C272.558 473.958 272.54 473.817 272.224 473.573L271.828 473.267L272.134 472.871C273.052 471.685 273.311 470.368 272.912 468.922L272.797 468.581L273.121 468.325C277.035 466.043 280.78 462.997 284.392 459.47L284.515 459.312L284.655 459.294C287.162 458.831 289.705 458.648 292.205 458.685L292.284 458.746L292.363 458.807C297.7 460.405 302.663 462.979 307.093 466.404C307.33 466.587 307.884 467.016 307.884 467.016L307.963 467.077C309.671 469.282 311.537 471.61 313.464 473.858L313.719 474.182L313.475 474.498C305.735 485.326 297.697 496.049 289.403 506.449L287.507 508.901L263.394 520.468L263.409 519.468Z" fill="#527D86"/>
<path fill-rule="evenodd" clip-rule="evenodd" d="M362.875 613.819C374.838 598.673 386.608 583.124 397.957 567.629C402.351 558.512 406.393 548.871 409.856 539.161C410.252 536.686 410.228 534.266 409.984 531.802L409.966 531.661L410.027 531.582C410.661 529.291 410.777 526.853 410.49 524.608C409.764 522.277 409.459 519.893 409.575 517.454L409.762 515.577L410.557 517.328C417.986 533.059 418.41 549.187 411.711 565.371C406.262 576.832 398.221 586.415 387.77 593.882C380.088 603.49 372.503 613.3 365.199 623.074L365.138 623.153L365.077 623.232C362.443 625.494 359.713 627.554 356.982 629.614L355.486 630.732L362.875 613.819Z" fill="#E6722F"/>
<path fill-rule="evenodd" clip-rule="evenodd" d="M209.294 488.75C213.84 477.476 211.444 467.66 202.081 459.661L201.448 459.172L202.192 458.863C210.786 455.269 219.563 451.437 228.164 447.343C236.446 441.864 244.436 435.781 251.775 429.068L253.113 427.827L252.548 429.539C250.619 435.631 247.592 441.508 243.573 446.869C232.861 461.213 222.124 475.917 211.729 490.506L210.952 491.675L210.851 490.333C210.761 489.632 210.664 489.431 210.585 489.369C210.506 489.308 210.305 489.405 209.963 489.52L208.693 490.182L209.294 488.75Z" fill="#F4952C"/>
<path fill-rule="evenodd" clip-rule="evenodd" d="M333.963 557.208C341.07 545.891 349.011 534.967 357.7 524.873L357.761 524.794L357.822 524.715C363.967 520.365 369.364 515.183 373.987 509.531C375.264 508.369 376.735 507.611 378.279 507.413C382.285 506.972 386.433 506.513 390.598 506.194C396.212 506.617 401.146 508.409 405.26 511.59C407.238 513.119 408.971 514.965 410.661 517.03L410.819 517.152L410.776 517.372C410.563 519.609 410.929 521.914 411.655 524.245L411.77 524.587L411.446 524.842C410.982 525.115 410.158 525.363 409.148 524.708L408.99 524.586L408.893 524.385C408.013 520.291 405.881 517 402.716 514.553C402.242 514.186 401.767 513.819 401.231 513.531C387.927 525.997 373.91 537.913 359.286 548.979C351.308 552.922 343.063 555.902 334.552 557.917L333.308 558.219L333.963 557.208Z" fill="#FDBE43"/>
<path fill-rule="evenodd" clip-rule="evenodd" d="M364.518 529.134C363.569 528.4 363.022 527.472 362.958 526.41C362.786 524.508 364.139 522.267 366.92 519.488L367.042 519.33L367.183 519.312C369.269 518.902 371.391 518.773 373.33 518.882L373.47 518.864L373.628 518.986C376.925 521.915 378.31 524.376 377.859 526.429C377.409 528.483 375.125 530.129 370.909 531.168L370.769 531.186L370.628 531.204C367.873 530.843 365.863 530.174 364.518 529.134Z" fill="#FCDC96"/>
<path fill-rule="evenodd" clip-rule="evenodd" d="M200.98 510.131C204.557 503.543 207.896 496.771 210.877 489.974L210.938 489.895C221.333 475.306 232.07 460.602 242.782 446.258C246.74 440.975 249.644 435.257 251.513 429.244L251.574 429.165L251.635 429.086C254.69 423.99 256.753 418.38 257.578 412.571C256.899 408.381 256.501 404.155 256.359 400.252L257.323 399.986L260.234 406.03C264.372 423.892 261.246 440.688 250.818 456.137L244.701 464.048L232.659 476.352C225.427 483.907 218.882 492.372 213.146 501.589L213.085 501.668L213.024 501.747C209.552 505.256 205.807 508.302 201.63 510.76L200.037 511.677L200.98 510.131Z" fill="#E66A31"/>
<path fill-rule="evenodd" clip-rule="evenodd" d="M362.814 613.898C363.717 610.931 363.963 607.834 363.708 604.73L363.69 604.59L363.751 604.511C365.527 596.656 364.094 589.354 359.532 582.666C358.694 581.134 357.594 579.778 356.17 578.677C355.695 578.31 355.3 578.004 354.764 577.716L354.307 577.489L354.534 577.032C355.232 575.802 356.308 574.738 357.498 574.016L357.56 573.936L357.621 573.857C380.685 566.915 398.317 552.612 409.93 531.381L410.689 530.072L410.887 531.615C411.131 534.079 411.173 536.639 410.795 539.254C407.27 549.043 403.228 558.685 398.773 567.881C387.363 583.455 375.532 599.083 363.63 614.15L362.814 613.898Z" fill="#F6962D"/>
<path fill-rule="evenodd" clip-rule="evenodd" d="M257.841 544.489C255.072 542.348 253.275 539.441 252.747 535.873C251.826 514.177 257.899 494.225 270.601 476.489L272.742 473.72L273.137 474.026C274.482 475.066 275.021 476.494 274.877 478.152L273.58 484.734C269.2 495.631 266.233 506.988 264.564 518.465L286.925 507.692L287.514 508.401L258.949 545.345L258.553 545.04C258.395 544.917 258.079 544.673 257.841 544.489Z" fill="#44616D"/>
<path fill-rule="evenodd" clip-rule="evenodd" d="M299.464 638.61C299.306 638.488 299.148 638.366 299.051 638.164L298.971 638.103L298.953 637.963C297.98 634.808 297.628 631.502 298.136 628.23C302.228 608.387 310.65 590.629 323.218 575.192L323.279 575.113L323.34 575.034C334.402 569.556 345.235 570.095 355.419 576.705C355.955 576.993 356.429 577.36 356.904 577.727C358.407 578.889 359.666 580.368 360.442 581.979L359.672 582.648C359.118 582.22 358.705 581.774 358.151 581.346C356.727 580.245 355.102 579.241 353.494 578.377C340.515 597.288 326.324 615.642 311.227 633.042C309.558 635.038 307.403 636.026 304.781 636.148L304.281 636.141L304.227 635.72C302.863 625.059 304.176 614.697 308.218 605.055C304.536 611.942 302.146 619.447 300.949 627.371C300.434 631.144 300.699 634.888 301.726 638.463L301.877 639.086L301.237 639.096C300.615 639.247 299.939 638.977 299.464 638.61Z" fill="#EC7C2D"/>
<path fill-rule="evenodd" clip-rule="evenodd" d="M155.015 516.937C153.749 515.958 152.807 514.724 152.128 513.314L152.11 513.174L152.092 513.034C153.346 503.891 155.1 494.756 157.373 485.768C156.523 486.376 155.657 486.843 154.79 487.31L153.782 487.796L154.078 486.76C155.475 481.52 157.89 476.435 161.218 471.803C164.676 466.513 168.433 461.328 172.444 456.466L172.505 456.387L172.646 456.369C182.797 451.578 192.587 452.322 201.919 458.399L202.315 458.705L202.009 459.101C187.99 479.357 172.759 499.056 156.683 517.722L156.439 518.038L156.061 517.872C155.709 517.347 155.331 517.182 155.015 516.937Z" fill="#EB7A2D"/>
<path fill-rule="evenodd" clip-rule="evenodd" d="M150.246 527.028C149.613 526.539 149.103 525.891 148.653 525.164L148.574 525.103L148.556 524.963C146.071 511.665 147.92 498.811 154.042 486.479L154.164 486.321L154.304 486.303C155.513 485.721 156.765 484.919 157.877 484.135L158.988 483.351L158.589 484.686C156.151 494.051 154.292 503.485 153.013 512.987C153.595 514.196 154.379 515.307 155.486 516.164C155.644 516.286 155.882 516.469 156.04 516.592C171.993 498.084 187.102 478.544 200.998 458.446L201.304 458.05L202.491 458.968C212.25 467.272 214.779 477.57 210.006 489.301L209.945 489.38L209.884 489.459C203.191 498.442 195.294 506.367 186.473 513.198L185.743 512.507C188.784 508.412 191.928 504.017 195.152 499.684C193.016 500.813 190.994 502.283 189.209 503.937L189.148 504.016L189.087 504.096C177.352 510.444 165.539 516.731 153.848 522.86C152.844 524.486 152.761 526.065 153.537 527.676L153.986 528.403L153.127 528.37C152.231 528.057 151.116 527.701 150.246 527.028Z" fill="#E5682C"/>
<path fill-rule="evenodd" clip-rule="evenodd" d="M212.373 501.117C218.109 491.9 224.715 483.356 232.008 475.722L232.799 476.334C226.51 485.123 219.903 493.667 213.225 501.649L212.373 501.117Z" fill="#DC7956"/>
<path fill-rule="evenodd" clip-rule="evenodd" d="M310.924 634.578C310.932 634.078 310.799 633.596 310.464 633.211L310.209 632.888L310.454 632.571C325.612 615.092 339.864 596.659 352.904 577.669L353.149 577.352L353.527 577.518C355.354 578.425 357.137 579.551 358.719 580.774C359.273 581.202 359.748 581.569 360.241 582.077L360.32 582.138L360.399 582.199C365.137 589.149 366.606 596.732 364.726 604.885L364.665 604.964L364.604 605.043C361.232 609.894 357.508 614.22 353.353 617.959L353.292 618.039L353.152 618.057C351.583 618.614 349.357 619.041 346.533 619.26C337.083 623.961 327.748 629.005 318.65 634.232L318.449 634.329L318.309 634.347C315.913 634.012 313.669 634.299 311.575 635.208L310.831 635.517L310.924 634.578Z" fill="#E66A2E"/>
<path fill-rule="evenodd" clip-rule="evenodd" d="M320.783 597.959C319.517 596.98 318.795 595.79 318.712 594.588C318.576 592.966 319.404 591.078 321.293 589.126C322.498 587.403 324.232 586.469 326.275 586.279L326.415 586.261L326.574 586.383C327.03 586.61 327.426 586.915 327.821 587.221C329.483 588.506 330.417 590.24 330.766 592.405L330.784 592.545L330.722 592.624C329.214 595.883 326.721 598.126 323.401 599.478L323.2 599.575L323.041 599.452C322.189 598.92 321.416 598.448 320.783 597.959Z" fill="#F9BB7F"/>
<path fill-rule="evenodd" clip-rule="evenodd" d="M168.689 480.614C168.057 480.124 167.467 479.416 166.938 478.628L166.92 478.487L166.903 478.347C167.195 473.391 169.642 470.227 174.304 468.775L174.505 468.678L174.664 468.8C174.98 469.045 175.217 469.228 175.534 469.473C177.749 471.186 178.903 472.963 178.856 474.822C178.826 476.822 177.297 478.8 174.347 480.817C172.131 481.884 170.272 481.837 168.689 480.614Z" fill="#F8BC7E"/>
<path fill-rule="evenodd" clip-rule="evenodd" d="M301.347 643.859C299.528 642.452 298.697 640.419 298.874 637.902L298.932 636.683L299.759 637.575C299.838 637.636 299.996 637.758 300.076 637.819C300.234 637.942 300.392 638.064 300.611 638.107C299.803 634.575 299.556 630.971 300.089 627.338C301.931 614.984 306.776 603.814 314.483 593.846L315.274 594.458C306.89 606.936 303.508 620.628 305.234 635.235C307.356 635.106 309.09 634.171 310.454 632.571L310.821 632.097L311.234 632.543C311.569 632.928 311.842 633.392 311.896 633.813C314.007 633.043 316.111 632.774 318.366 633.127C327.464 627.9 336.878 622.918 346.249 618.155L346.31 618.076L346.451 618.058C349.274 617.84 351.501 617.412 352.929 616.873L353.457 617.661C343.297 628.513 331.288 637.178 317.676 643.338C313.313 644.895 308.684 645.487 304.069 645.079L303.99 645.018L303.911 644.957C302.973 644.863 302.059 644.409 301.347 643.859Z" fill="#DC5B2A"/>
<path fill-rule="evenodd" clip-rule="evenodd" d="M152.915 527.827C151.883 525.892 151.991 523.953 153.301 521.932L153.362 521.853L153.503 521.835C165.273 515.767 177.087 509.48 188.821 503.131C191.253 500.967 193.94 499.126 196.761 497.767L198.513 496.973L197.429 498.537C193.795 503.564 190.222 508.513 186.815 513.083L186.754 513.162L186.692 513.241C179.807 519.041 172.076 523.808 163.745 527.226C160.302 528.736 156.777 529.044 153.249 528.212L153.03 528.169L152.915 527.827Z" fill="#D95728"/>
</g>
<defs>
<clipPath id="clip0_113_2068">
<rect width="789" height="796" fill="white"/>
</clipPath>
</defs>
</svg>
